<?xml version="1.0" encoding="UTF-8" standalone="no"?><svg xmlns="http://www.w3.org/2000/svg" xmlns:xlink="http://www.w3.org/1999/xlink" height="1021" version="1.1" width="2409.91357421875"><defs/><g><g transform="translate(-30,-13) scale(1,1)"><rect fill="#8c4242" height="912" stroke="none" width="328" x="1024" y="112"/></g><g transform="translate(-30,-13) scale(1,1)"><path d="M 1024 112 L 1352 112 L 1352 1024 L 1024 1024 L 1024 112 Z Z" fill="none" stroke="#000000" stroke-miterlimit="10"/></g><g transform="translate(-30,-13) scale(1,1)"><g><path fill="none" stroke="none"/><text fill="#ffffff" font-family="Arial" font-size="13px" font-style="normal" font-weight="normal" stroke="none" text-decoration="none" x="1162.7109375" y="133">Firebase</text></g></g><g transform="translate(-30,-13) scale(1,1)"><rect fill="#ffe69b" height="69" stroke="none" width="78.26806640625" x="48" y="864"/></g><g transform="translate(-30,-13) scale(1,1)"><path d="M 48 864 L 126.26806640625 864 L 126.26806640625 933 L 48 933 L 48 864 Z Z" fill="none" stroke="#000000" stroke-miterlimit="10"/></g><g transform="translate(-30,-13) scale(1,1)"><g><path fill="none" stroke="none"/><text fill="#000000" font-family="Arial" font-size="13px" font-style="normal" font-weight="normal" stroke="none" text-decoration="none" x="69.43994140625" y="885">User -</text><text fill="#000000" font-family="Arial" font-size="13px" font-style="normal" font-weight="normal" stroke="none" text-decoration="none" x="57.5" y="898">Candidate</text></g></g><g transform="translate(-30,-13) scale(1,1)"><rect fill="#ffe69b" height="64" stroke="none" width="73.18994140625" x="40" y="264"/></g><g transform="translate(-30,-13) scale(1,1)"><path d="M 40 264 L 113.18994140625 264 L 113.18994140625 328 L 40 328 L 40 264 Z Z" fill="none" stroke="#000000" stroke-miterlimit="10"/></g><g transform="translate(-30,-13) scale(1,1)"><g><path fill="none" stroke="none"/><text fill="#000000" font-family="Arial" font-size="13px" font-style="normal" font-weight="normal" stroke="none" text-decoration="none" x="58.90087890625" y="285">User -</text><text fill="#000000" font-family="Arial" font-size="13px" font-style="normal" font-weight="normal" stroke="none" text-decoration="none" x="50.226806640625" y="298">Recruiter</text></g></g><g transform="translate(-30,-13) scale(1,1)"><rect fill="#adff5c" height="136" stroke="none" width="121.18994140625" x="2224" y="664"/></g><g transform="translate(-30,-13) scale(1,1)"><path d="M 2224 664 L 2345.18994140625 664 L 2345.18994140625 800 L 2224 800 L 2224 664 Z Z" fill="none" stroke="#000000" stroke-miterlimit="10"/></g><g transform="translate(-30,-13) scale(1,1)"><g><path fill="none" stroke="none"/><text fill="#000000" font-family="Arial" font-size="13px" font-style="normal" font-weight="normal" stroke="none" text-decoration="none" x="2243.411376953125" y="685">Drushim Page</text></g></g><g transform="translate(-30,-13) scale(1,1)"><path d="M 2224 720 L 1352 720" fill="none" stroke="#000000" stroke-miterlimit="10"/></g><g transform="translate(-30,-13) scale(1,1)"><path d="M 1362.162674857624 715.790482243984 L 1352 720 L 1362.162674857624 724.209517756016" fill="#000000" stroke="none"/></g><g transform="translate(-30,-13) scale(1,1)"><path d="M 1362.162674857624 715.790482243984 L 1352 720 L 1362.162674857624 724.209517756016 L 1362.162674857624 715.790482243984" fill="none" stroke="#000000" stroke-miterlimit="10"/></g><g transform="translate(-30,-13) scale(1,1)"><g><path fill="none" stroke="none"/><text fill="#000000" font-family="Arial" font-size="13px" font-style="normal" font-weight="normal" stroke="none" text-decoration="none" x="1567.5" y="714">Get List Of Jobs</text></g></g><g transform="translate(-30,-13) scale(1,1)"><path d="M 1352 784 L 2224 784" fill="none" stroke="#000000" stroke-miterlimit="10"/></g><g transform="translate(-30,-13) scale(1,1)"><path d="M 2213.837325142376 788.209517756016 L 2224 784 L 2213.837325142376 779.790482243984" fill="#000000" stroke="none"/></g><g transform="translate(-30,-13) scale(1,1)"><path d="M 2213.837325142376 788.209517756016 L 2224 784 L 2213.837325142376 779.790482243984 L 2213.837325142376 788.209517756016" fill="none" stroke="#000000" stroke-miterlimit="10"/></g><g transform="translate(-30,-13) scale(1,1)"><g><path fill="none" stroke="none"/><text fill="#000000" font-family="Arial" font-size="13px" font-style="normal" font-weight="normal" stroke="none" text-decoration="none" x="1805.805908203125" y="779">List of Jobs</text></g></g><g transform="translate(-30,-13) scale(1,1)"><path d="M 2345 732 L 2416 732 L 2416 664 L 2345 664" fill="none" stroke="#000000" stroke-miterlimit="10"/></g><g transform="translate(-30,-13) scale(1,1)"><path d="M 2355.162674857624 659.790482243984 L 2345 664 L 2355.162674857624 668.209517756016" fill="#000000" stroke="none"/></g><g transform="translate(-30,-13) scale(1,1)"><path d="M 2355.162674857624 659.790482243984 L 2345 664 L 2355.162674857624 668.209517756016 L 2355.162674857624 659.790482243984" fill="none" stroke="#000000" stroke-miterlimit="10"/></g><g transform="translate(-30,-13) scale(1,1)"><g><path fill="none" stroke="none"/><text fill="#000000" font-family="Arial" font-size="13px" font-style="normal" font-weight="normal" stroke="none" text-decoration="none" x="2349.5" y="659">Search / Filter</text></g></g><g transform="translate(-30,-13) scale(1,1)"><rect fill="#adff5c" height="112" stroke="none" width="88" x="2256" y="832"/></g><g transform="translate(-30,-13) scale(1,1)"><path d="M 2256 832 L 2344 832 L 2344 944 L 2256 944 L 2256 832 Z Z" fill="none" stroke="#000000" stroke-miterlimit="10"/></g><g transform="translate(-30,-13) scale(1,1)"><g><path fill="none" stroke="none"/><text fill="#000000" font-family="Arial" font-size="13px" font-style="normal" font-weight="normal" stroke="none" text-decoration="none" x="2267.65234375" y="853">Job page +</text><text fill="#000000" font-family="Arial" font-size="13px" font-style="normal" font-weight="normal" stroke="none" text-decoration="none" x="2284.4609375" y="866">apply</text></g></g><g transform="translate(-30,-13) scale(1,1)"><path d="M 126 904 L 1024 904" fill="none" stroke="#2b2bff" stroke-miterlimit="10"/></g><g transform="translate(-30,-13) scale(1,1)"><path d="M 1013.8373251423759 908.209517756016 L 1024 904 L 1013.8373251423758 899.790482243984" fill="#2b2bff" stroke="none"/></g><g transform="translate(-30,-13) scale(1,1)"><path d="M 1013.8373251423759 908.209517756016 L 1024 904 L 1013.8373251423758 899.790482243984 L 1013.8373251423759 908.209517756016" fill="none" stroke="#2b2bff" stroke-miterlimit="10"/></g><g transform="translate(-30,-13) scale(1,1)"><g><path fill="none" stroke="none"/><text fill="#000000" font-family="Arial" font-size="13px" font-style="normal" font-weight="normal" stroke="none" text-decoration="none" x="383.5" y="898">Clicks a link to a specific job</text></g></g><g transform="translate(-30,-13) scale(1,1)"><path d="M 1352 920 L 2256 920" fill="none" stroke="#2b2bff" stroke-miterlimit="10"/></g><g transform="translate(-30,-13) scale(1,1)"><path d="M 2245.837325142376 924.209517756016 L 2256 920 L 2245.837325142376 915.790482243984" fill="#2b2bff" stroke="none"/></g><g transform="translate(-30,-13) scale(1,1)"><path d="M 2245.837325142376 924.209517756016 L 2256 920 L 2245.837325142376 915.790482243984 L 2245.837325142376 924.209517756016" fill="none" stroke="#2b2bff" stroke-miterlimit="10"/></g><g transform="translate(-30,-13) scale(1,1)"><g><path fill="none" stroke="none"/><text fill="#000000" font-family="Arial" font-size="13px" font-style="normal" font-weight="normal" stroke="none" text-decoration="none" x="1846.5" y="938">Job Page</text></g></g><g transform="translate(-30,-13) scale(1,1)"><path d="M 126 880 L 1024 880" fill="none" stroke="#1f7e6e" stroke-miterlimit="10"/></g><g transform="translate(-30,-13) scale(1,1)"><path d="M 1013.8373251423759 884.209517756016 L 1024 880 L 1013.8373251423758 875.790482243984" fill="#1f7e6e" stroke="none"/></g><g transform="translate(-30,-13) scale(1,1)"><path d="M 1013.8373251423759 884.209517756016 L 1024 880 L 1013.8373251423758 875.790482243984 L 1013.8373251423759 884.209517756016" fill="none" stroke="#1f7e6e" stroke-miterlimit="10"/></g><g transform="translate(-30,-13) scale(1,1)"><g><path fill="none" stroke="none"/><text fill="#000000" font-family="Arial" font-size="13px" font-style="normal" font-weight="normal" stroke="none" text-decoration="none" x="183.5" y="874">Request gvanim.org.il/he/jobs</text></g></g><g transform="translate(-30,-13) scale(1,1)"><path d="M 1352 688 L 2224 688" fill="none" stroke="#1f7e6e" stroke-miterlimit="10"/></g><g transform="translate(-30,-13) scale(1,1)"><path d="M 2213.837325142376 692.209517756016 L 2224 688 L 2213.837325142376 683.790482243984" fill="#1f7e6e" stroke="none"/></g><g transform="translate(-30,-13) scale(1,1)"><path d="M 2213.837325142376 692.209517756016 L 2224 688 L 2213.837325142376 683.790482243984 L 2213.837325142376 692.209517756016" fill="none" stroke="#1f7e6e" stroke-miterlimit="10"/></g><g transform="translate(-30,-13) scale(1,1)"><g><path fill="none" stroke="none"/><text fill="#000000" font-family="Arial" font-size="13px" font-style="normal" font-weight="normal" stroke="none" text-decoration="none" x="1454.5" y="682">Drushim Page</text></g></g><g transform="translate(-30,-13) scale(1,1)"><path d="M 2256 896 L 1352 896" fill="none" stroke="#ae350d" stroke-miterlimit="10"/></g><g transform="translate(-30,-13) scale(1,1)"><path d="M 1362.162674857624 891.790482243984 L 1352 896 L 1362.162674857624 900.209517756016" fill="#ae350d" stroke="none"/></g><g transform="translate(-30,-13) scale(1,1)"><path d="M 1362.162674857624 891.790482243984 L 1352 896 L 1362.162674857624 900.209517756016 L 1362.162674857624 891.790482243984" fill="none" stroke="#ae350d" stroke-miterlimit="10"/></g><g transform="translate(-30,-13) scale(1,1)"><g><path fill="none" stroke="none"/><text fill="#000000" font-family="Arial" font-size="13px" font-style="normal" font-weight="normal" stroke="none" text-decoration="none" x="1510.5" y="890">Add Candidacy Information</text></g></g><g transform="translate(-30,-13) scale(1,1)"><path d="M 1024 933 L 126 933" fill="none" stroke="#ae350d" stroke-miterlimit="10"/></g><g transform="translate(-30,-13) scale(1,1)"><path d="M 136.16267485762415 928.790482243984 L 126 933 L 136.16267485762415 937.209517756016" fill="#ae350d" stroke="none"/></g><g transform="translate(-30,-13) scale(1,1)"><path d="M 136.16267485762415 928.790482243984 L 126 933 L 136.16267485762415 937.209517756016 L 136.16267485762415 928.790482243984" fill="none" stroke="#ae350d" stroke-miterlimit="10"/></g><g transform="translate(-30,-13) scale(1,1)"><g><path fill="none" stroke="none"/><text fill="#000000" font-family="Arial" font-size="13px" font-style="normal" font-weight="normal" stroke="none" text-decoration="none" x="579.5" y="931">Send email that candidacy has been updated in our system</text></g></g><g transform="translate(-30,-13) scale(1,1)"><rect fill="#adff5c" height="192" stroke="none" width="128" x="1840" y="72"/></g><g transform="translate(-30,-13) scale(1,1)"><path d="M 1840 72 L 1968 72 L 1968 264 L 1840 264 L 1840 72 Z Z" fill="none" stroke="#000000" stroke-miterlimit="10"/></g><g transform="translate(-30,-13) scale(1,1)"><g><path fill="none" stroke="none"/><text fill="#000000" font-family="Arial" font-size="13px" font-style="normal" font-weight="normal" stroke="none" text-decoration="none" x="1860.6455078125" y="93">Recruiter Page</text></g></g><g transform="translate(-30,-13) scale(1,1)"><path d="M 113 309 L 1024 309" fill="none" stroke="#000000" stroke-miterlimit="10"/></g><g transform="translate(-30,-13) scale(1,1)"><path d="M 1013.8373251423759 313.209517756016 L 1024 309 L 1013.8373251423758 304.790482243984" fill="#000000" stroke="none"/></g><g transform="translate(-30,-13) scale(1,1)"><path d="M 1013.8373251423759 313.209517756016 L 1024 309 L 1013.8373251423758 304.790482243984 L 1013.8373251423759 313.209517756016" fill="none" stroke="#000000" stroke-miterlimit="10"/></g><g transform="translate(-30,-13) scale(1,1)"><g><path fill="none" stroke="none"/><text fill="#000000" font-family="Arial" font-size="13px" font-style="normal" font-weight="normal" stroke="none" text-decoration="none" x="176.095947265625" y="306">Login</text></g></g><g transform="translate(-30,-13) scale(1,1)"><path d="M 1352 176 L 1840 176" fill="none" stroke="#000000" stroke-miterlimit="10"/></g><g transform="translate(-30,-13) scale(1,1)"><path d="M 1829.837325142376 180.209517756016 L 1840 176 L 1829.837325142376 171.790482243984" fill="#000000" stroke="none"/></g><g transform="translate(-30,-13) scale(1,1)"><path d="M 1829.837325142376 180.209517756016 L 1840 176 L 1829.837325142376 171.790482243984 L 1829.837325142376 180.209517756016" fill="none" stroke="#000000" stroke-miterlimit="10"/></g><g transform="translate(-30,-13) scale(1,1)"><g><path fill="none" stroke="none"/><text fill="#000000" font-family="Arial" font-size="13px" font-style="normal" font-weight="normal" stroke="none" text-decoration="none" x="1455.5" y="170">Recruiter's Page</text></g></g><g transform="translate(-30,-13) scale(1,1)"><rect fill="#adff5c" height="96" stroke="none" width="73.18994140625" x="1896" y="288"/></g><g transform="translate(-30,-13) scale(1,1)"><path d="M 1896 288 L 1969.18994140625 288 L 1969.18994140625 384 L 1896 384 L 1896 288 Z Z" fill="none" stroke="#000000" stroke-miterlimit="10"/></g><g transform="translate(-30,-13) scale(1,1)"><g><path fill="none" stroke="none"/><text fill="#000000" font-family="Arial" font-size="13px" font-style="normal" font-weight="normal" stroke="none" text-decoration="none" x="1906.588623046875" y="309">Statistics</text><text fill="#000000" font-family="Arial" font-size="13px" font-style="normal" font-weight="normal" stroke="none" text-decoration="none" x="1917.41455078125" y="322">Page</text></g></g><g transform="translate(-30,-13) scale(1,1)"><path d="M 2224 752 L 1352 752" fill="none" stroke="#2b2bff" stroke-miterlimit="10"/></g><g transform="translate(-30,-13) scale(1,1)"><path d="M 1362.162674857624 747.790482243984 L 1352 752 L 1362.162674857624 756.209517756016" fill="#2b2bff" stroke="none"/></g><g transform="translate(-30,-13) scale(1,1)"><path d="M 1362.162674857624 747.790482243984 L 1352 752 L 1362.162674857624 756.209517756016 L 1362.162674857624 747.790482243984" fill="none" stroke="#2b2bff" stroke-miterlimit="10"/></g><g transform="translate(-30,-13) scale(1,1)"><g><path fill="none" stroke="none"/><text fill="#000000" font-family="Arial" font-size="13px" font-style="normal" font-weight="normal" stroke="none" text-decoration="none" x="1670.5" y="746">Request Job Page</text></g></g><g transform="translate(-30,-13) scale(1,1)"><path d="M 1352 336 L 1896 336" fill="none" stroke="#000000" stroke-miterlimit="10"/></g><g transform="translate(-30,-13) scale(1,1)"><path d="M 1885.837325142376 340.209517756016 L 1896 336 L 1885.837325142376 331.790482243984" fill="#000000" stroke="none"/></g><g transform="translate(-30,-13) scale(1,1)"><path d="M 1885.837325142376 340.209517756016 L 1896 336 L 1885.837325142376 331.790482243984 L 1885.837325142376 340.209517756016" fill="none" stroke="#000000" stroke-miterlimit="10"/></g><g transform="translate(-30,-13) scale(1,1)"><g><path fill="none" stroke="none"/><text fill="#000000" font-family="Arial" font-size="13px" font-style="normal" font-weight="normal" stroke="none" text-decoration="none" x="1551.5" y="330">Statistics Page</text></g></g><g transform="translate(-30,-13) scale(1,1)"><path d="M 1840 200 L 1352 200" fill="none" stroke="#000000" stroke-miterlimit="10"/></g><g transform="translate(-30,-13) scale(1,1)"><path d="M 1362.162674857624 195.790482243984 L 1352 200 L 1362.162674857624 204.209517756016" fill="#000000" stroke="none"/></g><g transform="translate(-30,-13) scale(1,1)"><path d="M 1362.162674857624 195.790482243984 L 1352 200 L 1362.162674857624 204.209517756016 L 1362.162674857624 195.790482243984" fill="none" stroke="#000000" stroke-miterlimit="10"/></g><g transform="translate(-30,-13) scale(1,1)"><g><path fill="none" stroke="none"/><text fill="#000000" font-family="Arial" font-size="13px" font-style="normal" font-weight="normal" stroke="none" text-decoration="none" x="1574.5" y="195">Request Statistics Page</text></g></g><g transform="translate(-30,-13) scale(1,1)"><path d="M 1864 72 L 1864 40 L 1912 40 L 1912 72" fill="none" stroke="#000000" stroke-miterlimit="10"/></g><g transform="translate(-30,-13) scale(1,1)"><path d="M 1907.7904822439841 61.837325142375846 L 1912 72 L 1916.2095177560159 61.837325142375846" fill="#000000" stroke="none"/></g><g transform="translate(-30,-13) scale(1,1)"><path d="M 1907.7904822439841 61.837325142375846 L 1912 72 L 1916.2095177560159 61.837325142375846 L 1907.7904822439841 61.837325142375846" fill="none" stroke="#000000" stroke-miterlimit="10"/></g><g transform="translate(-30,-13) scale(1,1)"><g><path fill="none" stroke="none"/><text fill="#000000" font-family="Arial" font-size="13px" font-style="normal" font-weight="normal" stroke="none" text-decoration="none" x="1812.5" y="34">Manage Jobs / Candidate</text></g></g></g></svg>