<?xml version="1.0" encoding="UTF-8" standalone="no"?><svg xmlns="http://www.w3.org/2000/svg" xmlns:xlink="http://www.w3.org/1999/xlink" height="1325" version="1.1" width="1565"><defs/><g><g transform="translate(-438,-61) scale(1,1)"><rect fill="#8c4242" height="1232" stroke="none" width="328" x="1008" y="104"/></g><g transform="translate(-438,-61) scale(1,1)"><path d="M 1008 104 L 1336 104 L 1336 1336 L 1008 1336 L 1008 104 Z Z" fill="none" stroke="#000000" stroke-miterlimit="10"/></g><g transform="translate(-438,-61) scale(1,1)"><g><path fill="none" stroke="none"/><text fill="#ffffff" font-family="Courier New" font-size="60px" font-style="normal" font-weight="normal" stroke="none" text-decoration="none" x="1027.9765625" y="165">Firebase</text></g></g><g transform="translate(-438,-61) scale(1,1)"><rect fill="#ffe69b" height="101" stroke="none" width="78.26806640625" x="616" y="1104"/></g><g transform="translate(-438,-61) scale(1,1)"><path d="M 616 1104 L 694.26806640625 1104 L 694.26806640625 1205 L 616 1205 L 616 1104 Z Z" fill="none" stroke="#000000" stroke-miterlimit="10"/></g><g transform="translate(-438,-61) scale(1,1)"><g><path fill="none" stroke="none"/><text fill="#000000" font-family="Arial" font-size="13px" font-style="normal" font-weight="normal" stroke="none" text-decoration="none" x="625.5" y="1125">Candidate</text></g></g><g transform="translate(-438,-61) scale(1,1)"><rect fill="#ffe69b" height="64" stroke="none" width="73.18994140625" x="696" y="320"/></g><g transform="translate(-438,-61) scale(1,1)"><path d="M 696 320 L 769.18994140625 320 L 769.18994140625 384 L 696 384 L 696 320 Z Z" fill="none" stroke="#000000" stroke-miterlimit="10"/></g><g transform="translate(-438,-61) scale(1,1)"><g><path fill="none" stroke="none"/><text fill="#000000" font-family="Arial" font-size="13px" font-style="normal" font-weight="normal" stroke="none" text-decoration="none" x="706.226806640625" y="341">Recruiter</text><text fill="#000000" font-family="Arial" font-size="13px" font-style="normal" font-weight="normal" stroke="none" text-decoration="none" x="710.55908203125" y="354">/ Admin</text></g></g><g transform="translate(-438,-61) scale(1,1)"><rect fill="#adff5c" height="136" stroke="none" width="121.18994140625" x="1704" y="1056"/></g><g transform="translate(-438,-61) scale(1,1)"><path d="M 1704 1056 L 1825.18994140625 1056 L 1825.18994140625 1192 L 1704 1192 L 1704 1056 Z Z" fill="none" stroke="#000000" stroke-miterlimit="10"/></g><g transform="translate(-438,-61) scale(1,1)"><g><path fill="none" stroke="none"/><text fill="#000000" font-family="Arial" font-size="20px" font-style="normal" font-weight="normal" stroke="none" text-decoration="none" x="1727.368408203125" y="1083">Drushim</text><text fill="#000000" font-family="Arial" font-size="20px" font-style="normal" font-weight="normal" stroke="none" text-decoration="none" x="1741.240478515625" y="1102.5">Page</text></g></g><g transform="translate(-438,-61) scale(1,1)"><path d="M 1704 1192 L 1336 1192" fill="none" stroke="#000000" stroke-miterlimit="10"/></g><g transform="translate(-438,-61) scale(1,1)"><path d="M 1346.162674857624 1187.7904822439841 L 1336 1192 L 1346.162674857624 1196.2095177560159" fill="#000000" stroke="none"/></g><g transform="translate(-438,-61) scale(1,1)"><path d="M 1346.162674857624 1187.7904822439841 L 1336 1192 L 1346.162674857624 1196.2095177560159 L 1346.162674857624 1187.7904822439841" fill="none" stroke="#000000" stroke-miterlimit="10"/></g><g transform="translate(-438,-61) scale(1,1)"><g><path fill="none" stroke="none"/><text fill="#000000" font-family="Arial" font-size="20px" font-style="normal" font-weight="normal" stroke="none" text-decoration="none" x="1450.5" y="1188">Get list of jobs</text></g></g><g transform="translate(-438,-61) scale(1,1)"><path d="M 1825 1124 L 1896 1124 L 1896 1056 L 1825 1056" fill="none" stroke="#000000" stroke-miterlimit="10"/></g><g transform="translate(-438,-61) scale(1,1)"><path d="M 1835.162674857624 1051.7904822439841 L 1825 1056 L 1835.162674857624 1060.2095177560159" fill="#000000" stroke="none"/></g><g transform="translate(-438,-61) scale(1,1)"><path d="M 1835.162674857624 1051.7904822439841 L 1825 1056 L 1835.162674857624 1060.2095177560159 L 1835.162674857624 1051.7904822439841" fill="none" stroke="#000000" stroke-miterlimit="10"/></g><g transform="translate(-438,-61) scale(1,1)"><g><path fill="none" stroke="none"/><text fill="#000000" font-family="Arial" font-size="20px" font-style="normal" font-weight="normal" stroke="none" text-decoration="none" x="1807.5" y="1053">Search / Filter</text></g></g><g transform="translate(-438,-61) scale(1,1)"><rect fill="#adff5c" height="112" stroke="none" width="88" x="1720" y="1264"/></g><g transform="translate(-438,-61) scale(1,1)"><path d="M 1720 1264 L 1808 1264 L 1808 1376 L 1720 1376 L 1720 1264 Z Z" fill="none" stroke="#000000" stroke-miterlimit="10"/></g><g transform="translate(-438,-61) scale(1,1)"><g><path fill="none" stroke="none"/><text fill="#000000" font-family="Arial" font-size="20px" font-style="normal" font-weight="normal" stroke="none" text-decoration="none" x="1747.876953125" y="1291">Job</text><text fill="#000000" font-family="Arial" font-size="20px" font-style="normal" font-weight="normal" stroke="none" text-decoration="none" x="1733.1357421875" y="1309">page +</text><text fill="#000000" font-family="Arial" font-size="20px" font-style="normal" font-weight="normal" stroke="none" text-decoration="none" x="1740.09375" y="1331">apply</text></g></g><g transform="translate(-438,-61) scale(1,1)"><path d="M 694 1168 L 1008 1168" fill="none" stroke="#000000" stroke-miterlimit="10"/></g><g transform="translate(-438,-61) scale(1,1)"><path d="M 997.8373251423759 1172.2095177560159 L 1008 1168 L 997.8373251423758 1163.7904822439841" fill="#000000" stroke="none"/></g><g transform="translate(-438,-61) scale(1,1)"><path d="M 997.8373251423759 1172.2095177560159 L 1008 1168 L 997.8373251423758 1163.7904822439841 L 997.8373251423759 1172.2095177560159" fill="none" stroke="#000000" stroke-miterlimit="10"/></g><g transform="translate(-438,-61) scale(1,1)"><g><path fill="none" stroke="none"/><text fill="#000000" font-family="Arial" font-size="20px" font-style="normal" font-weight="normal" stroke="none" text-decoration="none" x="691.5" y="1165">Clicks a link (facebook, whatsapp...)</text></g></g><g transform="translate(-438,-61) scale(1,1)"><path d="M 694 1120 L 1008 1120" fill="none" stroke="#000000" stroke-miterlimit="10"/></g><g transform="translate(-438,-61) scale(1,1)"><path d="M 997.8373251423759 1124.2095177560159 L 1008 1120 L 997.8373251423758 1115.7904822439841" fill="#000000" stroke="none"/></g><g transform="translate(-438,-61) scale(1,1)"><path d="M 997.8373251423759 1124.2095177560159 L 1008 1120 L 997.8373251423758 1115.7904822439841 L 997.8373251423759 1124.2095177560159" fill="none" stroke="#000000" stroke-miterlimit="10"/></g><g transform="translate(-438,-61) scale(1,1)"><g><path fill="none" stroke="none"/><text fill="#000000" font-family="Arial" font-size="20px" font-style="normal" font-weight="normal" stroke="none" text-decoration="none" x="709.5" y="1116">Request gvanim.org.il/he/jobs</text></g></g><g transform="translate(-438,-61) scale(1,1)"><path d="M 1336 1080 L 1704 1080" fill="none" stroke="#000000" stroke-miterlimit="10"/></g><g transform="translate(-438,-61) scale(1,1)"><path d="M 1693.837325142376 1084.2095177560159 L 1704 1080 L 1693.837325142376 1075.7904822439841" fill="#000000" stroke="none"/></g><g transform="translate(-438,-61) scale(1,1)"><path d="M 1693.837325142376 1084.2095177560159 L 1704 1080 L 1693.837325142376 1075.7904822439841 L 1693.837325142376 1084.2095177560159" fill="none" stroke="#000000" stroke-miterlimit="10"/></g><g transform="translate(-438,-61) scale(1,1)"><g><path fill="none" stroke="none"/><text fill="#000000" font-family="Arial" font-size="20px" font-style="normal" font-weight="normal" stroke="none" text-decoration="none" x="1446.5" y="1063">Drushim Page</text></g></g><g transform="translate(-438,-61) scale(1,1)"><path d="M 1720 1320 L 1336 1320" fill="none" stroke="#ae350d" stroke-miterlimit="10"/></g><g transform="translate(-438,-61) scale(1,1)"><path d="M 1346.162674857624 1315.7904822439841 L 1336 1320 L 1346.162674857624 1324.2095177560159" fill="#ae350d" stroke="none"/></g><g transform="translate(-438,-61) scale(1,1)"><path d="M 1346.162674857624 1315.7904822439841 L 1336 1320 L 1346.162674857624 1324.2095177560159 L 1346.162674857624 1315.7904822439841" fill="none" stroke="#ae350d" stroke-miterlimit="10"/></g><g transform="translate(-438,-61) scale(1,1)"><g><path fill="none" stroke="none"/><text fill="#000000" font-family="Arial" font-size="20px" font-style="normal" font-weight="normal" stroke="none" text-decoration="none" x="1405.5" y="1317">Send candidacy information</text></g></g><g transform="translate(-438,-61) scale(1,1)"><path d="M 1008 1205 L 694 1205" fill="none" stroke="#ae350d" stroke-miterlimit="10"/></g><g transform="translate(-438,-61) scale(1,1)"><path d="M 704.1626748576241 1200.7904822439841 L 694 1205 L 704.1626748576241 1209.2095177560159" fill="#ae350d" stroke="none"/></g><g transform="translate(-438,-61) scale(1,1)"><path d="M 704.1626748576241 1200.7904822439841 L 694 1205 L 704.1626748576241 1209.2095177560159 L 704.1626748576241 1200.7904822439841" fill="none" stroke="#ae350d" stroke-miterlimit="10"/></g><g transform="translate(-438,-61) scale(1,1)"><g><path fill="none" stroke="none"/><text fill="#000000" font-family="Arial" font-size="13px" font-style="normal" font-weight="normal" stroke="none" text-decoration="none" x="691.025390625" y="1202">Send email that their info was updated in our system</text></g></g><g transform="translate(-438,-61) scale(1,1)"><path d="M 769 352 L 1008 352" fill="none" stroke="#000000" stroke-miterlimit="10"/></g><g transform="translate(-438,-61) scale(1,1)"><path d="M 997.8373251423759 356.209517756016 L 1008 352 L 997.8373251423758 347.790482243984" fill="#000000" stroke="none"/></g><g transform="translate(-438,-61) scale(1,1)"><path d="M 997.8373251423759 356.209517756016 L 1008 352 L 997.8373251423758 347.790482243984 L 997.8373251423759 356.209517756016" fill="none" stroke="#000000" stroke-miterlimit="10"/></g><g transform="translate(-438,-61) scale(1,1)"><g><path fill="none" stroke="none"/><text fill="#000000" font-family="Arial" font-size="20px" font-style="normal" font-weight="normal" stroke="none" text-decoration="none" x="823.5322265625" y="351">Login</text></g></g><g transform="translate(-438,-61) scale(1,1)"><path d="M 1336 296 L 1504 296" fill="none" stroke="#000000" stroke-miterlimit="10"/></g><g transform="translate(-438,-61) scale(1,1)"><path d="M 1493.837325142376 300.209517756016 L 1504 296 L 1493.837325142376 291.790482243984" fill="#000000" stroke="none"/></g><g transform="translate(-438,-61) scale(1,1)"><path d="M 1493.837325142376 300.209517756016 L 1504 296 L 1493.837325142376 291.790482243984 L 1493.837325142376 300.209517756016" fill="none" stroke="#000000" stroke-miterlimit="10"/></g><g transform="translate(-438,-61) scale(1,1)"><g><path fill="none" stroke="none"/><text fill="#000000" font-family="Arial" font-size="20px" font-style="normal" font-weight="normal" stroke="none" text-decoration="none" x="1343.5" y="288">Recruiter's Page</text></g></g><g transform="translate(-438,-61) scale(1,1)"><path d="M 1529 120 L 1529 88 L 1577 88 L 1577 120" fill="none" stroke="#000000" stroke-miterlimit="10"/></g><g transform="translate(-438,-61) scale(1,1)"><path d="M 1572.7904822439841 109.83732514237585 L 1577 120 L 1581.2095177560159 109.83732514237585" fill="#000000" stroke="none"/></g><g transform="translate(-438,-61) scale(1,1)"><path d="M 1572.7904822439841 109.83732514237585 L 1577 120 L 1581.2095177560159 109.83732514237585 L 1572.7904822439841 109.83732514237585" fill="none" stroke="#000000" stroke-miterlimit="10"/></g><g transform="translate(-438,-61) scale(1,1)"><g><path fill="none" stroke="none"/><text fill="#000000" font-family="Arial" font-size="13px" font-style="normal" font-weight="normal" stroke="none" text-decoration="none" x="1478.3876953125" y="82">Manage Jobs / Candidate</text></g></g><g transform="translate(-438,-61) scale(1,1)"><rect fill="#adff5c" height="176" stroke="none" width="146.47998046875" x="1504" y="120"/></g><g transform="translate(-438,-61) scale(1,1)"><path d="M 1504 120 L 1650.47998046875 120 L 1650.47998046875 296 L 1504 296 L 1504 120 Z Z" fill="none" stroke="#000000" stroke-miterlimit="10"/></g><g transform="translate(-438,-61) scale(1,1)"><g><path fill="none" stroke="none"/><text fill="#000000" font-family="Arial" font-size="20px" font-style="normal" font-weight="normal" stroke="none" text-decoration="none" x="1529.764404296875" y="147">Recruiter's</text><text fill="#000000" font-family="Arial" font-size="20px" font-style="normal" font-weight="normal" stroke="none" text-decoration="none" x="1529.432373046875" y="167">Main Page</text></g></g><g transform="translate(-438,-61) scale(1,1)"><rect fill="#adff5c" height="160" stroke="none" width="128" x="1704" y="760"/></g><g transform="translate(-438,-61) scale(1,1)"><path d="M 1704 760 L 1832 760 L 1832 920 L 1704 920 L 1704 760 Z Z" fill="none" stroke="#000000" stroke-miterlimit="10"/></g><g transform="translate(-438,-61) scale(1,1)"><g><path fill="none" stroke="none"/><text fill="#000000" font-family="Arial" font-size="20px" font-style="normal" font-weight="normal" stroke="none" text-decoration="none" x="1732.9853515625" y="786.5">Reports</text><text fill="#000000" font-family="Arial" font-size="20px" font-style="normal" font-weight="normal" stroke="none" text-decoration="none" x="1744.6455078125" y="806.5">Page</text></g></g><g transform="translate(-438,-61) scale(1,1)"><rect fill="#adff5c" height="160" stroke="none" width="128" x="1704" y="544"/></g><g transform="translate(-438,-61) scale(1,1)"><path d="M 1704 544 L 1832 544 L 1832 704 L 1704 704 L 1704 544 Z Z" fill="none" stroke="#000000" stroke-miterlimit="10"/></g><g transform="translate(-438,-61) scale(1,1)"><g><path fill="none" stroke="none"/><text fill="#000000" font-family="Arial" font-size="20px" font-style="normal" font-weight="normal" stroke="none" text-decoration="none" x="1731.8623046875" y="570.5">Manage</text><text fill="#000000" font-family="Arial" font-size="20px" font-style="normal" font-weight="normal" stroke="none" text-decoration="none" x="1717.4091796875" y="591">Candidates</text><text fill="#000000" font-family="Arial" font-size="20px" font-style="normal" font-weight="normal" stroke="none" text-decoration="none" x="1744.6455078125" y="610.5">Page</text></g></g><g transform="translate(-438,-61) scale(1,1)"><rect fill="#adff5c" height="160" stroke="none" width="128" x="1704" y="320"/></g><g transform="translate(-438,-61) scale(1,1)"><path d="M 1704 320 L 1832 320 L 1832 480 L 1704 480 L 1704 320 Z Z" fill="none" stroke="#000000" stroke-miterlimit="10"/></g><g transform="translate(-438,-61) scale(1,1)"><g><path fill="none" stroke="none"/><text fill="#000000" font-family="Arial" font-size="20px" font-style="normal" font-weight="normal" stroke="none" text-decoration="none" x="1731.8623046875" y="346.5">Manage</text><text fill="#000000" font-family="Arial" font-size="20px" font-style="normal" font-weight="normal" stroke="none" text-decoration="none" x="1720.744140625" y="367">Jobs Page</text></g></g><g transform="translate(-438,-61) scale(1,1)"><path d="M 1650 128 L 1984 128 M 1984 128 A 8 8 0 0 1 1992 136 L 1992 840 M 1992 840 A 8 8 0 0 1 1984 848 L 1832 848" fill="none" stroke="#000000" stroke-miterlimit="10"/></g><g transform="translate(-438,-61) scale(1,1)"><path d="M 1842.162674857624 843.790482243984 L 1832 848 L 1842.162674857624 852.209517756016" fill="#000000" stroke="none"/></g><g transform="translate(-438,-61) scale(1,1)"><path d="M 1842.162674857624 843.790482243984 L 1832 848 L 1842.162674857624 852.209517756016 L 1842.162674857624 843.790482243984" fill="none" stroke="#000000" stroke-miterlimit="10"/></g><g transform="translate(-438,-61) scale(1,1)"><g><path fill="none" stroke="none"/><text fill="#000000" font-family="Arial" font-size="20px" font-style="normal" font-weight="normal" stroke="none" text-decoration="none" x="1670.5" y="126.5">Request Reports Page</text></g></g><g transform="translate(-438,-61) scale(1,1)"><path d="M 1650 196 L 1920 196 M 1920 196 A 8 8 0 0 1 1928 204 L 1928 616 M 1928 616 A 8 8 0 0 1 1920 624 L 1832 624" fill="none" stroke="#000000" stroke-miterlimit="10"/></g><g transform="translate(-438,-61) scale(1,1)"><path d="M 1842.162674857624 619.790482243984 L 1832 624 L 1842.162674857624 628.209517756016" fill="#000000" stroke="none"/></g><g transform="translate(-438,-61) scale(1,1)"><path d="M 1842.162674857624 619.790482243984 L 1832 624 L 1842.162674857624 628.209517756016 L 1842.162674857624 619.790482243984" fill="none" stroke="#000000" stroke-miterlimit="10"/></g><g transform="translate(-438,-61) scale(1,1)"><g><path fill="none" stroke="none"/><text fill="#000000" font-family="Arial" font-size="20px" font-style="normal" font-weight="normal" stroke="none" text-decoration="none" x="1655.5" y="191">Request Manage Candidates Page</text></g></g><g transform="translate(-438,-61) scale(1,1)"><path d="M 1650 272 L 1864 272 M 1864 272 A 8 8 0 0 1 1872 280 L 1872 392 M 1872 392 A 8 8 0 0 1 1864 400 L 1832 400" fill="none" stroke="#000000" stroke-miterlimit="10"/></g><g transform="translate(-438,-61) scale(1,1)"><path d="M 1842.162674857624 395.790482243984 L 1832 400 L 1842.162674857624 404.209517756016" fill="#000000" stroke="none"/></g><g transform="translate(-438,-61) scale(1,1)"><path d="M 1842.162674857624 395.790482243984 L 1832 400 L 1842.162674857624 404.209517756016 L 1842.162674857624 395.790482243984" fill="none" stroke="#000000" stroke-miterlimit="10"/></g><g transform="translate(-438,-61) scale(1,1)"><g><path fill="none" stroke="none"/><text fill="#000000" font-family="Arial" font-size="20px" font-style="normal" font-weight="normal" stroke="none" text-decoration="none" x="1654.5" y="266">Request Manage Jobs Page</text></g></g><g transform="translate(-438,-61) scale(1,1)"><path d="M 1704 480 L 1336 480" fill="none" stroke="#000000" stroke-miterlimit="10"/></g><g transform="translate(-438,-61) scale(1,1)"><path d="M 1346.162674857624 475.790482243984 L 1336 480 L 1346.162674857624 484.209517756016" fill="#000000" stroke="none"/></g><g transform="translate(-438,-61) scale(1,1)"><path d="M 1346.162674857624 475.790482243984 L 1336 480 L 1346.162674857624 484.209517756016 L 1346.162674857624 475.790482243984" fill="none" stroke="#000000" stroke-miterlimit="10"/></g><g transform="translate(-438,-61) scale(1,1)"><g><path fill="none" stroke="none"/><text fill="#000000" font-family="Arial" font-size="20px" font-style="normal" font-weight="normal" stroke="none" text-decoration="none" x="1370.5" y="476">Get candidate for a certain job</text></g></g><g transform="translate(-438,-61) scale(1,1)"><path d="M 1704 704 L 1336 704" fill="none" stroke="#000000" stroke-miterlimit="10"/></g><g transform="translate(-438,-61) scale(1,1)"><path d="M 1346.162674857624 699.790482243984 L 1336 704 L 1346.162674857624 708.209517756016" fill="#000000" stroke="none"/></g><g transform="translate(-438,-61) scale(1,1)"><path d="M 1346.162674857624 699.790482243984 L 1336 704 L 1346.162674857624 708.209517756016 L 1346.162674857624 699.790482243984" fill="none" stroke="#000000" stroke-miterlimit="10"/></g><g transform="translate(-438,-61) scale(1,1)"><g><path fill="none" stroke="none"/><text fill="#000000" font-family="Arial" font-size="20px" font-style="normal" font-weight="normal" stroke="none" text-decoration="none" x="1429.5" y="701">Get list of candidates</text></g></g><g transform="translate(-438,-61) scale(1,1)"><path d="M 1704 920 L 1336 920" fill="none" stroke="#000000" stroke-miterlimit="10"/></g><g transform="translate(-438,-61) scale(1,1)"><path d="M 1346.162674857624 915.790482243984 L 1336 920 L 1346.162674857624 924.209517756016" fill="#000000" stroke="none"/></g><g transform="translate(-438,-61) scale(1,1)"><path d="M 1346.162674857624 915.790482243984 L 1336 920 L 1346.162674857624 924.209517756016 L 1346.162674857624 915.790482243984" fill="none" stroke="#000000" stroke-miterlimit="10"/></g><g transform="translate(-438,-61) scale(1,1)"><g><path fill="none" stroke="none"/><text fill="#000000" font-family="Arial" font-size="20px" font-style="normal" font-weight="normal" stroke="none" text-decoration="none" x="1441.5" y="916">Get list of reports</text></g></g><g transform="translate(-438,-61) scale(1,1)"><path d="M 1764 1192 L 1764 1264" fill="none" stroke="#000000" stroke-miterlimit="10"/></g><g transform="translate(-438,-61) scale(1,1)"><path d="M 1759.7904822439841 1253.837325142376 L 1764 1264 L 1768.2095177560159 1253.837325142376" fill="#000000" stroke="none"/></g><g transform="translate(-438,-61) scale(1,1)"><path d="M 1759.7904822439841 1253.837325142376 L 1764 1264 L 1768.2095177560159 1253.837325142376 L 1759.7904822439841 1253.837325142376" fill="none" stroke="#000000" stroke-miterlimit="10"/></g><g transform="translate(-438,-61) scale(1,1)"><g><path fill="none" stroke="none"/><text fill="#000000" font-family="Arial" font-size="13px" font-style="normal" font-weight="normal" stroke="none" text-decoration="none" x="1765.5" y="1235">Click on a job</text></g></g><g transform="translate(-438,-61) scale(1,1)"><rect fill="#ffe69b" height="64" stroke="none" width="72" x="448" y="672"/></g><g transform="translate(-438,-61) scale(1,1)"><path d="M 448 672 L 520 672 L 520 736 L 448 736 L 448 672 Z Z" fill="none" stroke="#000000" stroke-miterlimit="10"/></g><g transform="translate(-438,-61) scale(1,1)"><g><path fill="none" stroke="none"/><text fill="#000000" font-family="Arial" font-size="13px" font-style="normal" font-weight="normal" stroke="none" text-decoration="none" x="470.2763671875" y="693">User</text></g></g><g transform="translate(-438,-61) scale(1,1)"><path d="M 480 672 L 480 360 M 480 360 A 8 8 0 0 1 488 352 L 696 352" fill="none" stroke="#000000" stroke-miterlimit="10"/></g><g transform="translate(-438,-61) scale(1,1)"><path d="M 685.8373251423759 356.209517756016 L 696 352 L 685.8373251423758 347.790482243984" fill="#000000" stroke="none"/></g><g transform="translate(-438,-61) scale(1,1)"><path d="M 685.8373251423759 356.209517756016 L 696 352 L 685.8373251423758 347.790482243984 L 685.8373251423759 356.209517756016" fill="none" stroke="#000000" stroke-miterlimit="10"/></g><g transform="translate(-438,-61) scale(1,1)"><path d="M 480 736 L 480 1146 M 480 1146 A 8 8 0 0 0 488 1154 L 616 1154" fill="none" stroke="#000000" stroke-miterlimit="10"/></g><g transform="translate(-438,-61) scale(1,1)"><path d="M 605.8373251423759 1158.2095177560159 L 616 1154 L 605.8373251423758 1149.7904822439841" fill="#000000" stroke="none"/></g><g transform="translate(-438,-61) scale(1,1)"><path d="M 605.8373251423759 1158.2095177560159 L 616 1154 L 605.8373251423758 1149.7904822439841 L 605.8373251423759 1158.2095177560159" fill="none" stroke="#000000" stroke-miterlimit="10"/></g></g></svg>