<?xml version="1.0" encoding="UTF-8" standalone="no"?><svg xmlns="http://www.w3.org/2000/svg" xmlns:xlink="http://www.w3.org/1999/xlink" height="965" version="1.1" width="1380"><defs/><g><g transform="translate(-22,-61) scale(1,1)"><rect fill="#8c4242" height="176" stroke="none" width="328" x="1064" y="488"/></g><g transform="translate(-22,-61) scale(1,1)"><path d="M 1064 488 L 1392 488 L 1392 664 L 1064 664 L 1064 488 Z Z" fill="none" stroke="#000000" stroke-miterlimit="10"/></g><g transform="translate(-22,-61) scale(1,1)"><g><path fill="none" stroke="none"/><text fill="#ffffff" font-family="Arial" font-size="13px" font-style="normal" font-weight="normal" stroke="none" text-decoration="none" x="1202.7109375" y="509">Firebase</text></g></g><g transform="translate(-22,-61) scale(1,1)"><rect fill="#ffe69b" height="45" stroke="none" width="78.26806640625" x="32" y="816"/></g><g transform="translate(-22,-61) scale(1,1)"><path d="M 32 816 L 110.26806640625 816 L 110.26806640625 861 L 32 861 L 32 816 Z Z" fill="none" stroke="#000000" stroke-miterlimit="10"/></g><g transform="translate(-22,-61) scale(1,1)"><g><path fill="none" stroke="none"/><text fill="#000000" font-family="Arial" font-size="13px" font-style="normal" font-weight="normal" stroke="none" text-decoration="none" x="53.43994140625" y="837">User -</text><text fill="#000000" font-family="Arial" font-size="13px" font-style="normal" font-weight="normal" stroke="none" text-decoration="none" x="41.5" y="850">Candidate</text></g></g><g transform="translate(-22,-61) scale(1,1)"><rect fill="#ffe69b" height="45" stroke="none" width="73.18994140625" x="32" y="120"/></g><g transform="translate(-22,-61) scale(1,1)"><path d="M 32 120 L 105.18994140625 120 L 105.18994140625 165 L 32 165 L 32 120 Z Z" fill="none" stroke="#000000" stroke-miterlimit="10"/></g><g transform="translate(-22,-61) scale(1,1)"><g><path fill="none" stroke="none"/><text fill="#000000" font-family="Arial" font-size="13px" font-style="normal" font-weight="normal" stroke="none" text-decoration="none" x="50.90087890625" y="141">User -</text><text fill="#000000" font-family="Arial" font-size="13px" font-style="normal" font-weight="normal" stroke="none" text-decoration="none" x="42.226806640625" y="154">Recruiter</text></g></g><g transform="translate(-22,-61) scale(1,1)"><rect fill="#adff5c" height="208" stroke="none" width="121.18994140625" x="784" y="808"/></g><g transform="translate(-22,-61) scale(1,1)"><path d="M 784 808 L 905.18994140625 808 L 905.18994140625 1016 L 784 1016 L 784 808 Z Z" fill="none" stroke="#000000" stroke-miterlimit="10"/></g><g transform="translate(-22,-61) scale(1,1)"><g><path fill="none" stroke="none"/><text fill="#000000" font-family="Arial" font-size="13px" font-style="normal" font-weight="normal" stroke="none" text-decoration="none" x="803.411376953125" y="829">Drushim Page</text></g></g><g transform="translate(-22,-61) scale(1,1)"><path d="M 868 808 L 868 664 M 868 664 A 8 8 0 0 1 876 656 L 1064 656" fill="none" stroke="#000000" stroke-miterlimit="10"/></g><g transform="translate(-22,-61) scale(1,1)"><path d="M 1053.837325142376 660.209517756016 L 1064 656 L 1053.837325142376 651.790482243984" fill="#000000" stroke="none"/></g><g transform="translate(-22,-61) scale(1,1)"><path d="M 1053.837325142376 660.209517756016 L 1064 656 L 1053.837325142376 651.790482243984 L 1053.837325142376 660.209517756016" fill="none" stroke="#000000" stroke-miterlimit="10"/></g><g transform="translate(-22,-61) scale(1,1)"><g><path fill="none" stroke="none"/><text fill="#000000" font-family="Arial" font-size="13px" font-style="normal" font-weight="normal" stroke="none" text-decoration="none" x="879.5" y="674">Get List Of Jobs</text></g></g><g transform="translate(-22,-61) scale(1,1)"><path d="M 1064 632 L 744 632 M 744 632 A 8 8 0 0 0 736 640 L 736 976 M 736 976 A 8 8 0 0 0 744 984 L 784 984" fill="none" stroke="#000000" stroke-miterlimit="10"/></g><g transform="translate(-22,-61) scale(1,1)"><path d="M 773.8373251423759 988.209517756016 L 784 984 L 773.8373251423758 979.790482243984" fill="#000000" stroke="none"/></g><g transform="translate(-22,-61) scale(1,1)"><path d="M 773.8373251423759 988.209517756016 L 784 984 L 773.8373251423758 979.790482243984 L 773.8373251423759 988.209517756016" fill="none" stroke="#000000" stroke-miterlimit="10"/></g><g transform="translate(-22,-61) scale(1,1)"><g><path fill="none" stroke="none"/><text fill="#000000" font-family="Arial" font-size="13px" font-style="normal" font-weight="normal" stroke="none" text-decoration="none" x="886.5" y="627">List Of Jobs</text></g></g><g transform="translate(-22,-61) scale(1,1)"><path d="M 844 808 L 844 768 L 800 768 L 800 808" fill="none" stroke="#000000" stroke-miterlimit="10"/></g><g transform="translate(-22,-61) scale(1,1)"><path d="M 795.790482243984 797.8373251423759 L 800 808 L 804.209517756016 797.8373251423759" fill="#000000" stroke="none"/></g><g transform="translate(-22,-61) scale(1,1)"><path d="M 795.790482243984 797.8373251423759 L 800 808 L 804.209517756016 797.8373251423759 L 795.790482243984 797.8373251423759" fill="none" stroke="#000000" stroke-miterlimit="10"/></g><g transform="translate(-22,-61) scale(1,1)"><g><path fill="none" stroke="none"/><text fill="#000000" font-family="Arial" font-size="13px" font-style="normal" font-weight="normal" stroke="none" text-decoration="none" x="780.5" y="762">Search / Filter</text></g></g><g transform="translate(-22,-61) scale(1,1)"><rect fill="#adff5c" height="112" stroke="none" width="88" x="1120" y="904"/></g><g transform="translate(-22,-61) scale(1,1)"><path d="M 1120 904 L 1208 904 L 1208 1016 L 1120 1016 L 1120 904 Z Z" fill="none" stroke="#000000" stroke-miterlimit="10"/></g><g transform="translate(-22,-61) scale(1,1)"><g><path fill="none" stroke="none"/><text fill="#000000" font-family="Arial" font-size="13px" font-style="normal" font-weight="normal" stroke="none" text-decoration="none" x="1131.65234375" y="925">Job page +</text><text fill="#000000" font-family="Arial" font-size="13px" font-style="normal" font-weight="normal" stroke="none" text-decoration="none" x="1148.4609375" y="938">apply</text></g></g><g transform="translate(-22,-61) scale(1,1)"><path d="M 71 816 L 71 512 M 71 512 A 8 8 0 0 1 79 504 L 1064 504" fill="none" stroke="#2b2bff" stroke-miterlimit="10"/></g><g transform="translate(-22,-61) scale(1,1)"><path d="M 1053.837325142376 508.209517756016 L 1064 504 L 1053.837325142376 499.790482243984" fill="#2b2bff" stroke="none"/></g><g transform="translate(-22,-61) scale(1,1)"><path d="M 1053.837325142376 508.209517756016 L 1064 504 L 1053.837325142376 499.790482243984 L 1053.837325142376 508.209517756016" fill="none" stroke="#2b2bff" stroke-miterlimit="10"/></g><g transform="translate(-22,-61) scale(1,1)"><g><path fill="none" stroke="none"/><text fill="#000000" font-family="Arial" font-size="13px" font-style="normal" font-weight="normal" stroke="none" text-decoration="none" x="110.5" y="499">Clicks a link to a specific job</text></g></g><g transform="translate(-22,-61) scale(1,1)"><path d="M 1168 664 L 1168 904" fill="none" stroke="#2b2bff" stroke-miterlimit="10"/></g><g transform="translate(-22,-61) scale(1,1)"><path d="M 1163.7904822439841 893.8373251423759 L 1168 904 L 1172.2095177560159 893.8373251423759" fill="#2b2bff" stroke="none"/></g><g transform="translate(-22,-61) scale(1,1)"><path d="M 1163.7904822439841 893.8373251423759 L 1168 904 L 1172.2095177560159 893.8373251423759 L 1163.7904822439841 893.8373251423759" fill="none" stroke="#2b2bff" stroke-miterlimit="10"/></g><g transform="translate(-22,-61) scale(1,1)"><g><path fill="none" stroke="none"/><text fill="#000000" font-family="Arial" font-size="13px" font-style="normal" font-weight="normal" stroke="none" text-decoration="none" x="1173.5" y="787">Job Page</text></g></g><g transform="translate(-22,-61) scale(1,1)"><path d="M 110 838 L 112 838 M 112 838 A 8 8 0 0 0 120 830 L 120 536 M 120 536 A 8 8 0 0 1 128 528 L 1064 528" fill="none" stroke="#1f7e6e" stroke-miterlimit="10"/></g><g transform="translate(-22,-61) scale(1,1)"><path d="M 1053.837325142376 532.209517756016 L 1064 528 L 1053.837325142376 523.790482243984" fill="#1f7e6e" stroke="none"/></g><g transform="translate(-22,-61) scale(1,1)"><path d="M 1053.837325142376 532.209517756016 L 1064 528 L 1053.837325142376 523.790482243984 L 1053.837325142376 532.209517756016" fill="none" stroke="#1f7e6e" stroke-miterlimit="10"/></g><g transform="translate(-22,-61) scale(1,1)"><g><path fill="none" stroke="none"/><text fill="#000000" font-family="Arial" font-size="13px" font-style="normal" font-weight="normal" stroke="none" text-decoration="none" x="134.5" y="522">Request gvanim.org.il/he/jobs</text></g></g><g transform="translate(-22,-61) scale(1,1)"><path d="M 1084 664 L 1084 704 M 1084 704 A 8 8 0 0 1 1076 712 L 913 712 M 913 712 A 8 8 0 0 0 905 720 L 905 808" fill="none" stroke="#1f7e6e" stroke-miterlimit="10"/></g><g transform="translate(-22,-61) scale(1,1)"><path d="M 900.790482243984 797.8373251423759 L 905 808 L 909.209517756016 797.8373251423759" fill="#1f7e6e" stroke="none"/></g><g transform="translate(-22,-61) scale(1,1)"><path d="M 900.790482243984 797.8373251423759 L 905 808 L 909.209517756016 797.8373251423759 L 900.790482243984 797.8373251423759" fill="none" stroke="#1f7e6e" stroke-miterlimit="10"/></g><g transform="translate(-22,-61) scale(1,1)"><g><path fill="none" stroke="none"/><text fill="#000000" font-family="Arial" font-size="13px" font-style="normal" font-weight="normal" stroke="none" text-decoration="none" x="900.5" y="706">Drushim Page</text></g></g><g transform="translate(-22,-61) scale(1,1)"><path d="M 1208 960 L 1360 960 M 1360 960 A 8 8 0 0 0 1368 952 L 1368 664" fill="none" stroke="#ae350d" stroke-miterlimit="10"/></g><g transform="translate(-22,-61) scale(1,1)"><path d="M 1372.2095177560159 674.1626748576241 L 1368 664 L 1363.7904822439841 674.1626748576241" fill="#ae350d" stroke="none"/></g><g transform="translate(-22,-61) scale(1,1)"><path d="M 1372.2095177560159 674.1626748576241 L 1368 664 L 1363.7904822439841 674.1626748576241 L 1372.2095177560159 674.1626748576241" fill="none" stroke="#ae350d" stroke-miterlimit="10"/></g><g transform="translate(-22,-61) scale(1,1)"><g><path fill="none" stroke="none"/><text fill="#000000" font-family="Arial" font-size="13px" font-style="normal" font-weight="normal" stroke="none" text-decoration="none" x="1205.5" y="955">Add Candidacy Information</text></g></g><g transform="translate(-22,-61) scale(1,1)"><path d="M 1064 552 L 160 552 M 160 552 A 8 8 0 0 0 152 560 L 152 840 M 152 840 A 8 8 0 0 1 144 848 L 110 848" fill="none" stroke="#ae350d" stroke-miterlimit="10"/></g><g transform="translate(-22,-61) scale(1,1)"><path d="M 120.16267485762415 843.790482243984 L 110 848 L 120.16267485762415 852.209517756016" fill="#ae350d" stroke="none"/></g><g transform="translate(-22,-61) scale(1,1)"><path d="M 120.16267485762415 843.790482243984 L 110 848 L 120.16267485762415 852.209517756016 L 120.16267485762415 843.790482243984" fill="none" stroke="#ae350d" stroke-miterlimit="10"/></g><g transform="translate(-22,-61) scale(1,1)"><g><path fill="none" stroke="none"/><text fill="#000000" font-family="Arial" font-size="13px" font-style="normal" font-weight="normal" stroke="none" text-decoration="none" x="607.5" y="571">Send email that candidacy has been updated in our system</text></g></g><g transform="translate(-22,-61) scale(1,1)"><rect fill="#adff5c" height="192" stroke="none" width="128" x="960" y="176"/></g><g transform="translate(-22,-61) scale(1,1)"><path d="M 960 176 L 1088 176 L 1088 368 L 960 368 L 960 176 Z Z" fill="none" stroke="#000000" stroke-miterlimit="10"/></g><g transform="translate(-22,-61) scale(1,1)"><g><path fill="none" stroke="none"/><text fill="#000000" font-family="Arial" font-size="13px" font-style="normal" font-weight="normal" stroke="none" text-decoration="none" x="980.6455078125" y="197">Recruiter Page</text></g></g><g transform="translate(-22,-61) scale(1,1)"><path d="M 105 120 L 105 96 M 105 96 A 8 8 0 0 1 113 88 L 1336 88 M 1336 88 A 8 8 0 0 1 1344 96 L 1344 488" fill="none" stroke="#000000" stroke-miterlimit="10"/></g><g transform="translate(-22,-61) scale(1,1)"><path d="M 1339.7904822439841 477.83732514237585 L 1344 488 L 1348.2095177560159 477.83732514237585" fill="#000000" stroke="none"/></g><g transform="translate(-22,-61) scale(1,1)"><path d="M 1339.7904822439841 477.83732514237585 L 1344 488 L 1348.2095177560159 477.83732514237585 L 1339.7904822439841 477.83732514237585" fill="none" stroke="#000000" stroke-miterlimit="10"/></g><g transform="translate(-22,-61) scale(1,1)"><g><path fill="none" stroke="none"/><text fill="#000000" font-family="Arial" font-size="13px" font-style="normal" font-weight="normal" stroke="none" text-decoration="none" x="200.095947265625" y="82">Login</text></g></g><g transform="translate(-22,-61) scale(1,1)"><path d="M 1160 488 L 1160 264 M 1160 264 A 8 8 0 0 0 1152 256 L 1088 256" fill="none" stroke="#000000" stroke-miterlimit="10"/></g><g transform="translate(-22,-61) scale(1,1)"><path d="M 1098.162674857624 251.790482243984 L 1088 256 L 1098.162674857624 260.209517756016" fill="#000000" stroke="none"/></g><g transform="translate(-22,-61) scale(1,1)"><path d="M 1098.162674857624 251.790482243984 L 1088 256 L 1098.162674857624 260.209517756016 L 1098.162674857624 251.790482243984" fill="none" stroke="#000000" stroke-miterlimit="10"/></g><g transform="translate(-22,-61) scale(1,1)"><g><path fill="none" stroke="none"/><text fill="#000000" font-family="Arial" font-size="13px" font-style="normal" font-weight="normal" stroke="none" text-decoration="none" x="1103.5" y="250">Recruiter's Page</text></g></g><g transform="translate(-22,-61) scale(1,1)"><rect fill="#adff5c" height="96" stroke="none" width="73.18994140625" x="808" y="264"/></g><g transform="translate(-22,-61) scale(1,1)"><path d="M 808 264 L 881.18994140625 264 L 881.18994140625 360 L 808 360 L 808 264 Z Z" fill="none" stroke="#000000" stroke-miterlimit="10"/></g><g transform="translate(-22,-61) scale(1,1)"><g><path fill="none" stroke="none"/><text fill="#000000" font-family="Arial" font-size="13px" font-style="normal" font-weight="normal" stroke="none" text-decoration="none" x="818.588623046875" y="285">Statistics</text><text fill="#000000" font-family="Arial" font-size="13px" font-style="normal" font-weight="normal" stroke="none" text-decoration="none" x="829.41455078125" y="298">Page</text></g></g><g transform="translate(-22,-61) scale(1,1)"><path d="M 905 856 L 1088 856 M 1088 856 A 8 8 0 0 0 1096 848 L 1096 664" fill="none" stroke="#2b2bff" stroke-miterlimit="10"/></g><g transform="translate(-22,-61) scale(1,1)"><path d="M 1100.2095177560159 674.1626748576241 L 1096 664 L 1091.7904822439841 674.1626748576241" fill="#2b2bff" stroke="none"/></g><g transform="translate(-22,-61) scale(1,1)"><path d="M 1100.2095177560159 674.1626748576241 L 1096 664 L 1091.7904822439841 674.1626748576241 L 1100.2095177560159 674.1626748576241" fill="none" stroke="#2b2bff" stroke-miterlimit="10"/></g><g transform="translate(-22,-61) scale(1,1)"><g><path fill="none" stroke="none"/><text fill="#000000" font-family="Arial" font-size="13px" font-style="normal" font-weight="normal" stroke="none" text-decoration="none" x="973.5" y="851">Request Job Page</text></g></g><g transform="translate(-22,-61) scale(1,1)"><path d="M 1064 488 L 865 488 M 865 488 A 8 8 0 0 1 857 480 L 857 360" fill="none" stroke="#000000" stroke-miterlimit="10"/></g><g transform="translate(-22,-61) scale(1,1)"><path d="M 861.209517756016 370.16267485762415 L 857 360 L 852.790482243984 370.16267485762415" fill="#000000" stroke="none"/></g><g transform="translate(-22,-61) scale(1,1)"><path d="M 861.209517756016 370.16267485762415 L 857 360 L 852.790482243984 370.16267485762415 L 861.209517756016 370.16267485762415" fill="none" stroke="#000000" stroke-miterlimit="10"/></g><g transform="translate(-22,-61) scale(1,1)"><g><path fill="none" stroke="none"/><text fill="#000000" font-family="Arial" font-size="13px" font-style="normal" font-weight="normal" stroke="none" text-decoration="none" x="870.5" y="482">Statistics Page</text></g></g><g transform="translate(-22,-61) scale(1,1)"><path d="M 1088 272 L 1093 272 M 1093 272 A 8 8 0 0 1 1101 280 L 1101 488" fill="none" stroke="#000000" stroke-miterlimit="10"/></g><g transform="translate(-22,-61) scale(1,1)"><path d="M 1096.7904822439841 477.83732514237585 L 1101 488 L 1105.2095177560159 477.83732514237585" fill="#000000" stroke="none"/></g><g transform="translate(-22,-61) scale(1,1)"><path d="M 1096.7904822439841 477.83732514237585 L 1101 488 L 1105.2095177560159 477.83732514237585 L 1096.7904822439841 477.83732514237585" fill="none" stroke="#000000" stroke-miterlimit="10"/></g><g transform="translate(-22,-61) scale(1,1)"><g><path fill="none" stroke="none"/><text fill="#000000" font-family="Arial" font-size="13px" font-style="normal" font-weight="normal" stroke="none" text-decoration="none" x="950.5" y="411">Request Statistics Page</text></g></g><g transform="translate(-22,-61) scale(1,1)"><path d="M 984 176 L 984 144 L 1032 144 L 1032 176" fill="none" stroke="#000000" stroke-miterlimit="10"/></g><g transform="translate(-22,-61) scale(1,1)"><path d="M 1027.7904822439841 165.83732514237585 L 1032 176 L 1036.2095177560159 165.83732514237585" fill="#000000" stroke="none"/></g><g transform="translate(-22,-61) scale(1,1)"><path d="M 1027.7904822439841 165.83732514237585 L 1032 176 L 1036.2095177560159 165.83732514237585 L 1027.7904822439841 165.83732514237585" fill="none" stroke="#000000" stroke-miterlimit="10"/></g><g transform="translate(-22,-61) scale(1,1)"><g><path fill="none" stroke="none"/><text fill="#000000" font-family="Arial" font-size="13px" font-style="normal" font-weight="normal" stroke="none" text-decoration="none" x="932.5" y="138">Manage Jobs / Candidate</text></g></g></g></svg>