<svg version="1.1" xmlns="http://www.w3.org/2000/svg" xmlns:xlink="http://www.w3.org/1999/xlink" width="880.0224609375" height="518"><defs/><g><text fill="#eeeeee" stroke="none" font-family="Arial" font-size="24px" font-style="normal" font-weight="normal" text-decoration="none" x="0" y="0">UNREGISTERED</text><text fill="#eeeeee" stroke="none" font-family="Arial" font-size="24px" font-style="normal" font-weight="normal" text-decoration="none" x="0" y="30">UNREGISTERED</text><text fill="#eeeeee" stroke="none" font-family="Arial" font-size="24px" font-style="normal" font-weight="normal" text-decoration="none" x="0" y="60">UNREGISTERED</text><text fill="#eeeeee" stroke="none" font-family="Arial" font-size="24px" font-style="normal" font-weight="normal" text-decoration="none" x="0" y="90">UNREGISTERED</text><text fill="#eeeeee" stroke="none" font-family="Arial" font-size="24px" font-style="normal" font-weight="normal" text-decoration="none" x="0" y="120">UNREGISTERED</text><text fill="#eeeeee" stroke="none" font-family="Arial" font-size="24px" font-style="normal" font-weight="normal" text-decoration="none" x="0" y="150">UNREGISTERED</text><text fill="#eeeeee" stroke="none" font-family="Arial" font-size="24px" font-style="normal" font-weight="normal" text-decoration="none" x="0" y="180">UNREGISTERED</text><text fill="#eeeeee" stroke="none" font-family="Arial" font-size="24px" font-style="normal" font-weight="normal" text-decoration="none" x="0" y="210">UNREGISTERED</text><text fill="#eeeeee" stroke="none" font-family="Arial" font-size="24px" font-style="normal" font-weight="normal" text-decoration="none" x="0" y="240">UNREGISTERED</text><text fill="#eeeeee" stroke="none" font-family="Arial" font-size="24px" font-style="normal" font-weight="normal" text-decoration="none" x="0" y="270">UNREGISTERED</text><text fill="#eeeeee" stroke="none" font-family="Arial" font-size="24px" font-style="normal" font-weight="normal" text-decoration="none" x="0" y="300">UNREGISTERED</text><text fill="#eeeeee" stroke="none" font-family="Arial" font-size="24px" font-style="normal" font-weight="normal" text-decoration="none" x="0" y="330">UNREGISTERED</text><text fill="#eeeeee" stroke="none" font-family="Arial" font-size="24px" font-style="normal" font-weight="normal" text-decoration="none" x="0" y="360">UNREGISTERED</text><text fill="#eeeeee" stroke="none" font-family="Arial" font-size="24px" font-style="normal" font-weight="normal" text-decoration="none" x="0" y="390">UNREGISTERED</text><text fill="#eeeeee" stroke="none" font-family="Arial" font-size="24px" font-style="normal" font-weight="normal" text-decoration="none" x="0" y="420">UNREGISTERED</text><text fill="#eeeeee" stroke="none" font-family="Arial" font-size="24px" font-style="normal" font-weight="normal" text-decoration="none" x="0" y="450">UNREGISTERED</text><text fill="#eeeeee" stroke="none" font-family="Arial" font-size="24px" font-style="normal" font-weight="normal" text-decoration="none" x="0" y="480">UNREGISTERED</text><text fill="#eeeeee" stroke="none" font-family="Arial" font-size="24px" font-style="normal" font-weight="normal" text-decoration="none" x="0" y="510">UNREGISTERED</text><text fill="#eeeeee" stroke="none" font-family="Arial" font-size="24px" font-style="normal" font-weight="normal" text-decoration="none" x="200" y="0">UNREGISTERED</text><text fill="#eeeeee" stroke="none" font-family="Arial" font-size="24px" font-style="normal" font-weight="normal" text-decoration="none" x="200" y="30">UNREGISTERED</text><text fill="#eeeeee" stroke="none" font-family="Arial" font-size="24px" font-style="normal" font-weight="normal" text-decoration="none" x="200" y="60">UNREGISTERED</text><text fill="#eeeeee" stroke="none" font-family="Arial" font-size="24px" font-style="normal" font-weight="normal" text-decoration="none" x="200" y="90">UNREGISTERED</text><text fill="#eeeeee" stroke="none" font-family="Arial" font-size="24px" font-style="normal" font-weight="normal" text-decoration="none" x="200" y="120">UNREGISTERED</text><text fill="#eeeeee" stroke="none" font-family="Arial" font-size="24px" font-style="normal" font-weight="normal" text-decoration="none" x="200" y="150">UNREGISTERED</text><text fill="#eeeeee" stroke="none" font-family="Arial" font-size="24px" font-style="normal" font-weight="normal" text-decoration="none" x="200" y="180">UNREGISTERED</text><text fill="#eeeeee" stroke="none" font-family="Arial" font-size="24px" font-style="normal" font-weight="normal" text-decoration="none" x="200" y="210">UNREGISTERED</text><text fill="#eeeeee" stroke="none" font-family="Arial" font-size="24px" font-style="normal" font-weight="normal" text-decoration="none" x="200" y="240">UNREGISTERED</text><text fill="#eeeeee" stroke="none" font-family="Arial" font-size="24px" font-style="normal" font-weight="normal" text-decoration="none" x="200" y="270">UNREGISTERED</text><text fill="#eeeeee" stroke="none" font-family="Arial" font-size="24px" font-style="normal" font-weight="normal" text-decoration="none" x="200" y="300">UNREGISTERED</text><text fill="#eeeeee" stroke="none" font-family="Arial" font-size="24px" font-style="normal" font-weight="normal" text-decoration="none" x="200" y="330">UNREGISTERED</text><text fill="#eeeeee" stroke="none" font-family="Arial" font-size="24px" font-style="normal" font-weight="normal" text-decoration="none" x="200" y="360">UNREGISTERED</text><text fill="#eeeeee" stroke="none" font-family="Arial" font-size="24px" font-style="normal" font-weight="normal" text-decoration="none" x="200" y="390">UNREGISTERED</text><text fill="#eeeeee" stroke="none" font-family="Arial" font-size="24px" font-style="normal" font-weight="normal" text-decoration="none" x="200" y="420">UNREGISTERED</text><text fill="#eeeeee" stroke="none" font-family="Arial" font-size="24px" font-style="normal" font-weight="normal" text-decoration="none" x="200" y="450">UNREGISTERED</text><text fill="#eeeeee" stroke="none" font-family="Arial" font-size="24px" font-style="normal" font-weight="normal" text-decoration="none" x="200" y="480">UNREGISTERED</text><text fill="#eeeeee" stroke="none" font-family="Arial" font-size="24px" font-style="normal" font-weight="normal" text-decoration="none" x="200" y="510">UNREGISTERED</text><text fill="#eeeeee" stroke="none" font-family="Arial" font-size="24px" font-style="normal" font-weight="normal" text-decoration="none" x="400" y="0">UNREGISTERED</text><text fill="#eeeeee" stroke="none" font-family="Arial" font-size="24px" font-style="normal" font-weight="normal" text-decoration="none" x="400" y="30">UNREGISTERED</text><text fill="#eeeeee" stroke="none" font-family="Arial" font-size="24px" font-style="normal" font-weight="normal" text-decoration="none" x="400" y="60">UNREGISTERED</text><text fill="#eeeeee" stroke="none" font-family="Arial" font-size="24px" font-style="normal" font-weight="normal" text-decoration="none" x="400" y="90">UNREGISTERED</text><text fill="#eeeeee" stroke="none" font-family="Arial" font-size="24px" font-style="normal" font-weight="normal" text-decoration="none" x="400" y="120">UNREGISTERED</text><text fill="#eeeeee" stroke="none" font-family="Arial" font-size="24px" font-style="normal" font-weight="normal" text-decoration="none" x="400" y="150">UNREGISTERED</text><text fill="#eeeeee" stroke="none" font-family="Arial" font-size="24px" font-style="normal" font-weight="normal" text-decoration="none" x="400" y="180">UNREGISTERED</text><text fill="#eeeeee" stroke="none" font-family="Arial" font-size="24px" font-style="normal" font-weight="normal" text-decoration="none" x="400" y="210">UNREGISTERED</text><text fill="#eeeeee" stroke="none" font-family="Arial" font-size="24px" font-style="normal" font-weight="normal" text-decoration="none" x="400" y="240">UNREGISTERED</text><text fill="#eeeeee" stroke="none" font-family="Arial" font-size="24px" font-style="normal" font-weight="normal" text-decoration="none" x="400" y="270">UNREGISTERED</text><text fill="#eeeeee" stroke="none" font-family="Arial" font-size="24px" font-style="normal" font-weight="normal" text-decoration="none" x="400" y="300">UNREGISTERED</text><text fill="#eeeeee" stroke="none" font-family="Arial" font-size="24px" font-style="normal" font-weight="normal" text-decoration="none" x="400" y="330">UNREGISTERED</text><text fill="#eeeeee" stroke="none" font-family="Arial" font-size="24px" font-style="normal" font-weight="normal" text-decoration="none" x="400" y="360">UNREGISTERED</text><text fill="#eeeeee" stroke="none" font-family="Arial" font-size="24px" font-style="normal" font-weight="normal" text-decoration="none" x="400" y="390">UNREGISTERED</text><text fill="#eeeeee" stroke="none" font-family="Arial" font-size="24px" font-style="normal" font-weight="normal" text-decoration="none" x="400" y="420">UNREGISTERED</text><text fill="#eeeeee" stroke="none" font-family="Arial" font-size="24px" font-style="normal" font-weight="normal" text-decoration="none" x="400" y="450">UNREGISTERED</text><text fill="#eeeeee" stroke="none" font-family="Arial" font-size="24px" font-style="normal" font-weight="normal" text-decoration="none" x="400" y="480">UNREGISTERED</text><text fill="#eeeeee" stroke="none" font-family="Arial" font-size="24px" font-style="normal" font-weight="normal" text-decoration="none" x="400" y="510">UNREGISTERED</text><text fill="#eeeeee" stroke="none" font-family="Arial" font-size="24px" font-style="normal" font-weight="normal" text-decoration="none" x="600" y="0">UNREGISTERED</text><text fill="#eeeeee" stroke="none" font-family="Arial" font-size="24px" font-style="normal" font-weight="normal" text-decoration="none" x="600" y="30">UNREGISTERED</text><text fill="#eeeeee" stroke="none" font-family="Arial" font-size="24px" font-style="normal" font-weight="normal" text-decoration="none" x="600" y="60">UNREGISTERED</text><text fill="#eeeeee" stroke="none" font-family="Arial" font-size="24px" font-style="normal" font-weight="normal" text-decoration="none" x="600" y="90">UNREGISTERED</text><text fill="#eeeeee" stroke="none" font-family="Arial" font-size="24px" font-style="normal" font-weight="normal" text-decoration="none" x="600" y="120">UNREGISTERED</text><text fill="#eeeeee" stroke="none" font-family="Arial" font-size="24px" font-style="normal" font-weight="normal" text-decoration="none" x="600" y="150">UNREGISTERED</text><text fill="#eeeeee" stroke="none" font-family="Arial" font-size="24px" font-style="normal" font-weight="normal" text-decoration="none" x="600" y="180">UNREGISTERED</text><text fill="#eeeeee" stroke="none" font-family="Arial" font-size="24px" font-style="normal" font-weight="normal" text-decoration="none" x="600" y="210">UNREGISTERED</text><text fill="#eeeeee" stroke="none" font-family="Arial" font-size="24px" font-style="normal" font-weight="normal" text-decoration="none" x="600" y="240">UNREGISTERED</text><text fill="#eeeeee" stroke="none" font-family="Arial" font-size="24px" font-style="normal" font-weight="normal" text-decoration="none" x="600" y="270">UNREGISTERED</text><text fill="#eeeeee" stroke="none" font-family="Arial" font-size="24px" font-style="normal" font-weight="normal" text-decoration="none" x="600" y="300">UNREGISTERED</text><text fill="#eeeeee" stroke="none" font-family="Arial" font-size="24px" font-style="normal" font-weight="normal" text-decoration="none" x="600" y="330">UNREGISTERED</text><text fill="#eeeeee" stroke="none" font-family="Arial" font-size="24px" font-style="normal" font-weight="normal" text-decoration="none" x="600" y="360">UNREGISTERED</text><text fill="#eeeeee" stroke="none" font-family="Arial" font-size="24px" font-style="normal" font-weight="normal" text-decoration="none" x="600" y="390">UNREGISTERED</text><text fill="#eeeeee" stroke="none" font-family="Arial" font-size="24px" font-style="normal" font-weight="normal" text-decoration="none" x="600" y="420">UNREGISTERED</text><text fill="#eeeeee" stroke="none" font-family="Arial" font-size="24px" font-style="normal" font-weight="normal" text-decoration="none" x="600" y="450">UNREGISTERED</text><text fill="#eeeeee" stroke="none" font-family="Arial" font-size="24px" font-style="normal" font-weight="normal" text-decoration="none" x="600" y="480">UNREGISTERED</text><text fill="#eeeeee" stroke="none" font-family="Arial" font-size="24px" font-style="normal" font-weight="normal" text-decoration="none" x="600" y="510">UNREGISTERED</text><text fill="#eeeeee" stroke="none" font-family="Arial" font-size="24px" font-style="normal" font-weight="normal" text-decoration="none" x="800" y="0">UNREGISTERED</text><text fill="#eeeeee" stroke="none" font-family="Arial" font-size="24px" font-style="normal" font-weight="normal" text-decoration="none" x="800" y="30">UNREGISTERED</text><text fill="#eeeeee" stroke="none" font-family="Arial" font-size="24px" font-style="normal" font-weight="normal" text-decoration="none" x="800" y="60">UNREGISTERED</text><text fill="#eeeeee" stroke="none" font-family="Arial" font-size="24px" font-style="normal" font-weight="normal" text-decoration="none" x="800" y="90">UNREGISTERED</text><text fill="#eeeeee" stroke="none" font-family="Arial" font-size="24px" font-style="normal" font-weight="normal" text-decoration="none" x="800" y="120">UNREGISTERED</text><text fill="#eeeeee" stroke="none" font-family="Arial" font-size="24px" font-style="normal" font-weight="normal" text-decoration="none" x="800" y="150">UNREGISTERED</text><text fill="#eeeeee" stroke="none" font-family="Arial" font-size="24px" font-style="normal" font-weight="normal" text-decoration="none" x="800" y="180">UNREGISTERED</text><text fill="#eeeeee" stroke="none" font-family="Arial" font-size="24px" font-style="normal" font-weight="normal" text-decoration="none" x="800" y="210">UNREGISTERED</text><text fill="#eeeeee" stroke="none" font-family="Arial" font-size="24px" font-style="normal" font-weight="normal" text-decoration="none" x="800" y="240">UNREGISTERED</text><text fill="#eeeeee" stroke="none" font-family="Arial" font-size="24px" font-style="normal" font-weight="normal" text-decoration="none" x="800" y="270">UNREGISTERED</text><text fill="#eeeeee" stroke="none" font-family="Arial" font-size="24px" font-style="normal" font-weight="normal" text-decoration="none" x="800" y="300">UNREGISTERED</text><text fill="#eeeeee" stroke="none" font-family="Arial" font-size="24px" font-style="normal" font-weight="normal" text-decoration="none" x="800" y="330">UNREGISTERED</text><text fill="#eeeeee" stroke="none" font-family="Arial" font-size="24px" font-style="normal" font-weight="normal" text-decoration="none" x="800" y="360">UNREGISTERED</text><text fill="#eeeeee" stroke="none" font-family="Arial" font-size="24px" font-style="normal" font-weight="normal" text-decoration="none" x="800" y="390">UNREGISTERED</text><text fill="#eeeeee" stroke="none" font-family="Arial" font-size="24px" font-style="normal" font-weight="normal" text-decoration="none" x="800" y="420">UNREGISTERED</text><text fill="#eeeeee" stroke="none" font-family="Arial" font-size="24px" font-style="normal" font-weight="normal" text-decoration="none" x="800" y="450">UNREGISTERED</text><text fill="#eeeeee" stroke="none" font-family="Arial" font-size="24px" font-style="normal" font-weight="normal" text-decoration="none" x="800" y="480">UNREGISTERED</text><text fill="#eeeeee" stroke="none" font-family="Arial" font-size="24px" font-style="normal" font-weight="normal" text-decoration="none" x="800" y="510">UNREGISTERED</text><g transform="translate(-70,-30) scale(1,1)"><rect fill="#C0C0C0" stroke="none" x="87" y="303" width="125.6953125" height="107" opacity="0.2"/></g><g transform="translate(-70,-30) scale(1,1)"><rect fill="#ffffff" stroke="none" x="80" y="296" width="125.6953125" height="107"/></g><g transform="translate(-70,-30) scale(1,1)"><path fill="none" stroke="#000000" d="M 80 296 L 205.6953125 296 L 205.6953125 403 L 80 403 L 80 296 Z Z" stroke-miterlimit="10"/></g><g transform="translate(-70,-30) scale(1,1)"><rect fill="#ffffff" stroke="none" x="80" y="296" width="125.6953125" height="107"/></g><g transform="translate(-70,-30) scale(1,1)"><path fill="none" stroke="#000000" d="M 80 296 L 205.6953125 296 L 205.6953125 403 L 80 403 L 80 296 Z Z" stroke-miterlimit="10"/></g><g transform="translate(-70,-30) scale(1,1)"><path fill="none" stroke="#000000" d="M 80 321 L 205.6953125 321" stroke-miterlimit="10"/></g><g transform="translate(-70,-30) scale(1,1)"><g><path fill="none" stroke="none"/><text fill="#000000" stroke="none" font-family="Arial" font-size="13px" font-style="normal" font-weight="bold" text-decoration="none" x="114.30859375" y="314">Recruiter</text><path fill="none" stroke="#000000" d="M 171.38671875 315.5 L 114.30859375 315.5" stroke-miterlimit="10"/></g></g><g transform="translate(-70,-30) scale(1,1)"><g><path fill="none" stroke="none"/><text fill="#000000" stroke="none" font-family="Arial" font-size="13px" font-style="normal" font-weight="normal" text-decoration="none" x="85" y="337">+id: string</text></g></g><g transform="translate(-70,-30) scale(1,1)"><g><path fill="none" stroke="none"/><text fill="#000000" stroke="none" font-family="Arial" font-size="13px" font-style="normal" font-weight="normal" text-decoration="none" x="85" y="352">+user_name: string</text></g></g><g transform="translate(-70,-30) scale(1,1)"><g><path fill="none" stroke="none"/><text fill="#000000" stroke="none" font-family="Arial" font-size="13px" font-style="normal" font-weight="normal" text-decoration="none" x="85" y="367">+first_name: string</text></g></g><g transform="translate(-70,-30) scale(1,1)"><g><path fill="none" stroke="none"/><text fill="#000000" stroke="none" font-family="Arial" font-size="13px" font-style="normal" font-weight="normal" text-decoration="none" x="85" y="382">+last_name: string</text></g></g><g transform="translate(-70,-30) scale(1,1)"><g><path fill="none" stroke="none"/><text fill="#000000" stroke="none" font-family="Arial" font-size="13px" font-style="normal" font-weight="normal" text-decoration="none" x="85" y="397">+sectors: List[string]</text></g></g><g transform="translate(-70,-30) scale(1,1)"><rect fill="#C0C0C0" stroke="none" x="287" y="303" width="199.4296875" height="152" opacity="0.2"/></g><g transform="translate(-70,-30) scale(1,1)"><rect fill="#ffffff" stroke="none" x="280" y="296" width="199.4296875" height="152"/></g><g transform="translate(-70,-30) scale(1,1)"><path fill="none" stroke="#000000" d="M 280 296 L 479.4296875 296 L 479.4296875 448 L 280 448 L 280 296 Z Z" stroke-miterlimit="10"/></g><g transform="translate(-70,-30) scale(1,1)"><rect fill="#ffffff" stroke="none" x="280" y="296" width="199.4296875" height="152"/></g><g transform="translate(-70,-30) scale(1,1)"><path fill="none" stroke="#000000" d="M 280 296 L 479.4296875 296 L 479.4296875 448 L 280 448 L 280 296 Z Z" stroke-miterlimit="10"/></g><g transform="translate(-70,-30) scale(1,1)"><path fill="none" stroke="#000000" d="M 280 321 L 479.4296875 321" stroke-miterlimit="10"/></g><g transform="translate(-70,-30) scale(1,1)"><g><path fill="none" stroke="none"/><text fill="#000000" stroke="none" font-family="Arial" font-size="13px" font-style="normal" font-weight="bold" text-decoration="none" x="348.2939453125" y="314">Candidate</text><path fill="none" stroke="#000000" d="M 411.1357421875 315.5 L 348.2939453125 315.5" stroke-miterlimit="10"/></g></g><g transform="translate(-70,-30) scale(1,1)"><g><path fill="none" stroke="none"/><text fill="#000000" stroke="none" font-family="Arial" font-size="13px" font-style="normal" font-weight="normal" text-decoration="none" x="285" y="337">+id: string</text></g></g><g transform="translate(-70,-30) scale(1,1)"><g><path fill="none" stroke="none"/><text fill="#000000" stroke="none" font-family="Arial" font-size="13px" font-style="normal" font-weight="normal" text-decoration="none" x="285" y="352">+first_name: string</text></g></g><g transform="translate(-70,-30) scale(1,1)"><g><path fill="none" stroke="none"/><text fill="#000000" stroke="none" font-family="Arial" font-size="13px" font-style="normal" font-weight="normal" text-decoration="none" x="285" y="367">+last_name: string</text></g></g><g transform="translate(-70,-30) scale(1,1)"><g><path fill="none" stroke="none"/><text fill="#000000" stroke="none" font-family="Arial" font-size="13px" font-style="normal" font-weight="normal" text-decoration="none" x="285" y="382">+phone: string</text></g></g><g transform="translate(-70,-30) scale(1,1)"><g><path fill="none" stroke="none"/><text fill="#000000" stroke="none" font-family="Arial" font-size="13px" font-style="normal" font-weight="normal" text-decoration="none" x="285" y="397">+email: string</text></g></g><g transform="translate(-70,-30) scale(1,1)"><g><path fill="none" stroke="none"/><text fill="#000000" stroke="none" font-family="Arial" font-size="13px" font-style="normal" font-weight="normal" text-decoration="none" x="285" y="412">+cv: to_determine</text></g></g><g transform="translate(-70,-30) scale(1,1)"><g><path fill="none" stroke="none"/><text fill="#000000" stroke="none" font-family="Arial" font-size="13px" font-style="normal" font-weight="normal" text-decoration="none" x="285" y="427">+jobs: List[Candidate_JobStatus]</text></g></g><g transform="translate(-70,-30) scale(1,1)"><g><path fill="none" stroke="none"/><text fill="#000000" stroke="none" font-family="Arial" font-size="13px" font-style="normal" font-weight="normal" text-decoration="none" x="285" y="442">+general_rating: int</text></g></g><g transform="translate(-70,-30) scale(1,1)"><rect fill="#C0C0C0" stroke="none" x="511" y="303" width="244.23779296875" height="137" opacity="0.2"/></g><g transform="translate(-70,-30) scale(1,1)"><rect fill="#ffffff" stroke="none" x="504" y="296" width="244.23779296875" height="137"/></g><g transform="translate(-70,-30) scale(1,1)"><path fill="none" stroke="#000000" d="M 504 296 L 748.23779296875 296 L 748.23779296875 433 L 504 433 L 504 296 Z Z" stroke-miterlimit="10"/></g><g transform="translate(-70,-30) scale(1,1)"><rect fill="#ffffff" stroke="none" x="504" y="296" width="244.23779296875" height="137"/></g><g transform="translate(-70,-30) scale(1,1)"><path fill="none" stroke="#000000" d="M 504 296 L 748.23779296875 296 L 748.23779296875 433 L 504 433 L 504 296 Z Z" stroke-miterlimit="10"/></g><g transform="translate(-70,-30) scale(1,1)"><path fill="none" stroke="#000000" d="M 504 321 L 748.23779296875 321" stroke-miterlimit="10"/></g><g transform="translate(-70,-30) scale(1,1)"><g><path fill="none" stroke="none"/><text fill="#000000" stroke="none" font-family="Arial" font-size="13px" font-style="normal" font-weight="bold" text-decoration="none" x="556.047119140625" y="314">Candidate_Job_Status</text><path fill="none" stroke="#000000" d="M 696.190673828125 315.5 L 556.047119140625 315.5" stroke-miterlimit="10"/></g></g><g transform="translate(-70,-30) scale(1,1)"><g><path fill="none" stroke="none"/><text fill="#000000" stroke="none" font-family="Arial" font-size="13px" font-style="normal" font-weight="normal" text-decoration="none" x="509" y="337">+job_id: string</text></g></g><g transform="translate(-70,-30) scale(1,1)"><g><path fill="none" stroke="none"/><text fill="#000000" stroke="none" font-family="Arial" font-size="13px" font-style="normal" font-weight="normal" text-decoration="none" x="509" y="352">+candidate_id: string</text></g></g><g transform="translate(-70,-30) scale(1,1)"><g><path fill="none" stroke="none"/><text fill="#000000" stroke="none" font-family="Arial" font-size="13px" font-style="normal" font-weight="normal" text-decoration="none" x="509" y="367">+status: string</text></g></g><g transform="translate(-70,-30) scale(1,1)"><g><path fill="none" stroke="none"/><text fill="#000000" stroke="none" font-family="Arial" font-size="13px" font-style="normal" font-weight="normal" text-decoration="none" x="509" y="382">+matching_rate: int</text></g></g><g transform="translate(-70,-30) scale(1,1)"><g><path fill="none" stroke="none"/><text fill="#000000" stroke="none" font-family="Arial" font-size="13px" font-style="normal" font-weight="normal" text-decoration="none" x="509" y="397">+Apply_date: date</text></g></g><g transform="translate(-70,-30) scale(1,1)"><g><path fill="none" stroke="none"/><text fill="#000000" stroke="none" font-family="Arial" font-size="13px" font-style="normal" font-weight="normal" text-decoration="none" x="509" y="412">+last_update_status: date</text></g></g><g transform="translate(-70,-30) scale(1,1)"><g><path fill="none" stroke="none"/><text fill="#000000" stroke="none" font-family="Arial" font-size="13px" font-style="normal" font-weight="normal" text-decoration="none" x="509" y="427">+interview_summery: string</text></g></g><g transform="translate(-70,-30) scale(1,1)"><rect fill="#C0C0C0" stroke="none" x="783" y="303" width="164.0224609375" height="242" opacity="0.2"/></g><g transform="translate(-70,-30) scale(1,1)"><rect fill="#ffffff" stroke="none" x="776" y="296" width="164.0224609375" height="242"/></g><g transform="translate(-70,-30) scale(1,1)"><path fill="none" stroke="#000000" d="M 776 296 L 940.0224609375 296 L 940.0224609375 538 L 776 538 L 776 296 Z Z" stroke-miterlimit="10"/></g><g transform="translate(-70,-30) scale(1,1)"><rect fill="#ffffff" stroke="none" x="776" y="296" width="164.0224609375" height="242"/></g><g transform="translate(-70,-30) scale(1,1)"><path fill="none" stroke="#000000" d="M 776 296 L 940.0224609375 296 L 940.0224609375 538 L 776 538 L 776 296 Z Z" stroke-miterlimit="10"/></g><g transform="translate(-70,-30) scale(1,1)"><path fill="none" stroke="#000000" d="M 776 321 L 940.0224609375 321" stroke-miterlimit="10"/></g><g transform="translate(-70,-30) scale(1,1)"><g><path fill="none" stroke="none"/><text fill="#000000" stroke="none" font-family="Arial" font-size="13px" font-style="normal" font-weight="bold" text-decoration="none" x="846.455322265625" y="314">Job</text><path fill="none" stroke="#000000" d="M 869.567138671875 315.5 L 846.455322265625 315.5" stroke-miterlimit="10"/></g></g><g transform="translate(-70,-30) scale(1,1)"><g><path fill="none" stroke="none"/><text fill="#000000" stroke="none" font-family="Arial" font-size="13px" font-style="normal" font-weight="normal" text-decoration="none" x="781" y="337">+id: string</text></g></g><g transform="translate(-70,-30) scale(1,1)"><g><path fill="none" stroke="none"/><text fill="#000000" stroke="none" font-family="Arial" font-size="13px" font-style="normal" font-weight="normal" text-decoration="none" x="781" y="352">+role: string</text></g></g><g transform="translate(-70,-30) scale(1,1)"><g><path fill="none" stroke="none"/><text fill="#000000" stroke="none" font-family="Arial" font-size="13px" font-style="normal" font-weight="normal" text-decoration="none" x="781" y="367">+scope: int[2]</text></g></g><g transform="translate(-70,-30) scale(1,1)"><g><path fill="none" stroke="none"/><text fill="#000000" stroke="none" font-family="Arial" font-size="13px" font-style="normal" font-weight="normal" text-decoration="none" x="781" y="382">+region: string</text></g></g><g transform="translate(-70,-30) scale(1,1)"><g><path fill="none" stroke="none"/><text fill="#000000" stroke="none" font-family="Arial" font-size="13px" font-style="normal" font-weight="normal" text-decoration="none" x="781" y="397">+title: string</text></g></g><g transform="translate(-70,-30) scale(1,1)"><g><path fill="none" stroke="none"/><text fill="#000000" stroke="none" font-family="Arial" font-size="13px" font-style="normal" font-weight="normal" text-decoration="none" x="781" y="412">+description: string</text></g></g><g transform="translate(-70,-30) scale(1,1)"><g><path fill="none" stroke="none"/><text fill="#000000" stroke="none" font-family="Arial" font-size="13px" font-style="normal" font-weight="normal" text-decoration="none" x="781" y="427">+requirements: string</text></g></g><g transform="translate(-70,-30) scale(1,1)"><g><path fill="none" stroke="none"/><text fill="#000000" stroke="none" font-family="Arial" font-size="13px" font-style="normal" font-weight="normal" text-decoration="none" x="781" y="442">+candidate: List[Job_state]</text></g></g><g transform="translate(-70,-30) scale(1,1)"><g><path fill="none" stroke="none"/><text fill="#000000" stroke="none" font-family="Arial" font-size="13px" font-style="normal" font-weight="normal" text-decoration="none" x="781" y="457">+job_state: string</text></g></g><g transform="translate(-70,-30) scale(1,1)"><g><path fill="none" stroke="none"/><text fill="#000000" stroke="none" font-family="Arial" font-size="13px" font-style="normal" font-weight="normal" text-decoration="none" x="781" y="472">+description_skills: string</text></g></g><g transform="translate(-70,-30) scale(1,1)"><g><path fill="none" stroke="none"/><text fill="#000000" stroke="none" font-family="Arial" font-size="13px" font-style="normal" font-weight="normal" text-decoration="none" x="781" y="487">+additional_info: string</text></g></g><g transform="translate(-70,-30) scale(1,1)"><g><path fill="none" stroke="none"/><text fill="#000000" stroke="none" font-family="Arial" font-size="13px" font-style="normal" font-weight="normal" text-decoration="none" x="781" y="502">+hight_priority: boolean</text></g></g><g transform="translate(-70,-30) scale(1,1)"><g><path fill="none" stroke="none"/><text fill="#000000" stroke="none" font-family="Arial" font-size="13px" font-style="normal" font-weight="normal" text-decoration="none" x="781" y="517">+sector: string</text></g></g><g transform="translate(-70,-30) scale(1,1)"><g><path fill="none" stroke="none"/><text fill="#000000" stroke="none" font-family="Arial" font-size="13px" font-style="normal" font-weight="normal" text-decoration="none" x="781" y="532">+views: int</text></g></g><g transform="translate(-70,-30) scale(1,1)"><rect fill="#C0C0C0" stroke="none" x="127" y="223" width="73.30810546875" height="24" opacity="0.2"/></g><g transform="translate(-70,-30) scale(1,1)"><rect fill="#ffffff" stroke="none" x="120" y="216" width="73.30810546875" height="24"/></g><g transform="translate(-70,-30) scale(1,1)"><path fill="none" stroke="#000000" d="M 120 216 L 193.30810546875 216 L 193.30810546875 240 L 120 240 L 120 216 Z Z" stroke-miterlimit="10"/></g><g transform="translate(-70,-30) scale(1,1)"><rect fill="#ffffff" stroke="none" x="120" y="216" width="73.30810546875" height="24"/></g><g transform="translate(-70,-30) scale(1,1)"><path fill="none" stroke="#000000" d="M 120 216 L 193.30810546875 216 L 193.30810546875 240 L 120 240 L 120 216 Z Z" stroke-miterlimit="10"/></g><g transform="translate(-70,-30) scale(1,1)"><g><path fill="none" stroke="none"/><text fill="#000000" stroke="none" font-family="Arial" font-size="13px" font-style="normal" font-weight="bold" text-decoration="none" x="124.5" y="234">Recruiters</text><path fill="none" stroke="#000000" d="M 188.80810546875 235.5 L 124.5 235.5" stroke-miterlimit="10"/></g></g><g transform="translate(-70,-30) scale(1,1)"><rect fill="#C0C0C0" stroke="none" x="351" y="215" width="79.07177734375" height="24" opacity="0.2"/></g><g transform="translate(-70,-30) scale(1,1)"><rect fill="#ffffff" stroke="none" x="344" y="208" width="79.07177734375" height="24"/></g><g transform="translate(-70,-30) scale(1,1)"><path fill="none" stroke="#000000" d="M 344 208 L 423.07177734375 208 L 423.07177734375 232 L 344 232 L 344 208 Z Z" stroke-miterlimit="10"/></g><g transform="translate(-70,-30) scale(1,1)"><rect fill="#ffffff" stroke="none" x="344" y="208" width="79.07177734375" height="24"/></g><g transform="translate(-70,-30) scale(1,1)"><path fill="none" stroke="#000000" d="M 344 208 L 423.07177734375 208 L 423.07177734375 232 L 344 232 L 344 208 Z Z" stroke-miterlimit="10"/></g><g transform="translate(-70,-30) scale(1,1)"><g><path fill="none" stroke="none"/><text fill="#000000" stroke="none" font-family="Arial" font-size="13px" font-style="normal" font-weight="bold" text-decoration="none" x="348.5" y="226">Candidates</text><path fill="none" stroke="#000000" d="M 418.57177734375 227.5 L 348.5 227.5" stroke-miterlimit="10"/></g></g><g transform="translate(-70,-30) scale(1,1)"><rect fill="#C0C0C0" stroke="none" x="543" y="215" width="149.1435546875" height="24" opacity="0.2"/></g><g transform="translate(-70,-30) scale(1,1)"><rect fill="#ffffff" stroke="none" x="536" y="208" width="149.1435546875" height="24"/></g><g transform="translate(-70,-30) scale(1,1)"><path fill="none" stroke="#000000" d="M 536 208 L 685.1435546875 208 L 685.1435546875 232 L 536 232 L 536 208 Z Z" stroke-miterlimit="10"/></g><g transform="translate(-70,-30) scale(1,1)"><rect fill="#ffffff" stroke="none" x="536" y="208" width="149.1435546875" height="24"/></g><g transform="translate(-70,-30) scale(1,1)"><path fill="none" stroke="#000000" d="M 536 208 L 685.1435546875 208 L 685.1435546875 232 L 536 232 L 536 208 Z Z" stroke-miterlimit="10"/></g><g transform="translate(-70,-30) scale(1,1)"><g><path fill="none" stroke="none"/><text fill="#000000" stroke="none" font-family="Arial" font-size="13px" font-style="normal" font-weight="bold" text-decoration="none" x="540.5" y="226">Candidate_Job_Status</text><path fill="none" stroke="#000000" d="M 680.6435546875 227.5 L 540.5 227.5" stroke-miterlimit="10"/></g></g><g transform="translate(-70,-30) scale(1,1)"><rect fill="#C0C0C0" stroke="none" x="823" y="215" width="56.68359375" height="24" opacity="0.2"/></g><g transform="translate(-70,-30) scale(1,1)"><rect fill="#ffffff" stroke="none" x="816" y="208" width="56.68359375" height="24"/></g><g transform="translate(-70,-30) scale(1,1)"><path fill="none" stroke="#000000" d="M 816 208 L 872.68359375 208 L 872.68359375 232 L 816 232 L 816 208 Z Z" stroke-miterlimit="10"/></g><g transform="translate(-70,-30) scale(1,1)"><rect fill="#ffffff" stroke="none" x="816" y="208" width="56.68359375" height="24"/></g><g transform="translate(-70,-30) scale(1,1)"><path fill="none" stroke="#000000" d="M 816 208 L 872.68359375 208 L 872.68359375 232 L 816 232 L 816 208 Z Z" stroke-miterlimit="10"/></g><g transform="translate(-70,-30) scale(1,1)"><g><path fill="none" stroke="none"/><text fill="#000000" stroke="none" font-family="Arial" font-size="13px" font-style="normal" font-weight="bold" text-decoration="none" x="829.1708984375" y="226">Jobs</text><path fill="none" stroke="#000000" d="M 859.5126953125 227.5 L 829.1708984375 227.5" stroke-miterlimit="10"/></g></g><g transform="translate(-70,-30) scale(1,1)"><path fill="none" stroke="#000000" d="M 154 241 L 148 295" stroke-miterlimit="10"/></g><g transform="translate(-70,-30) scale(1,1)"><path fill="none" stroke="#000000" d="M 383 233 L 381 295" stroke-miterlimit="10"/></g><g transform="translate(-70,-30) scale(1,1)"><path fill="none" stroke="#000000" d="M 611 233 L 618 295" stroke-miterlimit="10"/></g><g transform="translate(-70,-30) scale(1,1)"><path fill="none" stroke="#000000" d="M 845 233 L 849 295" stroke-miterlimit="10"/></g><g transform="translate(-70,-30) scale(1,1)"><rect fill="#C0C0C0" stroke="none" x="415" y="47" width="115.21533203125" height="24" opacity="0.2"/></g><g transform="translate(-70,-30) scale(1,1)"><rect fill="#ffffff" stroke="none" x="408" y="40" width="115.21533203125" height="24"/></g><g transform="translate(-70,-30) scale(1,1)"><path fill="none" stroke="#000000" d="M 408 40 L 523.21533203125 40 L 523.21533203125 64 L 408 64 L 408 40 Z Z" stroke-miterlimit="10"/></g><g transform="translate(-70,-30) scale(1,1)"><rect fill="#ffffff" stroke="none" x="408" y="40" width="115.21533203125" height="24"/></g><g transform="translate(-70,-30) scale(1,1)"><path fill="none" stroke="#000000" d="M 408 40 L 523.21533203125 40 L 523.21533203125 64 L 408 64 L 408 40 Z Z" stroke-miterlimit="10"/></g><g transform="translate(-70,-30) scale(1,1)"><g><path fill="none" stroke="none"/><text fill="#000000" stroke="none" font-family="Arial" font-size="13px" font-style="normal" font-weight="bold" text-decoration="none" x="412.5" y="58">Firebase_objects</text><path fill="none" stroke="#000000" d="M 518.71533203125 59.5 L 412.5 59.5" stroke-miterlimit="10"/></g></g><g transform="translate(-70,-30) scale(1,1)"><path fill="none" stroke="#000000" d="M 442 65 L 179 215" stroke-miterlimit="10"/></g><g transform="translate(-70,-30) scale(1,1)"><path fill="none" stroke="#000000" d="M 459 65 L 389 207" stroke-miterlimit="10"/></g><g transform="translate(-70,-30) scale(1,1)"><path fill="none" stroke="#000000" d="M 476 65 L 599 207" stroke-miterlimit="10"/></g><g transform="translate(-70,-30) scale(1,1)"><path fill="none" stroke="#000000" d="M 494 65 L 815 207" stroke-miterlimit="10"/></g></g></svg>