<?xml version="1.0" encoding="UTF-8" standalone="no"?><svg xmlns="http://www.w3.org/2000/svg" xmlns:xlink="http://www.w3.org/1999/xlink" height="380" version="1.1" width="793.5625"><defs/><g><g transform="translate(2,-6) scale(1,1)"><rect fill="#C0C0C0" height="104" opacity="0.2" stroke="none" width="125.6953125" x="15" y="231"/></g><g transform="translate(2,-6) scale(1,1)"><rect fill="#ffffff" height="104" stroke="none" width="125.6953125" x="8" y="224"/></g><g transform="translate(2,-6) scale(1,1)"><path d="M 8 224 L 133.6953125 224 L 133.6953125 328 L 8 328 L 8 224 Z Z" fill="none" stroke="#000000" stroke-miterlimit="10"/></g><g transform="translate(2,-6) scale(1,1)"><rect fill="#ffffff" height="104" stroke="none" width="125.6953125" x="8" y="224"/></g><g transform="translate(2,-6) scale(1,1)"><path d="M 8 224 L 133.6953125 224 L 133.6953125 328 L 8 328 L 8 224 Z Z" fill="none" stroke="#000000" stroke-miterlimit="10"/></g><g transform="translate(2,-6) scale(1,1)"><path d="M 8 249 L 133.6953125 249" fill="none" stroke="#000000" stroke-miterlimit="10"/></g><g transform="translate(2,-6) scale(1,1)"><g><path fill="none" stroke="none"/><text fill="#000000" font-family="Arial" font-size="13px" font-style="normal" font-weight="bold" stroke="none" text-decoration="none" x="42.30859375" y="242">Recruiter</text><path d="M 99.38671875 243.5 L 42.30859375 243.5" fill="none" stroke="#000000" stroke-miterlimit="10"/></g></g><g transform="translate(2,-6) scale(1,1)"><g><path fill="none" stroke="none"/><text fill="#000000" font-family="Arial" font-size="13px" font-style="normal" font-weight="normal" stroke="none" text-decoration="none" x="13" y="265">+user_name: string</text></g></g><g transform="translate(2,-6) scale(1,1)"><g><path fill="none" stroke="none"/><text fill="#000000" font-family="Arial" font-size="13px" font-style="normal" font-weight="normal" stroke="none" text-decoration="none" x="13" y="280">+first_name: string</text></g></g><g transform="translate(2,-6) scale(1,1)"><g><path fill="none" stroke="none"/><text fill="#000000" font-family="Arial" font-size="13px" font-style="normal" font-weight="normal" stroke="none" text-decoration="none" x="13" y="295">+last_name</text></g></g><g transform="translate(2,-6) scale(1,1)"><g><path fill="none" stroke="none"/><text fill="#000000" font-family="Arial" font-size="13px" font-style="normal" font-weight="normal" stroke="none" text-decoration="none" x="13" y="310">+regions: List[string]</text></g></g><g transform="translate(2,-6) scale(1,1)"><rect fill="#C0C0C0" height="137" opacity="0.2" stroke="none" width="131.49072265625" x="151" y="231"/></g><g transform="translate(2,-6) scale(1,1)"><rect fill="#ffffff" height="137" stroke="none" width="131.49072265625" x="144" y="224"/></g><g transform="translate(2,-6) scale(1,1)"><path d="M 144 224 L 275.49072265625 224 L 275.49072265625 361 L 144 361 L 144 224 Z Z" fill="none" stroke="#000000" stroke-miterlimit="10"/></g><g transform="translate(2,-6) scale(1,1)"><rect fill="#ffffff" height="137" stroke="none" width="131.49072265625" x="144" y="224"/></g><g transform="translate(2,-6) scale(1,1)"><path d="M 144 224 L 275.49072265625 224 L 275.49072265625 361 L 144 361 L 144 224 Z Z" fill="none" stroke="#000000" stroke-miterlimit="10"/></g><g transform="translate(2,-6) scale(1,1)"><path d="M 144 249 L 275.49072265625 249" fill="none" stroke="#000000" stroke-miterlimit="10"/></g><g transform="translate(2,-6) scale(1,1)"><g><path fill="none" stroke="none"/><text fill="#000000" font-family="Arial" font-size="13px" font-style="normal" font-weight="bold" stroke="none" text-decoration="none" x="178.324462890625" y="242">Candidate</text><path d="M 241.166259765625 243.5 L 178.324462890625 243.5" fill="none" stroke="#000000" stroke-miterlimit="10"/></g></g><g transform="translate(2,-6) scale(1,1)"><g><path fill="none" stroke="none"/><text fill="#000000" font-family="Arial" font-size="13px" font-style="normal" font-weight="normal" stroke="none" text-decoration="none" x="149" y="265">+id: string</text></g></g><g transform="translate(2,-6) scale(1,1)"><g><path fill="none" stroke="none"/><text fill="#000000" font-family="Arial" font-size="13px" font-style="normal" font-weight="normal" stroke="none" text-decoration="none" x="149" y="280">+first_name: string</text></g></g><g transform="translate(2,-6) scale(1,1)"><g><path fill="none" stroke="none"/><text fill="#000000" font-family="Arial" font-size="13px" font-style="normal" font-weight="normal" stroke="none" text-decoration="none" x="149" y="295">+last_name: string</text></g></g><g transform="translate(2,-6) scale(1,1)"><g><path fill="none" stroke="none"/><text fill="#000000" font-family="Arial" font-size="13px" font-style="normal" font-weight="normal" stroke="none" text-decoration="none" x="149" y="310">+email: string</text></g></g><g transform="translate(2,-6) scale(1,1)"><g><path fill="none" stroke="none"/><text fill="#000000" font-family="Arial" font-size="13px" font-style="normal" font-weight="normal" stroke="none" text-decoration="none" x="149" y="325">+jobs: List[Job_state]</text></g></g><g transform="translate(2,-6) scale(1,1)"><g><path fill="none" stroke="none"/><text fill="#000000" font-family="Arial" font-size="13px" font-style="normal" font-weight="normal" stroke="none" text-decoration="none" x="149" y="340">+phone: string</text></g></g><g transform="translate(2,-6) scale(1,1)"><g><path fill="none" stroke="none"/><text fill="#000000" font-family="Arial" font-size="13px" font-style="normal" font-weight="normal" stroke="none" text-decoration="none" x="149" y="355">+cv: to_determine</text></g></g><g transform="translate(2,-6) scale(1,1)"><rect fill="#C0C0C0" height="107" opacity="0.2" stroke="none" width="129.33251953125" x="295" y="231"/></g><g transform="translate(2,-6) scale(1,1)"><rect fill="#ffffff" height="107" stroke="none" width="129.33251953125" x="288" y="224"/></g><g transform="translate(2,-6) scale(1,1)"><path d="M 288 224 L 417.33251953125 224 L 417.33251953125 331 L 288 331 L 288 224 Z Z" fill="none" stroke="#000000" stroke-miterlimit="10"/></g><g transform="translate(2,-6) scale(1,1)"><rect fill="#ffffff" height="107" stroke="none" width="129.33251953125" x="288" y="224"/></g><g transform="translate(2,-6) scale(1,1)"><path d="M 288 224 L 417.33251953125 224 L 417.33251953125 331 L 288 331 L 288 224 Z Z" fill="none" stroke="#000000" stroke-miterlimit="10"/></g><g transform="translate(2,-6) scale(1,1)"><path d="M 288 249 L 417.33251953125 249" fill="none" stroke="#000000" stroke-miterlimit="10"/></g><g transform="translate(2,-6) scale(1,1)"><g><path fill="none" stroke="none"/><text fill="#000000" font-family="Arial" font-size="13px" font-style="normal" font-weight="bold" stroke="none" text-decoration="none" x="322.3212890625" y="242">Job_state</text><path d="M 383.01123046875 243.5 L 322.3212890625 243.5" fill="none" stroke="#000000" stroke-miterlimit="10"/></g></g><g transform="translate(2,-6) scale(1,1)"><g><path fill="none" stroke="none"/><text fill="#000000" font-family="Arial" font-size="13px" font-style="normal" font-weight="normal" stroke="none" text-decoration="none" x="293" y="265">+job_id: string</text></g></g><g transform="translate(2,-6) scale(1,1)"><g><path fill="none" stroke="none"/><text fill="#000000" font-family="Arial" font-size="13px" font-style="normal" font-weight="normal" stroke="none" text-decoration="none" x="293" y="280">+candidate_id: string</text></g></g><g transform="translate(2,-6) scale(1,1)"><g><path fill="none" stroke="none"/><text fill="#000000" font-family="Arial" font-size="13px" font-style="normal" font-weight="normal" stroke="none" text-decoration="none" x="293" y="295">+status: string</text></g></g><g transform="translate(2,-6) scale(1,1)"><g><path fill="none" stroke="none"/><text fill="#000000" font-family="Arial" font-size="13px" font-style="normal" font-weight="normal" stroke="none" text-decoration="none" x="293" y="310">+matching_rate: int</text></g></g><g transform="translate(2,-6) scale(1,1)"><g><path fill="none" stroke="none"/><text fill="#000000" font-family="Arial" font-size="13px" font-style="normal" font-weight="normal" stroke="none" text-decoration="none" x="293" y="325">+Apply_date: date</text></g></g><g transform="translate(2,-6) scale(1,1)"><rect fill="#C0C0C0" height="152" opacity="0.2" stroke="none" width="164.0224609375" x="439" y="231"/></g><g transform="translate(2,-6) scale(1,1)"><rect fill="#ffffff" height="152" stroke="none" width="164.0224609375" x="432" y="224"/></g><g transform="translate(2,-6) scale(1,1)"><path d="M 432 224 L 596.0224609375 224 L 596.0224609375 376 L 432 376 L 432 224 Z Z" fill="none" stroke="#000000" stroke-miterlimit="10"/></g><g transform="translate(2,-6) scale(1,1)"><rect fill="#ffffff" height="152" stroke="none" width="164.0224609375" x="432" y="224"/></g><g transform="translate(2,-6) scale(1,1)"><path d="M 432 224 L 596.0224609375 224 L 596.0224609375 376 L 432 376 L 432 224 Z Z" fill="none" stroke="#000000" stroke-miterlimit="10"/></g><g transform="translate(2,-6) scale(1,1)"><path d="M 432 249 L 596.0224609375 249" fill="none" stroke="#000000" stroke-miterlimit="10"/></g><g transform="translate(2,-6) scale(1,1)"><g><path fill="none" stroke="none"/><text fill="#000000" font-family="Arial" font-size="13px" font-style="normal" font-weight="bold" stroke="none" text-decoration="none" x="502.455322265625" y="242">Job</text><path d="M 525.567138671875 243.5 L 502.455322265625 243.5" fill="none" stroke="#000000" stroke-miterlimit="10"/></g></g><g transform="translate(2,-6) scale(1,1)"><g><path fill="none" stroke="none"/><text fill="#000000" font-family="Arial" font-size="13px" font-style="normal" font-weight="normal" stroke="none" text-decoration="none" x="437" y="265">+id: string</text></g></g><g transform="translate(2,-6) scale(1,1)"><g><path fill="none" stroke="none"/><text fill="#000000" font-family="Arial" font-size="13px" font-style="normal" font-weight="normal" stroke="none" text-decoration="none" x="437" y="280">+role: string</text></g></g><g transform="translate(2,-6) scale(1,1)"><g><path fill="none" stroke="none"/><text fill="#000000" font-family="Arial" font-size="13px" font-style="normal" font-weight="normal" stroke="none" text-decoration="none" x="437" y="295">+scope: int[2]</text></g></g><g transform="translate(2,-6) scale(1,1)"><g><path fill="none" stroke="none"/><text fill="#000000" font-family="Arial" font-size="13px" font-style="normal" font-weight="normal" stroke="none" text-decoration="none" x="437" y="310">+region: string</text></g></g><g transform="translate(2,-6) scale(1,1)"><g><path fill="none" stroke="none"/><text fill="#000000" font-family="Arial" font-size="13px" font-style="normal" font-weight="normal" stroke="none" text-decoration="none" x="437" y="325">+title: string</text></g></g><g transform="translate(2,-6) scale(1,1)"><g><path fill="none" stroke="none"/><text fill="#000000" font-family="Arial" font-size="13px" font-style="normal" font-weight="normal" stroke="none" text-decoration="none" x="437" y="340">+description: string</text></g></g><g transform="translate(2,-6) scale(1,1)"><g><path fill="none" stroke="none"/><text fill="#000000" font-family="Arial" font-size="13px" font-style="normal" font-weight="normal" stroke="none" text-decoration="none" x="437" y="355">+requirements: string</text></g></g><g transform="translate(2,-6) scale(1,1)"><g><path fill="none" stroke="none"/><text fill="#000000" font-family="Arial" font-size="13px" font-style="normal" font-weight="normal" stroke="none" text-decoration="none" x="437" y="370">+candidate: List[Job_state]</text></g></g><g transform="translate(2,-6) scale(1,1)"><rect fill="#C0C0C0" height="62" opacity="0.2" stroke="none" width="149.5625" x="639" y="135"/></g><g transform="translate(2,-6) scale(1,1)"><rect fill="#ffffff" height="62" stroke="none" width="149.5625" x="632" y="128"/></g><g transform="translate(2,-6) scale(1,1)"><path d="M 632 128 L 781.5625 128 L 781.5625 190 L 632 190 L 632 128 Z Z" fill="none" stroke="#000000" stroke-miterlimit="10"/></g><g transform="translate(2,-6) scale(1,1)"><rect fill="#ffffff" height="62" stroke="none" width="149.5625" x="632" y="128"/></g><g transform="translate(2,-6) scale(1,1)"><path d="M 632 128 L 781.5625 128 L 781.5625 190 L 632 190 L 632 128 Z Z" fill="none" stroke="#000000" stroke-miterlimit="10"/></g><g transform="translate(2,-6) scale(1,1)"><path d="M 632 153 L 781.5625 153" fill="none" stroke="#000000" stroke-miterlimit="10"/></g><g transform="translate(2,-6) scale(1,1)"><g><path fill="none" stroke="none"/><text fill="#000000" font-family="Arial" font-size="13px" font-style="normal" font-weight="bold" stroke="none" text-decoration="none" x="654.755859375" y="146">Global_variables</text><path d="M 758.806640625 147.5 L 654.755859375 147.5" fill="none" stroke="#000000" stroke-miterlimit="10"/></g></g><g transform="translate(2,-6) scale(1,1)"><g><path fill="none" stroke="none"/><text fill="#000000" font-family="Arial" font-size="13px" font-style="normal" font-weight="normal" stroke="none" text-decoration="none" x="637" y="169">+first_job_title: string</text></g></g><g transform="translate(2,-6) scale(1,1)"><g><path fill="none" stroke="none"/><text fill="#000000" font-family="Arial" font-size="13px" font-style="normal" font-weight="normal" stroke="none" text-decoration="none" x="637" y="184">+second_job_title: string</text></g></g><g transform="translate(2,-6) scale(1,1)"><rect fill="#C0C0C0" height="24" opacity="0.2" stroke="none" width="73.30810546875" x="39" y="135"/></g><g transform="translate(2,-6) scale(1,1)"><rect fill="#ffffff" height="24" stroke="none" width="73.30810546875" x="32" y="128"/></g><g transform="translate(2,-6) scale(1,1)"><path d="M 32 128 L 105.30810546875 128 L 105.30810546875 152 L 32 152 L 32 128 Z Z" fill="none" stroke="#000000" stroke-miterlimit="10"/></g><g transform="translate(2,-6) scale(1,1)"><rect fill="#ffffff" height="24" stroke="none" width="73.30810546875" x="32" y="128"/></g><g transform="translate(2,-6) scale(1,1)"><path d="M 32 128 L 105.30810546875 128 L 105.30810546875 152 L 32 152 L 32 128 Z Z" fill="none" stroke="#000000" stroke-miterlimit="10"/></g><g transform="translate(2,-6) scale(1,1)"><g><path fill="none" stroke="none"/><text fill="#000000" font-family="Arial" font-size="13px" font-style="normal" font-weight="bold" stroke="none" text-decoration="none" x="36.5" y="146">Recruiters</text><path d="M 100.80810546875 147.5 L 36.5 147.5" fill="none" stroke="#000000" stroke-miterlimit="10"/></g></g><g transform="translate(2,-6) scale(1,1)"><rect fill="#C0C0C0" height="24" opacity="0.2" stroke="none" width="79.07177734375" x="175" y="135"/></g><g transform="translate(2,-6) scale(1,1)"><rect fill="#ffffff" height="24" stroke="none" width="79.07177734375" x="168" y="128"/></g><g transform="translate(2,-6) scale(1,1)"><path d="M 168 128 L 247.07177734375 128 L 247.07177734375 152 L 168 152 L 168 128 Z Z" fill="none" stroke="#000000" stroke-miterlimit="10"/></g><g transform="translate(2,-6) scale(1,1)"><rect fill="#ffffff" height="24" stroke="none" width="79.07177734375" x="168" y="128"/></g><g transform="translate(2,-6) scale(1,1)"><path d="M 168 128 L 247.07177734375 128 L 247.07177734375 152 L 168 152 L 168 128 Z Z" fill="none" stroke="#000000" stroke-miterlimit="10"/></g><g transform="translate(2,-6) scale(1,1)"><g><path fill="none" stroke="none"/><text fill="#000000" font-family="Arial" font-size="13px" font-style="normal" font-weight="bold" stroke="none" text-decoration="none" x="172.5" y="146">Candidates</text><path d="M 242.57177734375 147.5 L 172.5 147.5" fill="none" stroke="#000000" stroke-miterlimit="10"/></g></g><g transform="translate(2,-6) scale(1,1)"><rect fill="#C0C0C0" height="24" opacity="0.2" stroke="none" width="76.919921875" x="319" y="135"/></g><g transform="translate(2,-6) scale(1,1)"><rect fill="#ffffff" height="24" stroke="none" width="76.919921875" x="312" y="128"/></g><g transform="translate(2,-6) scale(1,1)"><path d="M 312 128 L 388.919921875 128 L 388.919921875 152 L 312 152 L 312 128 Z Z" fill="none" stroke="#000000" stroke-miterlimit="10"/></g><g transform="translate(2,-6) scale(1,1)"><rect fill="#ffffff" height="24" stroke="none" width="76.919921875" x="312" y="128"/></g><g transform="translate(2,-6) scale(1,1)"><path d="M 312 128 L 388.919921875 128 L 388.919921875 152 L 312 152 L 312 128 Z Z" fill="none" stroke="#000000" stroke-miterlimit="10"/></g><g transform="translate(2,-6) scale(1,1)"><g><path fill="none" stroke="none"/><text fill="#000000" font-family="Arial" font-size="13px" font-style="normal" font-weight="bold" stroke="none" text-decoration="none" x="316.5" y="146">Job_states</text><path d="M 384.419921875 147.5 L 316.5 147.5" fill="none" stroke="#000000" stroke-miterlimit="10"/></g></g><g transform="translate(2,-6) scale(1,1)"><rect fill="#C0C0C0" height="24" opacity="0.2" stroke="none" width="56.68359375" x="495" y="135"/></g><g transform="translate(2,-6) scale(1,1)"><rect fill="#ffffff" height="24" stroke="none" width="56.68359375" x="488" y="128"/></g><g transform="translate(2,-6) scale(1,1)"><path d="M 488 128 L 544.68359375 128 L 544.68359375 152 L 488 152 L 488 128 Z Z" fill="none" stroke="#000000" stroke-miterlimit="10"/></g><g transform="translate(2,-6) scale(1,1)"><rect fill="#ffffff" height="24" stroke="none" width="56.68359375" x="488" y="128"/></g><g transform="translate(2,-6) scale(1,1)"><path d="M 488 128 L 544.68359375 128 L 544.68359375 152 L 488 152 L 488 128 Z Z" fill="none" stroke="#000000" stroke-miterlimit="10"/></g><g transform="translate(2,-6) scale(1,1)"><g><path fill="none" stroke="none"/><text fill="#000000" font-family="Arial" font-size="13px" font-style="normal" font-weight="bold" stroke="none" text-decoration="none" x="501.1708984375" y="146">Jobs</text><path d="M 531.5126953125 147.5 L 501.1708984375 147.5" fill="none" stroke="#000000" stroke-miterlimit="10"/></g></g><g transform="translate(2,-6) scale(1,1)"><path d="M 68 153 L 69 223" fill="none" stroke="#000000" stroke-miterlimit="10"/></g><g transform="translate(2,-6) scale(1,1)"><path d="M 207 153 L 208 223" fill="none" stroke="#000000" stroke-miterlimit="10"/></g><g transform="translate(2,-6) scale(1,1)"><path d="M 350 153 L 351 223" fill="none" stroke="#000000" stroke-miterlimit="10"/></g><g transform="translate(2,-6) scale(1,1)"><path d="M 516 153 L 515 223" fill="none" stroke="#000000" stroke-miterlimit="10"/></g><g transform="translate(2,-6) scale(1,1)"><rect fill="#C0C0C0" height="24" opacity="0.2" stroke="none" width="115.21533203125" x="447" y="23"/></g><g transform="translate(2,-6) scale(1,1)"><rect fill="#ffffff" height="24" stroke="none" width="115.21533203125" x="440" y="16"/></g><g transform="translate(2,-6) scale(1,1)"><path d="M 440 16 L 555.21533203125 16 L 555.21533203125 40 L 440 40 L 440 16 Z Z" fill="none" stroke="#000000" stroke-miterlimit="10"/></g><g transform="translate(2,-6) scale(1,1)"><rect fill="#ffffff" height="24" stroke="none" width="115.21533203125" x="440" y="16"/></g><g transform="translate(2,-6) scale(1,1)"><path d="M 440 16 L 555.21533203125 16 L 555.21533203125 40 L 440 40 L 440 16 Z Z" fill="none" stroke="#000000" stroke-miterlimit="10"/></g><g transform="translate(2,-6) scale(1,1)"><g><path fill="none" stroke="none"/><text fill="#000000" font-family="Arial" font-size="13px" font-style="normal" font-weight="bold" stroke="none" text-decoration="none" x="444.5" y="34">Firebase_objects</text><path d="M 550.71533203125 35.5 L 444.5 35.5" fill="none" stroke="#000000" stroke-miterlimit="10"/></g></g><g transform="translate(2,-6) scale(1,1)"><path d="M 447 41 L 106 130" fill="none" stroke="#000000" stroke-miterlimit="10"/></g><g transform="translate(2,-6) scale(1,1)"><path d="M 463 41 L 241 127" fill="none" stroke="#000000" stroke-miterlimit="10"/></g><g transform="translate(2,-6) scale(1,1)"><path d="M 480 41 L 367 127" fill="none" stroke="#000000" stroke-miterlimit="10"/></g><g transform="translate(2,-6) scale(1,1)"><path d="M 499 41 L 514 127" fill="none" stroke="#000000" stroke-miterlimit="10"/></g><g transform="translate(2,-6) scale(1,1)"><path d="M 518 41 L 655 127" fill="none" stroke="#000000" stroke-miterlimit="10"/></g></g></svg>