<?xml version="1.0" encoding="UTF-8" standalone="no"?><svg xmlns="http://www.w3.org/2000/svg" xmlns:xlink="http://www.w3.org/1999/xlink" height="488" version="1.1" width="886.5224609375"><defs/><g><g transform="translate(-70,-30) scale(1,1)"><rect fill="#C0C0C0" height="107" opacity="0.2" stroke="none" width="125.6953125" x="87" y="303"/></g><g transform="translate(-70,-30) scale(1,1)"><rect fill="#ffffff" height="107" stroke="none" width="125.6953125" x="80" y="296"/></g><g transform="translate(-70,-30) scale(1,1)"><path d="M 80 296 L 205.6953125 296 L 205.6953125 403 L 80 403 L 80 296 Z Z" fill="none" stroke="#000000" stroke-miterlimit="10"/></g><g transform="translate(-70,-30) scale(1,1)"><rect fill="#ffffff" height="107" stroke="none" width="125.6953125" x="80" y="296"/></g><g transform="translate(-70,-30) scale(1,1)"><path d="M 80 296 L 205.6953125 296 L 205.6953125 403 L 80 403 L 80 296 Z Z" fill="none" stroke="#000000" stroke-miterlimit="10"/></g><g transform="translate(-70,-30) scale(1,1)"><path d="M 80 321 L 205.6953125 321" fill="none" stroke="#000000" stroke-miterlimit="10"/></g><g transform="translate(-70,-30) scale(1,1)"><g><path fill="none" stroke="none"/><text fill="#000000" font-family="Arial" font-size="13px" font-style="normal" font-weight="bold" stroke="none" text-decoration="none" x="114.30859375" y="314">Recruiter</text><path d="M 171.38671875 315.5 L 114.30859375 315.5" fill="none" stroke="#000000" stroke-miterlimit="10"/></g></g><g transform="translate(-70,-30) scale(1,1)"><g><path fill="none" stroke="none"/><text fill="#000000" font-family="Arial" font-size="13px" font-style="normal" font-weight="normal" stroke="none" text-decoration="none" x="85" y="337">+id: string</text></g></g><g transform="translate(-70,-30) scale(1,1)"><g><path fill="none" stroke="none"/><text fill="#000000" font-family="Arial" font-size="13px" font-style="normal" font-weight="normal" stroke="none" text-decoration="none" x="85" y="352">+user_name: string</text></g></g><g transform="translate(-70,-30) scale(1,1)"><g><path fill="none" stroke="none"/><text fill="#000000" font-family="Arial" font-size="13px" font-style="normal" font-weight="normal" stroke="none" text-decoration="none" x="85" y="367">+first_name: string</text></g></g><g transform="translate(-70,-30) scale(1,1)"><g><path fill="none" stroke="none"/><text fill="#000000" font-family="Arial" font-size="13px" font-style="normal" font-weight="normal" stroke="none" text-decoration="none" x="85" y="382">+last_name: string</text></g></g><g transform="translate(-70,-30) scale(1,1)"><g><path fill="none" stroke="none"/><text fill="#000000" font-family="Arial" font-size="13px" font-style="normal" font-weight="normal" stroke="none" text-decoration="none" x="85" y="397">+sectors: List[string]</text></g></g><g transform="translate(-70,-30) scale(1,1)"><rect fill="#C0C0C0" height="152" opacity="0.2" stroke="none" width="199.4296875" x="287" y="303"/></g><g transform="translate(-70,-30) scale(1,1)"><rect fill="#ffffff" height="152" stroke="none" width="199.4296875" x="280" y="296"/></g><g transform="translate(-70,-30) scale(1,1)"><path d="M 280 296 L 479.4296875 296 L 479.4296875 448 L 280 448 L 280 296 Z Z" fill="none" stroke="#000000" stroke-miterlimit="10"/></g><g transform="translate(-70,-30) scale(1,1)"><rect fill="#ffffff" height="152" stroke="none" width="199.4296875" x="280" y="296"/></g><g transform="translate(-70,-30) scale(1,1)"><path d="M 280 296 L 479.4296875 296 L 479.4296875 448 L 280 448 L 280 296 Z Z" fill="none" stroke="#000000" stroke-miterlimit="10"/></g><g transform="translate(-70,-30) scale(1,1)"><path d="M 280 321 L 479.4296875 321" fill="none" stroke="#000000" stroke-miterlimit="10"/></g><g transform="translate(-70,-30) scale(1,1)"><g><path fill="none" stroke="none"/><text fill="#000000" font-family="Arial" font-size="13px" font-style="normal" font-weight="bold" stroke="none" text-decoration="none" x="348.2939453125" y="314">Candidate</text><path d="M 411.1357421875 315.5 L 348.2939453125 315.5" fill="none" stroke="#000000" stroke-miterlimit="10"/></g></g><g transform="translate(-70,-30) scale(1,1)"><g><path fill="none" stroke="none"/><text fill="#000000" font-family="Arial" font-size="13px" font-style="normal" font-weight="normal" stroke="none" text-decoration="none" x="285" y="337">+id: string</text></g></g><g transform="translate(-70,-30) scale(1,1)"><g><path fill="none" stroke="none"/><text fill="#000000" font-family="Arial" font-size="13px" font-style="normal" font-weight="normal" stroke="none" text-decoration="none" x="285" y="352">+first_name: string</text></g></g><g transform="translate(-70,-30) scale(1,1)"><g><path fill="none" stroke="none"/><text fill="#000000" font-family="Arial" font-size="13px" font-style="normal" font-weight="normal" stroke="none" text-decoration="none" x="285" y="367">+last_name: string</text></g></g><g transform="translate(-70,-30) scale(1,1)"><g><path fill="none" stroke="none"/><text fill="#000000" font-family="Arial" font-size="13px" font-style="normal" font-weight="normal" stroke="none" text-decoration="none" x="285" y="382">+phone: string</text></g></g><g transform="translate(-70,-30) scale(1,1)"><g><path fill="none" stroke="none"/><text fill="#000000" font-family="Arial" font-size="13px" font-style="normal" font-weight="normal" stroke="none" text-decoration="none" x="285" y="397">+email: string</text></g></g><g transform="translate(-70,-30) scale(1,1)"><g><path fill="none" stroke="none"/><text fill="#000000" font-family="Arial" font-size="13px" font-style="normal" font-weight="normal" stroke="none" text-decoration="none" x="285" y="412">+cv: to_determine</text></g></g><g transform="translate(-70,-30) scale(1,1)"><g><path fill="none" stroke="none"/><text fill="#000000" font-family="Arial" font-size="13px" font-style="normal" font-weight="normal" stroke="none" text-decoration="none" x="285" y="427">+jobs: List[Candidate_JobStatus]</text></g></g><g transform="translate(-70,-30) scale(1,1)"><g><path fill="none" stroke="none"/><text fill="#000000" font-family="Arial" font-size="13px" font-style="normal" font-weight="normal" stroke="none" text-decoration="none" x="285" y="442">+general_rating: int</text></g></g><g transform="translate(-70,-30) scale(1,1)"><rect fill="#C0C0C0" height="137" opacity="0.2" stroke="none" width="244.23779296875" x="511" y="303"/></g><g transform="translate(-70,-30) scale(1,1)"><rect fill="#ffffff" height="137" stroke="none" width="244.23779296875" x="504" y="296"/></g><g transform="translate(-70,-30) scale(1,1)"><path d="M 504 296 L 748.23779296875 296 L 748.23779296875 433 L 504 433 L 504 296 Z Z" fill="none" stroke="#000000" stroke-miterlimit="10"/></g><g transform="translate(-70,-30) scale(1,1)"><rect fill="#ffffff" height="137" stroke="none" width="244.23779296875" x="504" y="296"/></g><g transform="translate(-70,-30) scale(1,1)"><path d="M 504 296 L 748.23779296875 296 L 748.23779296875 433 L 504 433 L 504 296 Z Z" fill="none" stroke="#000000" stroke-miterlimit="10"/></g><g transform="translate(-70,-30) scale(1,1)"><path d="M 504 321 L 748.23779296875 321" fill="none" stroke="#000000" stroke-miterlimit="10"/></g><g transform="translate(-70,-30) scale(1,1)"><g><path fill="none" stroke="none"/><text fill="#000000" font-family="Arial" font-size="13px" font-style="normal" font-weight="bold" stroke="none" text-decoration="none" x="556.047119140625" y="314">Candidate_Job_Status</text><path d="M 696.190673828125 315.5 L 556.047119140625 315.5" fill="none" stroke="#000000" stroke-miterlimit="10"/></g></g><g transform="translate(-70,-30) scale(1,1)"><g><path fill="none" stroke="none"/><text fill="#000000" font-family="Arial" font-size="13px" font-style="normal" font-weight="normal" stroke="none" text-decoration="none" x="509" y="337">+job_id: string</text></g></g><g transform="translate(-70,-30) scale(1,1)"><g><path fill="none" stroke="none"/><text fill="#000000" font-family="Arial" font-size="13px" font-style="normal" font-weight="normal" stroke="none" text-decoration="none" x="509" y="352">+candidate_id: string</text></g></g><g transform="translate(-70,-30) scale(1,1)"><g><path fill="none" stroke="none"/><text fill="#000000" font-family="Arial" font-size="13px" font-style="normal" font-weight="normal" stroke="none" text-decoration="none" x="509" y="367">+status: string</text></g></g><g transform="translate(-70,-30) scale(1,1)"><g><path fill="none" stroke="none"/><text fill="#000000" font-family="Arial" font-size="13px" font-style="normal" font-weight="normal" stroke="none" text-decoration="none" x="509" y="382">+matching_rate: int</text></g></g><g transform="translate(-70,-30) scale(1,1)"><g><path fill="none" stroke="none"/><text fill="#000000" font-family="Arial" font-size="13px" font-style="normal" font-weight="normal" stroke="none" text-decoration="none" x="509" y="397">+Apply_date: date</text></g></g><g transform="translate(-70,-30) scale(1,1)"><g><path fill="none" stroke="none"/><text fill="#000000" font-family="Arial" font-size="13px" font-style="normal" font-weight="normal" stroke="none" text-decoration="none" x="509" y="412">+last_update_status: date</text></g></g><g transform="translate(-70,-30) scale(1,1)"><g><path fill="none" stroke="none"/><text fill="#000000" font-family="Arial" font-size="13px" font-style="normal" font-weight="normal" stroke="none" text-decoration="none" x="509" y="427">+interview_summery: string</text></g></g><g transform="translate(-70,-30) scale(1,1)"><rect fill="#C0C0C0" height="212" opacity="0.2" stroke="none" width="170.5224609375" x="783" y="303"/></g><g transform="translate(-70,-30) scale(1,1)"><rect fill="#ffffff" height="212" stroke="none" width="170.5224609375" x="776" y="296"/></g><g transform="translate(-70,-30) scale(1,1)"><path d="M 776 296 L 946.5224609375 296 L 946.5224609375 508 L 776 508 L 776 296 Z Z" fill="none" stroke="#000000" stroke-miterlimit="10"/></g><g transform="translate(-70,-30) scale(1,1)"><rect fill="#ffffff" height="212" stroke="none" width="170.5224609375" x="776" y="296"/></g><g transform="translate(-70,-30) scale(1,1)"><path d="M 776 296 L 946.5224609375 296 L 946.5224609375 508 L 776 508 L 776 296 Z Z" fill="none" stroke="#000000" stroke-miterlimit="10"/></g><g transform="translate(-70,-30) scale(1,1)"><path d="M 776 321 L 946.5224609375 321" fill="none" stroke="#000000" stroke-miterlimit="10"/></g><g transform="translate(-70,-30) scale(1,1)"><g><path fill="none" stroke="none"/><text fill="#000000" font-family="Arial" font-size="13px" font-style="normal" font-weight="bold" stroke="none" text-decoration="none" x="849.705322265625" y="314">Job</text><path d="M 872.817138671875 315.5 L 849.705322265625 315.5" fill="none" stroke="#000000" stroke-miterlimit="10"/></g></g><g transform="translate(-70,-30) scale(1,1)"><g><path fill="none" stroke="none"/><text fill="#000000" font-family="Arial" font-size="13px" font-style="normal" font-weight="normal" stroke="none" text-decoration="none" x="781" y="337">+id: string</text></g></g><g transform="translate(-70,-30) scale(1,1)"><g><path fill="none" stroke="none"/><text fill="#000000" font-family="Arial" font-size="13px" font-style="normal" font-weight="normal" stroke="none" text-decoration="none" x="781" y="352">+role: string</text></g></g><g transform="translate(-70,-30) scale(1,1)"><g><path fill="none" stroke="none"/><text fill="#000000" font-family="Arial" font-size="13px" font-style="normal" font-weight="normal" stroke="none" text-decoration="none" x="781" y="367">+scope: int[2]</text></g></g><g transform="translate(-70,-30) scale(1,1)"><g><path fill="none" stroke="none"/><text fill="#000000" font-family="Arial" font-size="13px" font-style="normal" font-weight="normal" stroke="none" text-decoration="none" x="781" y="382">+region: string</text></g></g><g transform="translate(-70,-30) scale(1,1)"><g><path fill="none" stroke="none"/><text fill="#000000" font-family="Arial" font-size="13px" font-style="normal" font-weight="normal" stroke="none" text-decoration="none" x="781" y="397">+title: string</text></g></g><g transform="translate(-70,-30) scale(1,1)"><g><path fill="none" stroke="none"/><text fill="#000000" font-family="Arial" font-size="13px" font-style="normal" font-weight="normal" stroke="none" text-decoration="none" x="781" y="412">+description: string</text></g></g><g transform="translate(-70,-30) scale(1,1)"><g><path fill="none" stroke="none"/><text fill="#000000" font-family="Arial" font-size="13px" font-style="normal" font-weight="normal" stroke="none" text-decoration="none" x="781" y="427">+requirements: string</text></g></g><g transform="translate(-70,-30) scale(1,1)"><g><path fill="none" stroke="none"/><text fill="#000000" font-family="Arial" font-size="13px" font-style="normal" font-weight="normal" stroke="none" text-decoration="none" x="781" y="442">+candidates: List[Job_state]</text></g></g><g transform="translate(-70,-30) scale(1,1)"><g><path fill="none" stroke="none"/><text fill="#000000" font-family="Arial" font-size="13px" font-style="normal" font-weight="normal" stroke="none" text-decoration="none" x="781" y="457">+job_state: string</text></g></g><g transform="translate(-70,-30) scale(1,1)"><g><path fill="none" stroke="none"/><text fill="#000000" font-family="Arial" font-size="13px" font-style="normal" font-weight="normal" stroke="none" text-decoration="none" x="781" y="472">+hight_priority: boolean</text></g></g><g transform="translate(-70,-30) scale(1,1)"><g><path fill="none" stroke="none"/><text fill="#000000" font-family="Arial" font-size="13px" font-style="normal" font-weight="normal" stroke="none" text-decoration="none" x="781" y="487">+sector: string</text></g></g><g transform="translate(-70,-30) scale(1,1)"><g><path fill="none" stroke="none"/><text fill="#000000" font-family="Arial" font-size="13px" font-style="normal" font-weight="normal" stroke="none" text-decoration="none" x="781" y="502">+views: int</text></g></g><g transform="translate(-70,-30) scale(1,1)"><rect fill="#C0C0C0" height="24" opacity="0.2" stroke="none" width="73.30810546875" x="127" y="223"/></g><g transform="translate(-70,-30) scale(1,1)"><rect fill="#ffffff" height="24" stroke="none" width="73.30810546875" x="120" y="216"/></g><g transform="translate(-70,-30) scale(1,1)"><path d="M 120 216 L 193.30810546875 216 L 193.30810546875 240 L 120 240 L 120 216 Z Z" fill="none" stroke="#000000" stroke-miterlimit="10"/></g><g transform="translate(-70,-30) scale(1,1)"><rect fill="#ffffff" height="24" stroke="none" width="73.30810546875" x="120" y="216"/></g><g transform="translate(-70,-30) scale(1,1)"><path d="M 120 216 L 193.30810546875 216 L 193.30810546875 240 L 120 240 L 120 216 Z Z" fill="none" stroke="#000000" stroke-miterlimit="10"/></g><g transform="translate(-70,-30) scale(1,1)"><g><path fill="none" stroke="none"/><text fill="#000000" font-family="Arial" font-size="13px" font-style="normal" font-weight="bold" stroke="none" text-decoration="none" x="124.5" y="234">Recruiters</text><path d="M 188.80810546875 235.5 L 124.5 235.5" fill="none" stroke="#000000" stroke-miterlimit="10"/></g></g><g transform="translate(-70,-30) scale(1,1)"><rect fill="#C0C0C0" height="24" opacity="0.2" stroke="none" width="79.07177734375" x="351" y="215"/></g><g transform="translate(-70,-30) scale(1,1)"><rect fill="#ffffff" height="24" stroke="none" width="79.07177734375" x="344" y="208"/></g><g transform="translate(-70,-30) scale(1,1)"><path d="M 344 208 L 423.07177734375 208 L 423.07177734375 232 L 344 232 L 344 208 Z Z" fill="none" stroke="#000000" stroke-miterlimit="10"/></g><g transform="translate(-70,-30) scale(1,1)"><rect fill="#ffffff" height="24" stroke="none" width="79.07177734375" x="344" y="208"/></g><g transform="translate(-70,-30) scale(1,1)"><path d="M 344 208 L 423.07177734375 208 L 423.07177734375 232 L 344 232 L 344 208 Z Z" fill="none" stroke="#000000" stroke-miterlimit="10"/></g><g transform="translate(-70,-30) scale(1,1)"><g><path fill="none" stroke="none"/><text fill="#000000" font-family="Arial" font-size="13px" font-style="normal" font-weight="bold" stroke="none" text-decoration="none" x="348.5" y="226">Candidates</text><path d="M 418.57177734375 227.5 L 348.5 227.5" fill="none" stroke="#000000" stroke-miterlimit="10"/></g></g><g transform="translate(-70,-30) scale(1,1)"><rect fill="#C0C0C0" height="24" opacity="0.2" stroke="none" width="149.1435546875" x="543" y="215"/></g><g transform="translate(-70,-30) scale(1,1)"><rect fill="#ffffff" height="24" stroke="none" width="149.1435546875" x="536" y="208"/></g><g transform="translate(-70,-30) scale(1,1)"><path d="M 536 208 L 685.1435546875 208 L 685.1435546875 232 L 536 232 L 536 208 Z Z" fill="none" stroke="#000000" stroke-miterlimit="10"/></g><g transform="translate(-70,-30) scale(1,1)"><rect fill="#ffffff" height="24" stroke="none" width="149.1435546875" x="536" y="208"/></g><g transform="translate(-70,-30) scale(1,1)"><path d="M 536 208 L 685.1435546875 208 L 685.1435546875 232 L 536 232 L 536 208 Z Z" fill="none" stroke="#000000" stroke-miterlimit="10"/></g><g transform="translate(-70,-30) scale(1,1)"><g><path fill="none" stroke="none"/><text fill="#000000" font-family="Arial" font-size="13px" font-style="normal" font-weight="bold" stroke="none" text-decoration="none" x="540.5" y="226">Candidate_Job_Status</text><path d="M 680.6435546875 227.5 L 540.5 227.5" fill="none" stroke="#000000" stroke-miterlimit="10"/></g></g><g transform="translate(-70,-30) scale(1,1)"><rect fill="#C0C0C0" height="24" opacity="0.2" stroke="none" width="56.68359375" x="823" y="215"/></g><g transform="translate(-70,-30) scale(1,1)"><rect fill="#ffffff" height="24" stroke="none" width="56.68359375" x="816" y="208"/></g><g transform="translate(-70,-30) scale(1,1)"><path d="M 816 208 L 872.68359375 208 L 872.68359375 232 L 816 232 L 816 208 Z Z" fill="none" stroke="#000000" stroke-miterlimit="10"/></g><g transform="translate(-70,-30) scale(1,1)"><rect fill="#ffffff" height="24" stroke="none" width="56.68359375" x="816" y="208"/></g><g transform="translate(-70,-30) scale(1,1)"><path d="M 816 208 L 872.68359375 208 L 872.68359375 232 L 816 232 L 816 208 Z Z" fill="none" stroke="#000000" stroke-miterlimit="10"/></g><g transform="translate(-70,-30) scale(1,1)"><g><path fill="none" stroke="none"/><text fill="#000000" font-family="Arial" font-size="13px" font-style="normal" font-weight="bold" stroke="none" text-decoration="none" x="829.1708984375" y="226">Jobs</text><path d="M 859.5126953125 227.5 L 829.1708984375 227.5" fill="none" stroke="#000000" stroke-miterlimit="10"/></g></g><g transform="translate(-70,-30) scale(1,1)"><path d="M 154 241 L 148 295" fill="none" stroke="#000000" stroke-miterlimit="10"/></g><g transform="translate(-70,-30) scale(1,1)"><path d="M 383 233 L 381 295" fill="none" stroke="#000000" stroke-miterlimit="10"/></g><g transform="translate(-70,-30) scale(1,1)"><path d="M 611 233 L 618 295" fill="none" stroke="#000000" stroke-miterlimit="10"/></g><g transform="translate(-70,-30) scale(1,1)"><path d="M 845 233 L 851 295" fill="none" stroke="#000000" stroke-miterlimit="10"/></g><g transform="translate(-70,-30) scale(1,1)"><rect fill="#C0C0C0" height="24" opacity="0.2" stroke="none" width="115.21533203125" x="415" y="47"/></g><g transform="translate(-70,-30) scale(1,1)"><rect fill="#ffffff" height="24" stroke="none" width="115.21533203125" x="408" y="40"/></g><g transform="translate(-70,-30) scale(1,1)"><path d="M 408 40 L 523.21533203125 40 L 523.21533203125 64 L 408 64 L 408 40 Z Z" fill="none" stroke="#000000" stroke-miterlimit="10"/></g><g transform="translate(-70,-30) scale(1,1)"><rect fill="#ffffff" height="24" stroke="none" width="115.21533203125" x="408" y="40"/></g><g transform="translate(-70,-30) scale(1,1)"><path d="M 408 40 L 523.21533203125 40 L 523.21533203125 64 L 408 64 L 408 40 Z Z" fill="none" stroke="#000000" stroke-miterlimit="10"/></g><g transform="translate(-70,-30) scale(1,1)"><g><path fill="none" stroke="none"/><text fill="#000000" font-family="Arial" font-size="13px" font-style="normal" font-weight="bold" stroke="none" text-decoration="none" x="412.5" y="58">Firebase_objects</text><path d="M 518.71533203125 59.5 L 412.5 59.5" fill="none" stroke="#000000" stroke-miterlimit="10"/></g></g><g transform="translate(-70,-30) scale(1,1)"><path d="M 442 65 L 179 215" fill="none" stroke="#000000" stroke-miterlimit="10"/></g><g transform="translate(-70,-30) scale(1,1)"><path d="M 459 65 L 389 207" fill="none" stroke="#000000" stroke-miterlimit="10"/></g><g transform="translate(-70,-30) scale(1,1)"><path d="M 476 65 L 599 207" fill="none" stroke="#000000" stroke-miterlimit="10"/></g><g transform="translate(-70,-30) scale(1,1)"><path d="M 494 65 L 815 207" fill="none" stroke="#000000" stroke-miterlimit="10"/></g></g></svg>