<?xml version="1.0" encoding="UTF-8" standalone="no"?><svg xmlns="http://www.w3.org/2000/svg" xmlns:xlink="http://www.w3.org/1999/xlink" height="427" version="1.1" width="929.5625"><defs/><g><g transform="translate(2,-6) scale(1,1)"><rect fill="#C0C0C0" height="104" opacity="0.2" stroke="none" width="125.6953125" x="15" y="231"/></g><g transform="translate(2,-6) scale(1,1)"><rect fill="#ffffff" height="104" stroke="none" width="125.6953125" x="8" y="224"/></g><g transform="translate(2,-6) scale(1,1)"><path d="M 8 224 L 133.6953125 224 L 133.6953125 328 L 8 328 L 8 224 Z Z" fill="none" stroke="#000000" stroke-miterlimit="10"/></g><g transform="translate(2,-6) scale(1,1)"><rect fill="#ffffff" height="104" stroke="none" width="125.6953125" x="8" y="224"/></g><g transform="translate(2,-6) scale(1,1)"><path d="M 8 224 L 133.6953125 224 L 133.6953125 328 L 8 328 L 8 224 Z Z" fill="none" stroke="#000000" stroke-miterlimit="10"/></g><g transform="translate(2,-6) scale(1,1)"><path d="M 8 249 L 133.6953125 249" fill="none" stroke="#000000" stroke-miterlimit="10"/></g><g transform="translate(2,-6) scale(1,1)"><g><path fill="none" stroke="none"/><text fill="#000000" font-family="Arial" font-size="13px" font-style="normal" font-weight="bold" stroke="none" text-decoration="none" x="42.30859375" y="242">Recruiter</text><path d="M 99.38671875 243.5 L 42.30859375 243.5" fill="none" stroke="#000000" stroke-miterlimit="10"/></g></g><g transform="translate(2,-6) scale(1,1)"><g><path fill="none" stroke="none"/><text fill="#000000" font-family="Arial" font-size="13px" font-style="normal" font-weight="normal" stroke="none" text-decoration="none" x="13" y="265">+user_name: string</text></g></g><g transform="translate(2,-6) scale(1,1)"><g><path fill="none" stroke="none"/><text fill="#000000" font-family="Arial" font-size="13px" font-style="normal" font-weight="normal" stroke="none" text-decoration="none" x="13" y="280">+first_name: string</text></g></g><g transform="translate(2,-6) scale(1,1)"><g><path fill="none" stroke="none"/><text fill="#000000" font-family="Arial" font-size="13px" font-style="normal" font-weight="normal" stroke="none" text-decoration="none" x="13" y="295">+last_name</text></g></g><g transform="translate(2,-6) scale(1,1)"><g><path fill="none" stroke="none"/><text fill="#000000" font-family="Arial" font-size="13px" font-style="normal" font-weight="normal" stroke="none" text-decoration="none" x="13" y="310">+regions: List[string]</text></g></g><g transform="translate(2,-6) scale(1,1)"><rect fill="#C0C0C0" height="137" opacity="0.2" stroke="none" width="199.4296875" x="151" y="231"/></g><g transform="translate(2,-6) scale(1,1)"><rect fill="#ffffff" height="137" stroke="none" width="199.4296875" x="144" y="224"/></g><g transform="translate(2,-6) scale(1,1)"><path d="M 144 224 L 343.4296875 224 L 343.4296875 361 L 144 361 L 144 224 Z Z" fill="none" stroke="#000000" stroke-miterlimit="10"/></g><g transform="translate(2,-6) scale(1,1)"><rect fill="#ffffff" height="137" stroke="none" width="199.4296875" x="144" y="224"/></g><g transform="translate(2,-6) scale(1,1)"><path d="M 144 224 L 343.4296875 224 L 343.4296875 361 L 144 361 L 144 224 Z Z" fill="none" stroke="#000000" stroke-miterlimit="10"/></g><g transform="translate(2,-6) scale(1,1)"><path d="M 144 249 L 343.4296875 249" fill="none" stroke="#000000" stroke-miterlimit="10"/></g><g transform="translate(2,-6) scale(1,1)"><g><path fill="none" stroke="none"/><text fill="#000000" font-family="Arial" font-size="13px" font-style="normal" font-weight="bold" stroke="none" text-decoration="none" x="212.2939453125" y="242">Candidate</text><path d="M 275.1357421875 243.5 L 212.2939453125 243.5" fill="none" stroke="#000000" stroke-miterlimit="10"/></g></g><g transform="translate(2,-6) scale(1,1)"><g><path fill="none" stroke="none"/><text fill="#000000" font-family="Arial" font-size="13px" font-style="normal" font-weight="normal" stroke="none" text-decoration="none" x="149" y="265">+id: string</text></g></g><g transform="translate(2,-6) scale(1,1)"><g><path fill="none" stroke="none"/><text fill="#000000" font-family="Arial" font-size="13px" font-style="normal" font-weight="normal" stroke="none" text-decoration="none" x="149" y="280">+first_name: string</text></g></g><g transform="translate(2,-6) scale(1,1)"><g><path fill="none" stroke="none"/><text fill="#000000" font-family="Arial" font-size="13px" font-style="normal" font-weight="normal" stroke="none" text-decoration="none" x="149" y="295">+last_name: string</text></g></g><g transform="translate(2,-6) scale(1,1)"><g><path fill="none" stroke="none"/><text fill="#000000" font-family="Arial" font-size="13px" font-style="normal" font-weight="normal" stroke="none" text-decoration="none" x="149" y="310">+email: string</text></g></g><g transform="translate(2,-6) scale(1,1)"><g><path fill="none" stroke="none"/><text fill="#000000" font-family="Arial" font-size="13px" font-style="normal" font-weight="normal" stroke="none" text-decoration="none" x="149" y="325">+jobs: List[Candidate_JobStatus]</text></g></g><g transform="translate(2,-6) scale(1,1)"><g><path fill="none" stroke="none"/><text fill="#000000" font-family="Arial" font-size="13px" font-style="normal" font-weight="normal" stroke="none" text-decoration="none" x="149" y="340">+phone: string</text></g></g><g transform="translate(2,-6) scale(1,1)"><g><path fill="none" stroke="none"/><text fill="#000000" font-family="Arial" font-size="13px" font-style="normal" font-weight="normal" stroke="none" text-decoration="none" x="149" y="355">+cv: to_determine</text></g></g><g transform="translate(2,-6) scale(1,1)"><rect fill="#C0C0C0" height="107" opacity="0.2" stroke="none" width="146.24267578125" x="367" y="255"/></g><g transform="translate(2,-6) scale(1,1)"><rect fill="#ffffff" height="107" stroke="none" width="146.24267578125" x="360" y="248"/></g><g transform="translate(2,-6) scale(1,1)"><path d="M 360 248 L 506.24267578125 248 L 506.24267578125 355 L 360 355 L 360 248 Z Z" fill="none" stroke="#000000" stroke-miterlimit="10"/></g><g transform="translate(2,-6) scale(1,1)"><rect fill="#ffffff" height="107" stroke="none" width="146.24267578125" x="360" y="248"/></g><g transform="translate(2,-6) scale(1,1)"><path d="M 360 248 L 506.24267578125 248 L 506.24267578125 355 L 360 355 L 360 248 Z Z" fill="none" stroke="#000000" stroke-miterlimit="10"/></g><g transform="translate(2,-6) scale(1,1)"><path d="M 360 273 L 506.24267578125 273" fill="none" stroke="#000000" stroke-miterlimit="10"/></g><g transform="translate(2,-6) scale(1,1)"><g><path fill="none" stroke="none"/><text fill="#000000" font-family="Arial" font-size="13px" font-style="normal" font-weight="bold" stroke="none" text-decoration="none" x="364.5" y="266">Candidate-Job_Status</text><path d="M 501.74267578125 267.5 L 364.5 267.5" fill="none" stroke="#000000" stroke-miterlimit="10"/></g></g><g transform="translate(2,-6) scale(1,1)"><g><path fill="none" stroke="none"/><text fill="#000000" font-family="Arial" font-size="13px" font-style="normal" font-weight="normal" stroke="none" text-decoration="none" x="365" y="289">+job_id: string</text></g></g><g transform="translate(2,-6) scale(1,1)"><g><path fill="none" stroke="none"/><text fill="#000000" font-family="Arial" font-size="13px" font-style="normal" font-weight="normal" stroke="none" text-decoration="none" x="365" y="304">+candidate_id: string</text></g></g><g transform="translate(2,-6) scale(1,1)"><g><path fill="none" stroke="none"/><text fill="#000000" font-family="Arial" font-size="13px" font-style="normal" font-weight="normal" stroke="none" text-decoration="none" x="365" y="319">+status: string</text></g></g><g transform="translate(2,-6) scale(1,1)"><g><path fill="none" stroke="none"/><text fill="#000000" font-family="Arial" font-size="13px" font-style="normal" font-weight="normal" stroke="none" text-decoration="none" x="365" y="334">+matching_rate: int</text></g></g><g transform="translate(2,-6) scale(1,1)"><g><path fill="none" stroke="none"/><text fill="#000000" font-family="Arial" font-size="13px" font-style="normal" font-weight="normal" stroke="none" text-decoration="none" x="365" y="349">+Apply_date: date</text></g></g><g transform="translate(2,-6) scale(1,1)"><rect fill="#C0C0C0" height="167" opacity="0.2" stroke="none" width="164.0224609375" x="527" y="263"/></g><g transform="translate(2,-6) scale(1,1)"><rect fill="#ffffff" height="167" stroke="none" width="164.0224609375" x="520" y="256"/></g><g transform="translate(2,-6) scale(1,1)"><path d="M 520 256 L 684.0224609375 256 L 684.0224609375 423 L 520 423 L 520 256 Z Z" fill="none" stroke="#000000" stroke-miterlimit="10"/></g><g transform="translate(2,-6) scale(1,1)"><rect fill="#ffffff" height="167" stroke="none" width="164.0224609375" x="520" y="256"/></g><g transform="translate(2,-6) scale(1,1)"><path d="M 520 256 L 684.0224609375 256 L 684.0224609375 423 L 520 423 L 520 256 Z Z" fill="none" stroke="#000000" stroke-miterlimit="10"/></g><g transform="translate(2,-6) scale(1,1)"><path d="M 520 281 L 684.0224609375 281" fill="none" stroke="#000000" stroke-miterlimit="10"/></g><g transform="translate(2,-6) scale(1,1)"><g><path fill="none" stroke="none"/><text fill="#000000" font-family="Arial" font-size="13px" font-style="normal" font-weight="bold" stroke="none" text-decoration="none" x="590.455322265625" y="274">Job</text><path d="M 613.567138671875 275.5 L 590.455322265625 275.5" fill="none" stroke="#000000" stroke-miterlimit="10"/></g></g><g transform="translate(2,-6) scale(1,1)"><g><path fill="none" stroke="none"/><text fill="#000000" font-family="Arial" font-size="13px" font-style="normal" font-weight="normal" stroke="none" text-decoration="none" x="525" y="297">+id: string</text></g></g><g transform="translate(2,-6) scale(1,1)"><g><path fill="none" stroke="none"/><text fill="#000000" font-family="Arial" font-size="13px" font-style="normal" font-weight="normal" stroke="none" text-decoration="none" x="525" y="312">+role: string</text></g></g><g transform="translate(2,-6) scale(1,1)"><g><path fill="none" stroke="none"/><text fill="#000000" font-family="Arial" font-size="13px" font-style="normal" font-weight="normal" stroke="none" text-decoration="none" x="525" y="327">+scope: int[2]</text></g></g><g transform="translate(2,-6) scale(1,1)"><g><path fill="none" stroke="none"/><text fill="#000000" font-family="Arial" font-size="13px" font-style="normal" font-weight="normal" stroke="none" text-decoration="none" x="525" y="342">+region: string</text></g></g><g transform="translate(2,-6) scale(1,1)"><g><path fill="none" stroke="none"/><text fill="#000000" font-family="Arial" font-size="13px" font-style="normal" font-weight="normal" stroke="none" text-decoration="none" x="525" y="357">+title: string</text></g></g><g transform="translate(2,-6) scale(1,1)"><g><path fill="none" stroke="none"/><text fill="#000000" font-family="Arial" font-size="13px" font-style="normal" font-weight="normal" stroke="none" text-decoration="none" x="525" y="372">+description: string</text></g></g><g transform="translate(2,-6) scale(1,1)"><g><path fill="none" stroke="none"/><text fill="#000000" font-family="Arial" font-size="13px" font-style="normal" font-weight="normal" stroke="none" text-decoration="none" x="525" y="387">+requirements: string</text></g></g><g transform="translate(2,-6) scale(1,1)"><g><path fill="none" stroke="none"/><text fill="#000000" font-family="Arial" font-size="13px" font-style="normal" font-weight="normal" stroke="none" text-decoration="none" x="525" y="402">+candidate: List[Job_state]</text></g></g><g transform="translate(2,-6) scale(1,1)"><g><path fill="none" stroke="none"/><text fill="#000000" font-family="Arial" font-size="13px" font-style="normal" font-weight="normal" stroke="none" text-decoration="none" x="525" y="417">+job_state: string</text></g></g><g transform="translate(2,-6) scale(1,1)"><rect fill="#C0C0C0" height="62" opacity="0.2" stroke="none" width="149.5625" x="775" y="135"/></g><g transform="translate(2,-6) scale(1,1)"><rect fill="#ffffff" height="62" stroke="none" width="149.5625" x="768" y="128"/></g><g transform="translate(2,-6) scale(1,1)"><path d="M 768 128 L 917.5625 128 L 917.5625 190 L 768 190 L 768 128 Z Z" fill="none" stroke="#000000" stroke-miterlimit="10"/></g><g transform="translate(2,-6) scale(1,1)"><rect fill="#ffffff" height="62" stroke="none" width="149.5625" x="768" y="128"/></g><g transform="translate(2,-6) scale(1,1)"><path d="M 768 128 L 917.5625 128 L 917.5625 190 L 768 190 L 768 128 Z Z" fill="none" stroke="#000000" stroke-miterlimit="10"/></g><g transform="translate(2,-6) scale(1,1)"><path d="M 768 153 L 917.5625 153" fill="none" stroke="#000000" stroke-miterlimit="10"/></g><g transform="translate(2,-6) scale(1,1)"><g><path fill="none" stroke="none"/><text fill="#000000" font-family="Arial" font-size="13px" font-style="normal" font-weight="bold" stroke="none" text-decoration="none" x="790.755859375" y="146">Global_variables</text><path d="M 894.806640625 147.5 L 790.755859375 147.5" fill="none" stroke="#000000" stroke-miterlimit="10"/></g></g><g transform="translate(2,-6) scale(1,1)"><g><path fill="none" stroke="none"/><text fill="#000000" font-family="Arial" font-size="13px" font-style="normal" font-weight="normal" stroke="none" text-decoration="none" x="773" y="169">+first_job_title: string</text></g></g><g transform="translate(2,-6) scale(1,1)"><g><path fill="none" stroke="none"/><text fill="#000000" font-family="Arial" font-size="13px" font-style="normal" font-weight="normal" stroke="none" text-decoration="none" x="773" y="184">+second_job_title: string</text></g></g><g transform="translate(2,-6) scale(1,1)"><rect fill="#C0C0C0" height="24" opacity="0.2" stroke="none" width="73.30810546875" x="39" y="135"/></g><g transform="translate(2,-6) scale(1,1)"><rect fill="#ffffff" height="24" stroke="none" width="73.30810546875" x="32" y="128"/></g><g transform="translate(2,-6) scale(1,1)"><path d="M 32 128 L 105.30810546875 128 L 105.30810546875 152 L 32 152 L 32 128 Z Z" fill="none" stroke="#000000" stroke-miterlimit="10"/></g><g transform="translate(2,-6) scale(1,1)"><rect fill="#ffffff" height="24" stroke="none" width="73.30810546875" x="32" y="128"/></g><g transform="translate(2,-6) scale(1,1)"><path d="M 32 128 L 105.30810546875 128 L 105.30810546875 152 L 32 152 L 32 128 Z Z" fill="none" stroke="#000000" stroke-miterlimit="10"/></g><g transform="translate(2,-6) scale(1,1)"><g><path fill="none" stroke="none"/><text fill="#000000" font-family="Arial" font-size="13px" font-style="normal" font-weight="bold" stroke="none" text-decoration="none" x="36.5" y="146">Recruiters</text><path d="M 100.80810546875 147.5 L 36.5 147.5" fill="none" stroke="#000000" stroke-miterlimit="10"/></g></g><g transform="translate(2,-6) scale(1,1)"><rect fill="#C0C0C0" height="24" opacity="0.2" stroke="none" width="79.07177734375" x="215" y="135"/></g><g transform="translate(2,-6) scale(1,1)"><rect fill="#ffffff" height="24" stroke="none" width="79.07177734375" x="208" y="128"/></g><g transform="translate(2,-6) scale(1,1)"><path d="M 208 128 L 287.07177734375 128 L 287.07177734375 152 L 208 152 L 208 128 Z Z" fill="none" stroke="#000000" stroke-miterlimit="10"/></g><g transform="translate(2,-6) scale(1,1)"><rect fill="#ffffff" height="24" stroke="none" width="79.07177734375" x="208" y="128"/></g><g transform="translate(2,-6) scale(1,1)"><path d="M 208 128 L 287.07177734375 128 L 287.07177734375 152 L 208 152 L 208 128 Z Z" fill="none" stroke="#000000" stroke-miterlimit="10"/></g><g transform="translate(2,-6) scale(1,1)"><g><path fill="none" stroke="none"/><text fill="#000000" font-family="Arial" font-size="13px" font-style="normal" font-weight="bold" stroke="none" text-decoration="none" x="212.5" y="146">Candidates</text><path d="M 282.57177734375 147.5 L 212.5 147.5" fill="none" stroke="#000000" stroke-miterlimit="10"/></g></g><g transform="translate(2,-6) scale(1,1)"><rect fill="#C0C0C0" height="24" opacity="0.2" stroke="none" width="146.24267578125" x="375" y="143"/></g><g transform="translate(2,-6) scale(1,1)"><rect fill="#ffffff" height="24" stroke="none" width="146.24267578125" x="368" y="136"/></g><g transform="translate(2,-6) scale(1,1)"><path d="M 368 136 L 514.24267578125 136 L 514.24267578125 160 L 368 160 L 368 136 Z Z" fill="none" stroke="#000000" stroke-miterlimit="10"/></g><g transform="translate(2,-6) scale(1,1)"><rect fill="#ffffff" height="24" stroke="none" width="146.24267578125" x="368" y="136"/></g><g transform="translate(2,-6) scale(1,1)"><path d="M 368 136 L 514.24267578125 136 L 514.24267578125 160 L 368 160 L 368 136 Z Z" fill="none" stroke="#000000" stroke-miterlimit="10"/></g><g transform="translate(2,-6) scale(1,1)"><g><path fill="none" stroke="none"/><text fill="#000000" font-family="Arial" font-size="13px" font-style="normal" font-weight="bold" stroke="none" text-decoration="none" x="372.5" y="154">Candidate-Job_Status</text><path d="M 509.74267578125 155.5 L 372.5 155.5" fill="none" stroke="#000000" stroke-miterlimit="10"/></g></g><g transform="translate(2,-6) scale(1,1)"><rect fill="#C0C0C0" height="24" opacity="0.2" stroke="none" width="56.68359375" x="583" y="143"/></g><g transform="translate(2,-6) scale(1,1)"><rect fill="#ffffff" height="24" stroke="none" width="56.68359375" x="576" y="136"/></g><g transform="translate(2,-6) scale(1,1)"><path d="M 576 136 L 632.68359375 136 L 632.68359375 160 L 576 160 L 576 136 Z Z" fill="none" stroke="#000000" stroke-miterlimit="10"/></g><g transform="translate(2,-6) scale(1,1)"><rect fill="#ffffff" height="24" stroke="none" width="56.68359375" x="576" y="136"/></g><g transform="translate(2,-6) scale(1,1)"><path d="M 576 136 L 632.68359375 136 L 632.68359375 160 L 576 160 L 576 136 Z Z" fill="none" stroke="#000000" stroke-miterlimit="10"/></g><g transform="translate(2,-6) scale(1,1)"><g><path fill="none" stroke="none"/><text fill="#000000" font-family="Arial" font-size="13px" font-style="normal" font-weight="bold" stroke="none" text-decoration="none" x="589.1708984375" y="154">Jobs</text><path d="M 619.5126953125 155.5 L 589.1708984375 155.5" fill="none" stroke="#000000" stroke-miterlimit="10"/></g></g><g transform="translate(2,-6) scale(1,1)"><path d="M 68 153 L 69 223" fill="none" stroke="#000000" stroke-miterlimit="10"/></g><g transform="translate(2,-6) scale(1,1)"><path d="M 247 153 L 245 223" fill="none" stroke="#000000" stroke-miterlimit="10"/></g><g transform="translate(2,-6) scale(1,1)"><path d="M 440 161 L 436 247" fill="none" stroke="#000000" stroke-miterlimit="10"/></g><g transform="translate(2,-6) scale(1,1)"><path d="M 604 161 L 603 255" fill="none" stroke="#000000" stroke-miterlimit="10"/></g><g transform="translate(2,-6) scale(1,1)"><rect fill="#C0C0C0" height="24" opacity="0.2" stroke="none" width="115.21533203125" x="447" y="23"/></g><g transform="translate(2,-6) scale(1,1)"><rect fill="#ffffff" height="24" stroke="none" width="115.21533203125" x="440" y="16"/></g><g transform="translate(2,-6) scale(1,1)"><path d="M 440 16 L 555.21533203125 16 L 555.21533203125 40 L 440 40 L 440 16 Z Z" fill="none" stroke="#000000" stroke-miterlimit="10"/></g><g transform="translate(2,-6) scale(1,1)"><rect fill="#ffffff" height="24" stroke="none" width="115.21533203125" x="440" y="16"/></g><g transform="translate(2,-6) scale(1,1)"><path d="M 440 16 L 555.21533203125 16 L 555.21533203125 40 L 440 40 L 440 16 Z Z" fill="none" stroke="#000000" stroke-miterlimit="10"/></g><g transform="translate(2,-6) scale(1,1)"><g><path fill="none" stroke="none"/><text fill="#000000" font-family="Arial" font-size="13px" font-style="normal" font-weight="bold" stroke="none" text-decoration="none" x="444.5" y="34">Firebase_objects</text><path d="M 550.71533203125 35.5 L 444.5 35.5" fill="none" stroke="#000000" stroke-miterlimit="10"/></g></g><g transform="translate(2,-6) scale(1,1)"><path d="M 447 41 L 106 130" fill="none" stroke="#000000" stroke-miterlimit="10"/></g><g transform="translate(2,-6) scale(1,1)"><path d="M 468 41 L 276 127" fill="none" stroke="#000000" stroke-miterlimit="10"/></g><g transform="translate(2,-6) scale(1,1)"><path d="M 491 41 L 447 135" fill="none" stroke="#000000" stroke-miterlimit="10"/></g><g transform="translate(2,-6) scale(1,1)"><path d="M 509 41 L 592 135" fill="none" stroke="#000000" stroke-miterlimit="10"/></g><g transform="translate(2,-6) scale(1,1)"><path d="M 531 41 L 767 131" fill="none" stroke="#000000" stroke-miterlimit="10"/></g></g></svg>