<?xml version="1.0" encoding="UTF-8" standalone="no"?><svg xmlns="http://www.w3.org/2000/svg" xmlns:xlink="http://www.w3.org/1999/xlink" height="428" version="1.1" width="696.0224609375"><defs/><g><g transform="translate(-246,-102) scale(1,1)"><rect fill="#C0C0C0" height="107" opacity="0.2" stroke="none" width="125.6953125" x="263" y="327"/></g><g transform="translate(-246,-102) scale(1,1)"><rect fill="#ffffff" height="107" stroke="none" width="125.6953125" x="256" y="320"/></g><g transform="translate(-246,-102) scale(1,1)"><path d="M 256 320 L 381.6953125 320 L 381.6953125 427 L 256 427 L 256 320 Z Z" fill="none" stroke="#000000" stroke-miterlimit="10"/></g><g transform="translate(-246,-102) scale(1,1)"><rect fill="#ffffff" height="107" stroke="none" width="125.6953125" x="256" y="320"/></g><g transform="translate(-246,-102) scale(1,1)"><path d="M 256 320 L 381.6953125 320 L 381.6953125 427 L 256 427 L 256 320 Z Z" fill="none" stroke="#000000" stroke-miterlimit="10"/></g><g transform="translate(-246,-102) scale(1,1)"><path d="M 256 345 L 381.6953125 345" fill="none" stroke="#000000" stroke-miterlimit="10"/></g><g transform="translate(-246,-102) scale(1,1)"><g><path fill="none" stroke="none"/><text fill="#000000" font-family="Arial" font-size="13px" font-style="normal" font-weight="bold" stroke="none" text-decoration="none" x="290.30859375" y="338">Recruiter</text><path d="M 347.38671875 339.5 L 290.30859375 339.5" fill="none" stroke="#000000" stroke-miterlimit="10"/></g></g><g transform="translate(-246,-102) scale(1,1)"><g><path fill="none" stroke="none"/><text fill="#000000" font-family="Arial" font-size="13px" font-style="normal" font-weight="normal" stroke="none" text-decoration="none" x="261" y="361">+id: string</text></g></g><g transform="translate(-246,-102) scale(1,1)"><g><path fill="none" stroke="none"/><text fill="#000000" font-family="Arial" font-size="13px" font-style="normal" font-weight="normal" stroke="none" text-decoration="none" x="261" y="376">+user_name: string</text></g></g><g transform="translate(-246,-102) scale(1,1)"><g><path fill="none" stroke="none"/><text fill="#000000" font-family="Arial" font-size="13px" font-style="normal" font-weight="normal" stroke="none" text-decoration="none" x="261" y="391">+first_name: string</text></g></g><g transform="translate(-246,-102) scale(1,1)"><g><path fill="none" stroke="none"/><text fill="#000000" font-family="Arial" font-size="13px" font-style="normal" font-weight="normal" stroke="none" text-decoration="none" x="261" y="406">+last_name</text></g></g><g transform="translate(-246,-102) scale(1,1)"><g><path fill="none" stroke="none"/><text fill="#000000" font-family="Arial" font-size="13px" font-style="normal" font-weight="normal" stroke="none" text-decoration="none" x="261" y="421">+regions: List[string]</text></g></g><g transform="translate(-246,-102) scale(1,1)"><rect fill="#C0C0C0" height="137" opacity="0.2" stroke="none" width="199.4296875" x="399" y="327"/></g><g transform="translate(-246,-102) scale(1,1)"><rect fill="#ffffff" height="137" stroke="none" width="199.4296875" x="392" y="320"/></g><g transform="translate(-246,-102) scale(1,1)"><path d="M 392 320 L 591.4296875 320 L 591.4296875 457 L 392 457 L 392 320 Z Z" fill="none" stroke="#000000" stroke-miterlimit="10"/></g><g transform="translate(-246,-102) scale(1,1)"><rect fill="#ffffff" height="137" stroke="none" width="199.4296875" x="392" y="320"/></g><g transform="translate(-246,-102) scale(1,1)"><path d="M 392 320 L 591.4296875 320 L 591.4296875 457 L 392 457 L 392 320 Z Z" fill="none" stroke="#000000" stroke-miterlimit="10"/></g><g transform="translate(-246,-102) scale(1,1)"><path d="M 392 345 L 591.4296875 345" fill="none" stroke="#000000" stroke-miterlimit="10"/></g><g transform="translate(-246,-102) scale(1,1)"><g><path fill="none" stroke="none"/><text fill="#000000" font-family="Arial" font-size="13px" font-style="normal" font-weight="bold" stroke="none" text-decoration="none" x="460.2939453125" y="338">Candidate</text><path d="M 523.1357421875 339.5 L 460.2939453125 339.5" fill="none" stroke="#000000" stroke-miterlimit="10"/></g></g><g transform="translate(-246,-102) scale(1,1)"><g><path fill="none" stroke="none"/><text fill="#000000" font-family="Arial" font-size="13px" font-style="normal" font-weight="normal" stroke="none" text-decoration="none" x="397" y="361">+id: string</text></g></g><g transform="translate(-246,-102) scale(1,1)"><g><path fill="none" stroke="none"/><text fill="#000000" font-family="Arial" font-size="13px" font-style="normal" font-weight="normal" stroke="none" text-decoration="none" x="397" y="376">+first_name: string</text></g></g><g transform="translate(-246,-102) scale(1,1)"><g><path fill="none" stroke="none"/><text fill="#000000" font-family="Arial" font-size="13px" font-style="normal" font-weight="normal" stroke="none" text-decoration="none" x="397" y="391">+last_name: string</text></g></g><g transform="translate(-246,-102) scale(1,1)"><g><path fill="none" stroke="none"/><text fill="#000000" font-family="Arial" font-size="13px" font-style="normal" font-weight="normal" stroke="none" text-decoration="none" x="397" y="406">+email: string</text></g></g><g transform="translate(-246,-102) scale(1,1)"><g><path fill="none" stroke="none"/><text fill="#000000" font-family="Arial" font-size="13px" font-style="normal" font-weight="normal" stroke="none" text-decoration="none" x="397" y="421">+jobs: List[Candidate_JobStatus]</text></g></g><g transform="translate(-246,-102) scale(1,1)"><g><path fill="none" stroke="none"/><text fill="#000000" font-family="Arial" font-size="13px" font-style="normal" font-weight="normal" stroke="none" text-decoration="none" x="397" y="436">+phone: string</text></g></g><g transform="translate(-246,-102) scale(1,1)"><g><path fill="none" stroke="none"/><text fill="#000000" font-family="Arial" font-size="13px" font-style="normal" font-weight="normal" stroke="none" text-decoration="none" x="397" y="451">+cv: to_determine</text></g></g><g transform="translate(-246,-102) scale(1,1)"><rect fill="#C0C0C0" height="107" opacity="0.2" stroke="none" width="146.24267578125" x="615" y="327"/></g><g transform="translate(-246,-102) scale(1,1)"><rect fill="#ffffff" height="107" stroke="none" width="146.24267578125" x="608" y="320"/></g><g transform="translate(-246,-102) scale(1,1)"><path d="M 608 320 L 754.24267578125 320 L 754.24267578125 427 L 608 427 L 608 320 Z Z" fill="none" stroke="#000000" stroke-miterlimit="10"/></g><g transform="translate(-246,-102) scale(1,1)"><rect fill="#ffffff" height="107" stroke="none" width="146.24267578125" x="608" y="320"/></g><g transform="translate(-246,-102) scale(1,1)"><path d="M 608 320 L 754.24267578125 320 L 754.24267578125 427 L 608 427 L 608 320 Z Z" fill="none" stroke="#000000" stroke-miterlimit="10"/></g><g transform="translate(-246,-102) scale(1,1)"><path d="M 608 345 L 754.24267578125 345" fill="none" stroke="#000000" stroke-miterlimit="10"/></g><g transform="translate(-246,-102) scale(1,1)"><g><path fill="none" stroke="none"/><text fill="#000000" font-family="Arial" font-size="13px" font-style="normal" font-weight="bold" stroke="none" text-decoration="none" x="612.5" y="338">Candidate-Job_Status</text><path d="M 749.74267578125 339.5 L 612.5 339.5" fill="none" stroke="#000000" stroke-miterlimit="10"/></g></g><g transform="translate(-246,-102) scale(1,1)"><g><path fill="none" stroke="none"/><text fill="#000000" font-family="Arial" font-size="13px" font-style="normal" font-weight="normal" stroke="none" text-decoration="none" x="613" y="361">+job_id: string</text></g></g><g transform="translate(-246,-102) scale(1,1)"><g><path fill="none" stroke="none"/><text fill="#000000" font-family="Arial" font-size="13px" font-style="normal" font-weight="normal" stroke="none" text-decoration="none" x="613" y="376">+candidate_id: string</text></g></g><g transform="translate(-246,-102) scale(1,1)"><g><path fill="none" stroke="none"/><text fill="#000000" font-family="Arial" font-size="13px" font-style="normal" font-weight="normal" stroke="none" text-decoration="none" x="613" y="391">+status: string</text></g></g><g transform="translate(-246,-102) scale(1,1)"><g><path fill="none" stroke="none"/><text fill="#000000" font-family="Arial" font-size="13px" font-style="normal" font-weight="normal" stroke="none" text-decoration="none" x="613" y="406">+matching_rate: int</text></g></g><g transform="translate(-246,-102) scale(1,1)"><g><path fill="none" stroke="none"/><text fill="#000000" font-family="Arial" font-size="13px" font-style="normal" font-weight="normal" stroke="none" text-decoration="none" x="613" y="421">+Apply_date: date</text></g></g><g transform="translate(-246,-102) scale(1,1)"><rect fill="#C0C0C0" height="200" opacity="0.2" stroke="none" width="164.0224609375" x="775" y="327"/></g><g transform="translate(-246,-102) scale(1,1)"><rect fill="#ffffff" height="200" stroke="none" width="164.0224609375" x="768" y="320"/></g><g transform="translate(-246,-102) scale(1,1)"><path d="M 768 320 L 932.0224609375 320 L 932.0224609375 520 L 768 520 L 768 320 Z Z" fill="none" stroke="#000000" stroke-miterlimit="10"/></g><g transform="translate(-246,-102) scale(1,1)"><rect fill="#ffffff" height="200" stroke="none" width="164.0224609375" x="768" y="320"/></g><g transform="translate(-246,-102) scale(1,1)"><path d="M 768 320 L 932.0224609375 320 L 932.0224609375 520 L 768 520 L 768 320 Z Z" fill="none" stroke="#000000" stroke-miterlimit="10"/></g><g transform="translate(-246,-102) scale(1,1)"><path d="M 768 345 L 932.0224609375 345" fill="none" stroke="#000000" stroke-miterlimit="10"/></g><g transform="translate(-246,-102) scale(1,1)"><g><path fill="none" stroke="none"/><text fill="#000000" font-family="Arial" font-size="13px" font-style="normal" font-weight="bold" stroke="none" text-decoration="none" x="838.455322265625" y="338">Job</text><path d="M 861.567138671875 339.5 L 838.455322265625 339.5" fill="none" stroke="#000000" stroke-miterlimit="10"/></g></g><g transform="translate(-246,-102) scale(1,1)"><g><path fill="none" stroke="none"/><text fill="#000000" font-family="Arial" font-size="13px" font-style="normal" font-weight="normal" stroke="none" text-decoration="none" x="773" y="361">+id: string</text></g></g><g transform="translate(-246,-102) scale(1,1)"><g><path fill="none" stroke="none"/><text fill="#000000" font-family="Arial" font-size="13px" font-style="normal" font-weight="normal" stroke="none" text-decoration="none" x="773" y="376">+role: string</text></g></g><g transform="translate(-246,-102) scale(1,1)"><g><path fill="none" stroke="none"/><text fill="#000000" font-family="Arial" font-size="13px" font-style="normal" font-weight="normal" stroke="none" text-decoration="none" x="773" y="391">+scope: int[2]</text></g></g><g transform="translate(-246,-102) scale(1,1)"><g><path fill="none" stroke="none"/><text fill="#000000" font-family="Arial" font-size="13px" font-style="normal" font-weight="normal" stroke="none" text-decoration="none" x="773" y="406">+region: string</text></g></g><g transform="translate(-246,-102) scale(1,1)"><g><path fill="none" stroke="none"/><text fill="#000000" font-family="Arial" font-size="13px" font-style="normal" font-weight="normal" stroke="none" text-decoration="none" x="773" y="421">+title: string</text></g></g><g transform="translate(-246,-102) scale(1,1)"><g><path fill="none" stroke="none"/><text fill="#000000" font-family="Arial" font-size="13px" font-style="normal" font-weight="normal" stroke="none" text-decoration="none" x="773" y="436">+requirements: string</text></g></g><g transform="translate(-246,-102) scale(1,1)"><g><path fill="none" stroke="none"/><text fill="#000000" font-family="Arial" font-size="13px" font-style="normal" font-weight="normal" stroke="none" text-decoration="none" x="773" y="451">+candidate: List[Job_state]</text></g></g><g transform="translate(-246,-102) scale(1,1)"><g><path fill="none" stroke="none"/><text fill="#000000" font-family="Arial" font-size="13px" font-style="normal" font-weight="normal" stroke="none" text-decoration="none" x="773" y="466">+job_state: string</text></g></g><g transform="translate(-246,-102) scale(1,1)"><g><path fill="none" stroke="none"/><text fill="#000000" font-family="Arial" font-size="13px" font-style="normal" font-weight="normal" stroke="none" text-decoration="none" x="773" y="481">+description_skills: string</text></g></g><g transform="translate(-246,-102) scale(1,1)"><g><path fill="none" stroke="none"/><text fill="#000000" font-family="Arial" font-size="13px" font-style="normal" font-weight="normal" stroke="none" text-decoration="none" x="773" y="496">+description: string</text></g></g><g transform="translate(-246,-102) scale(1,1)"><g><path fill="none" stroke="none"/><text fill="#000000" font-family="Arial" font-size="13px" font-style="normal" font-weight="normal" stroke="none" text-decoration="none" x="773" y="511">+additional_info: string</text></g></g><g transform="translate(-246,-102) scale(1,1)"><rect fill="#C0C0C0" height="24" opacity="0.2" stroke="none" width="73.30810546875" x="287" y="231"/></g><g transform="translate(-246,-102) scale(1,1)"><rect fill="#ffffff" height="24" stroke="none" width="73.30810546875" x="280" y="224"/></g><g transform="translate(-246,-102) scale(1,1)"><path d="M 280 224 L 353.30810546875 224 L 353.30810546875 248 L 280 248 L 280 224 Z Z" fill="none" stroke="#000000" stroke-miterlimit="10"/></g><g transform="translate(-246,-102) scale(1,1)"><rect fill="#ffffff" height="24" stroke="none" width="73.30810546875" x="280" y="224"/></g><g transform="translate(-246,-102) scale(1,1)"><path d="M 280 224 L 353.30810546875 224 L 353.30810546875 248 L 280 248 L 280 224 Z Z" fill="none" stroke="#000000" stroke-miterlimit="10"/></g><g transform="translate(-246,-102) scale(1,1)"><g><path fill="none" stroke="none"/><text fill="#000000" font-family="Arial" font-size="13px" font-style="normal" font-weight="bold" stroke="none" text-decoration="none" x="284.5" y="242">Recruiters</text><path d="M 348.80810546875 243.5 L 284.5 243.5" fill="none" stroke="#000000" stroke-miterlimit="10"/></g></g><g transform="translate(-246,-102) scale(1,1)"><rect fill="#C0C0C0" height="24" opacity="0.2" stroke="none" width="79.07177734375" x="463" y="231"/></g><g transform="translate(-246,-102) scale(1,1)"><rect fill="#ffffff" height="24" stroke="none" width="79.07177734375" x="456" y="224"/></g><g transform="translate(-246,-102) scale(1,1)"><path d="M 456 224 L 535.07177734375 224 L 535.07177734375 248 L 456 248 L 456 224 Z Z" fill="none" stroke="#000000" stroke-miterlimit="10"/></g><g transform="translate(-246,-102) scale(1,1)"><rect fill="#ffffff" height="24" stroke="none" width="79.07177734375" x="456" y="224"/></g><g transform="translate(-246,-102) scale(1,1)"><path d="M 456 224 L 535.07177734375 224 L 535.07177734375 248 L 456 248 L 456 224 Z Z" fill="none" stroke="#000000" stroke-miterlimit="10"/></g><g transform="translate(-246,-102) scale(1,1)"><g><path fill="none" stroke="none"/><text fill="#000000" font-family="Arial" font-size="13px" font-style="normal" font-weight="bold" stroke="none" text-decoration="none" x="460.5" y="242">Candidates</text><path d="M 530.57177734375 243.5 L 460.5 243.5" fill="none" stroke="#000000" stroke-miterlimit="10"/></g></g><g transform="translate(-246,-102) scale(1,1)"><rect fill="#C0C0C0" height="24" opacity="0.2" stroke="none" width="146.24267578125" x="615" y="239"/></g><g transform="translate(-246,-102) scale(1,1)"><rect fill="#ffffff" height="24" stroke="none" width="146.24267578125" x="608" y="232"/></g><g transform="translate(-246,-102) scale(1,1)"><path d="M 608 232 L 754.24267578125 232 L 754.24267578125 256 L 608 256 L 608 232 Z Z" fill="none" stroke="#000000" stroke-miterlimit="10"/></g><g transform="translate(-246,-102) scale(1,1)"><rect fill="#ffffff" height="24" stroke="none" width="146.24267578125" x="608" y="232"/></g><g transform="translate(-246,-102) scale(1,1)"><path d="M 608 232 L 754.24267578125 232 L 754.24267578125 256 L 608 256 L 608 232 Z Z" fill="none" stroke="#000000" stroke-miterlimit="10"/></g><g transform="translate(-246,-102) scale(1,1)"><g><path fill="none" stroke="none"/><text fill="#000000" font-family="Arial" font-size="13px" font-style="normal" font-weight="bold" stroke="none" text-decoration="none" x="612.5" y="250">Candidate-Job_Status</text><path d="M 749.74267578125 251.5 L 612.5 251.5" fill="none" stroke="#000000" stroke-miterlimit="10"/></g></g><g transform="translate(-246,-102) scale(1,1)"><rect fill="#C0C0C0" height="24" opacity="0.2" stroke="none" width="56.68359375" x="831" y="239"/></g><g transform="translate(-246,-102) scale(1,1)"><rect fill="#ffffff" height="24" stroke="none" width="56.68359375" x="824" y="232"/></g><g transform="translate(-246,-102) scale(1,1)"><path d="M 824 232 L 880.68359375 232 L 880.68359375 256 L 824 256 L 824 232 Z Z" fill="none" stroke="#000000" stroke-miterlimit="10"/></g><g transform="translate(-246,-102) scale(1,1)"><rect fill="#ffffff" height="24" stroke="none" width="56.68359375" x="824" y="232"/></g><g transform="translate(-246,-102) scale(1,1)"><path d="M 824 232 L 880.68359375 232 L 880.68359375 256 L 824 256 L 824 232 Z Z" fill="none" stroke="#000000" stroke-miterlimit="10"/></g><g transform="translate(-246,-102) scale(1,1)"><g><path fill="none" stroke="none"/><text fill="#000000" font-family="Arial" font-size="13px" font-style="normal" font-weight="bold" stroke="none" text-decoration="none" x="837.1708984375" y="250">Jobs</text><path d="M 867.5126953125 251.5 L 837.1708984375 251.5" fill="none" stroke="#000000" stroke-miterlimit="10"/></g></g><g transform="translate(-246,-102) scale(1,1)"><path d="M 316 249 L 317 319" fill="none" stroke="#000000" stroke-miterlimit="10"/></g><g transform="translate(-246,-102) scale(1,1)"><path d="M 495 249 L 493 319" fill="none" stroke="#000000" stroke-miterlimit="10"/></g><g transform="translate(-246,-102) scale(1,1)"><path d="M 681 257 L 681 319" fill="none" stroke="#000000" stroke-miterlimit="10"/></g><g transform="translate(-246,-102) scale(1,1)"><path d="M 852 257 L 851 319" fill="none" stroke="#000000" stroke-miterlimit="10"/></g><g transform="translate(-246,-102) scale(1,1)"><rect fill="#C0C0C0" height="24" opacity="0.2" stroke="none" width="115.21533203125" x="527" y="119"/></g><g transform="translate(-246,-102) scale(1,1)"><rect fill="#ffffff" height="24" stroke="none" width="115.21533203125" x="520" y="112"/></g><g transform="translate(-246,-102) scale(1,1)"><path d="M 520 112 L 635.21533203125 112 L 635.21533203125 136 L 520 136 L 520 112 Z Z" fill="none" stroke="#000000" stroke-miterlimit="10"/></g><g transform="translate(-246,-102) scale(1,1)"><rect fill="#ffffff" height="24" stroke="none" width="115.21533203125" x="520" y="112"/></g><g transform="translate(-246,-102) scale(1,1)"><path d="M 520 112 L 635.21533203125 112 L 635.21533203125 136 L 520 136 L 520 112 Z Z" fill="none" stroke="#000000" stroke-miterlimit="10"/></g><g transform="translate(-246,-102) scale(1,1)"><g><path fill="none" stroke="none"/><text fill="#000000" font-family="Arial" font-size="13px" font-style="normal" font-weight="bold" stroke="none" text-decoration="none" x="524.5" y="130">Firebase_objects</text><path d="M 630.71533203125 131.5 L 524.5 131.5" fill="none" stroke="#000000" stroke-miterlimit="10"/></g></g><g transform="translate(-246,-102) scale(1,1)"><path d="M 547 137 L 346 223" fill="none" stroke="#000000" stroke-miterlimit="10"/></g><g transform="translate(-246,-102) scale(1,1)"><path d="M 567 137 L 505 223" fill="none" stroke="#000000" stroke-miterlimit="10"/></g><g transform="translate(-246,-102) scale(1,1)"><path d="M 588 137 L 670 231" fill="none" stroke="#000000" stroke-miterlimit="10"/></g><g transform="translate(-246,-102) scale(1,1)"><path d="M 607 137 L 823 231" fill="none" stroke="#000000" stroke-miterlimit="10"/></g></g></svg>