<?xml version="1.0" encoding="UTF-8" standalone="no"?><svg xmlns="http://www.w3.org/2000/svg" xmlns:xlink="http://www.w3.org/1999/xlink" height="1406" version="1.1" width="1342.17724609375"><defs/><g><g transform="translate(-390,-142) scale(1,1)"><path d="M 432.04118625710225 737.6800000000001 C 432.04118625710225 732.8861679360001 435.92702858204774 729 440.720458984375 729 C 445.51388938670226 729 449.39973171164775 732.8861679360001 449.39973171164775 737.6800000000001 C 449.39973171164775 742.473832064 445.51388938670226 746.36 440.720458984375 746.36 C 435.92702858204774 746.36 432.04118625710225 742.473832064 432.04118625710225 737.6800000000001 Z" fill="#ffffff" stroke="none"/></g><g transform="translate(-390,-142) scale(1,1)"><path d="M 432.04118625710225 737.6800000000001 C 432.04118625710225 732.8861679360001 435.92702858204774 729 440.720458984375 729 C 445.51388938670226 729 449.39973171164775 732.8861679360001 449.39973171164775 737.6800000000001 C 449.39973171164775 742.473832064 445.51388938670226 746.36 440.720458984375 746.36 C 435.92702858204774 746.36 432.04118625710225 742.473832064 432.04118625710225 737.6800000000001 Z" fill="none" stroke="#000000" stroke-miterlimit="10"/></g><g transform="translate(-390,-142) scale(1,1)"><path d="M 440.720458984375 746.36 L 440.720458984375 763.64" fill="none" stroke="#000000" stroke-miterlimit="10"/></g><g transform="translate(-390,-142) scale(1,1)"><path d="M 431.53064080255683 752.84 L 449.91027716619317 752.84" fill="none" stroke="#000000" stroke-miterlimit="10"/></g><g transform="translate(-390,-142) scale(1,1)"><path d="M 440.720458984375 763.64 L 427.95682262073865 781" fill="none" stroke="#000000" stroke-miterlimit="10"/></g><g transform="translate(-390,-142) scale(1,1)"><path d="M 440.720458984375 763.64 L 453.48409534801135 781" fill="none" stroke="#000000" stroke-miterlimit="10"/></g><g transform="translate(-390,-142) scale(1,1)"><g><path fill="none" stroke="none"/><text fill="#000000" font-family="Arial" font-size="13px" font-style="normal" font-weight="bold" stroke="none" text-decoration="none" x="420.5" y="800">Admin</text></g></g><g transform="translate(-390,-142) scale(1,1)"><path d="M 427.24162571022725 409.68 C 427.24162571022725 404.886167936 431.12746803517274 401 435.9208984375 401 C 440.71432883982726 401 444.60017116477275 404.886167936 444.60017116477275 409.68 C 444.60017116477275 414.473832064 440.71432883982726 418.36 435.9208984375 418.36 C 431.12746803517274 418.36 427.24162571022725 414.473832064 427.24162571022725 409.68 Z" fill="#ffffff" stroke="none"/></g><g transform="translate(-390,-142) scale(1,1)"><path d="M 427.24162571022725 409.68 C 427.24162571022725 404.886167936 431.12746803517274 401 435.9208984375 401 C 440.71432883982726 401 444.60017116477275 404.886167936 444.60017116477275 409.68 C 444.60017116477275 414.473832064 440.71432883982726 418.36 435.9208984375 418.36 C 431.12746803517274 418.36 427.24162571022725 414.473832064 427.24162571022725 409.68 Z" fill="none" stroke="#000000" stroke-miterlimit="10"/></g><g transform="translate(-390,-142) scale(1,1)"><path d="M 435.9208984375 418.36 L 435.9208984375 435.64" fill="none" stroke="#000000" stroke-miterlimit="10"/></g><g transform="translate(-390,-142) scale(1,1)"><path d="M 426.73108025568183 424.84 L 445.11071661931817 424.84" fill="none" stroke="#000000" stroke-miterlimit="10"/></g><g transform="translate(-390,-142) scale(1,1)"><path d="M 435.9208984375 435.64 L 423.15726207386365 453" fill="none" stroke="#000000" stroke-miterlimit="10"/></g><g transform="translate(-390,-142) scale(1,1)"><path d="M 435.9208984375 435.64 L 448.68453480113635 453" fill="none" stroke="#000000" stroke-miterlimit="10"/></g><g transform="translate(-390,-142) scale(1,1)"><g><path fill="none" stroke="none"/><text fill="#000000" font-family="Arial" font-size="13px" font-style="normal" font-weight="bold" stroke="none" text-decoration="none" x="404.5" y="472">Candidate</text></g></g><g transform="translate(-390,-142) scale(1,1)"><path d="M 432.35978977272725 1089.6799999999998 C 432.35978977272725 1084.8861679359998 436.24563209767274 1081 441.0390625 1081 C 445.83249290232726 1081 449.71833522727275 1084.8861679359998 449.71833522727275 1089.6799999999998 C 449.71833522727275 1094.473832064 445.83249290232726 1098.36 441.0390625 1098.36 C 436.24563209767274 1098.36 432.35978977272725 1094.473832064 432.35978977272725 1089.6799999999998 Z" fill="#ffffff" stroke="none"/></g><g transform="translate(-390,-142) scale(1,1)"><path d="M 432.35978977272725 1089.6799999999998 C 432.35978977272725 1084.8861679359998 436.24563209767274 1081 441.0390625 1081 C 445.83249290232726 1081 449.71833522727275 1084.8861679359998 449.71833522727275 1089.6799999999998 C 449.71833522727275 1094.473832064 445.83249290232726 1098.36 441.0390625 1098.36 C 436.24563209767274 1098.36 432.35978977272725 1094.473832064 432.35978977272725 1089.6799999999998 Z" fill="none" stroke="#000000" stroke-miterlimit="10"/></g><g transform="translate(-390,-142) scale(1,1)"><path d="M 441.0390625 1098.36 L 441.0390625 1115.64" fill="none" stroke="#000000" stroke-miterlimit="10"/></g><g transform="translate(-390,-142) scale(1,1)"><path d="M 431.84924431818183 1104.84 L 450.22888068181817 1104.84" fill="none" stroke="#000000" stroke-miterlimit="10"/></g><g transform="translate(-390,-142) scale(1,1)"><path d="M 441.0390625 1115.64 L 428.27542613636365 1133" fill="none" stroke="#000000" stroke-miterlimit="10"/></g><g transform="translate(-390,-142) scale(1,1)"><path d="M 441.0390625 1115.64 L 453.80269886363635 1133" fill="none" stroke="#000000" stroke-miterlimit="10"/></g><g transform="translate(-390,-142) scale(1,1)"><g><path fill="none" stroke="none"/><text fill="#000000" font-family="Arial" font-size="13px" font-style="normal" font-weight="bold" stroke="none" text-decoration="none" x="412.5" y="1152">Recruiter</text></g></g><g transform="translate(-390,-142) scale(1,1)"><path d="M 1688.4093503196023 737.6800000000001 C 1688.4093503196023 732.8861679360001 1692.2951926445478 729 1697.088623046875 729 C 1701.8820534492022 729 1705.7678957741477 732.8861679360001 1705.7678957741477 737.6800000000001 C 1705.7678957741477 742.473832064 1701.8820534492022 746.36 1697.088623046875 746.36 C 1692.2951926445478 746.36 1688.4093503196023 742.473832064 1688.4093503196023 737.6800000000001 Z" fill="#ffffff" stroke="none"/></g><g transform="translate(-390,-142) scale(1,1)"><path d="M 1688.4093503196023 737.6800000000001 C 1688.4093503196023 732.8861679360001 1692.2951926445478 729 1697.088623046875 729 C 1701.8820534492022 729 1705.7678957741477 732.8861679360001 1705.7678957741477 737.6800000000001 C 1705.7678957741477 742.473832064 1701.8820534492022 746.36 1697.088623046875 746.36 C 1692.2951926445478 746.36 1688.4093503196023 742.473832064 1688.4093503196023 737.6800000000001 Z" fill="none" stroke="#000000" stroke-miterlimit="10"/></g><g transform="translate(-390,-142) scale(1,1)"><path d="M 1697.088623046875 746.36 L 1697.088623046875 763.64" fill="none" stroke="#000000" stroke-miterlimit="10"/></g><g transform="translate(-390,-142) scale(1,1)"><path d="M 1687.8988048650567 752.84 L 1706.2784412286933 752.84" fill="none" stroke="#000000" stroke-miterlimit="10"/></g><g transform="translate(-390,-142) scale(1,1)"><path d="M 1697.088623046875 763.64 L 1684.3249866832386 781" fill="none" stroke="#000000" stroke-miterlimit="10"/></g><g transform="translate(-390,-142) scale(1,1)"><path d="M 1697.088623046875 763.64 L 1709.8522594105114 781" fill="none" stroke="#000000" stroke-miterlimit="10"/></g><g transform="translate(-390,-142) scale(1,1)"><g><path fill="none" stroke="none"/><text fill="#000000" font-family="Arial" font-size="13px" font-style="normal" font-weight="bold" stroke="none" text-decoration="none" x="1687.700439453125" y="800">DB</text></g></g><g transform="translate(-390,-142) scale(1,1)"><path d="M 466 767 L 831 769" fill="none" stroke="#000000" stroke-miterlimit="10"/></g><g transform="translate(-390,-142) scale(1,1)"><path d="M 847 336 C 847 326.6111584 876.9969184 319 914 319 C 951.0030816 319 981 326.6111584 981 336 C 981 345.3888416 951.0030816 353 914 353 C 876.9969184 353 847 345.3888416 847 336 Z" fill="#C0C0C0" opacity="0.2" stroke="none"/></g><g transform="translate(-390,-142) scale(1,1)"><path d="M 840 329 C 840 319.6111584 869.9969184 312 907 312 C 944.0030816 312 974 319.6111584 974 329 C 974 338.3888416 944.0030816 346 907 346 C 869.9969184 346 840 338.3888416 840 329 Z" fill="#ffffff" stroke="none"/></g><g transform="translate(-390,-142) scale(1,1)"><path d="M 840 329 C 840 319.6111584 869.9969184 312 907 312 C 944.0030816 312 974 319.6111584 974 329 C 974 338.3888416 944.0030816 346 907 346 C 869.9969184 346 840 338.3888416 840 329 Z" fill="none" stroke="#000000" stroke-miterlimit="10"/></g><g transform="translate(-390,-142) scale(1,1)"><g><path fill="none" stroke="none"/><text fill="#000000" font-family="Arial" font-size="13px" font-style="normal" font-weight="bold" stroke="none" text-decoration="none" x="864.029541015625" y="334.5">Apply to a job</text></g></g><g transform="translate(-390,-142) scale(1,1)"><path d="M 473 439 L 536 440 L 536 328 L 839 329" fill="none" stroke="#000000" stroke-miterlimit="10"/></g><g transform="translate(-390,-142) scale(1,1)"><path d="M 831 488 C 831 478.6111584 869.9512224 471 918 471 C 966.0487776 471 1005 478.6111584 1005 488 C 1005 497.3888416 966.0487776 505 918 505 C 869.9512224 505 831 497.3888416 831 488 Z" fill="#C0C0C0" opacity="0.2" stroke="none"/></g><g transform="translate(-390,-142) scale(1,1)"><path d="M 824 481 C 824 471.6111584 862.9512224 464 911 464 C 959.0487776 464 998 471.6111584 998 481 C 998 490.3888416 959.0487776 498 911 498 C 862.9512224 498 824 490.3888416 824 481 Z" fill="#ffffff" stroke="none"/></g><g transform="translate(-390,-142) scale(1,1)"><path d="M 824 481 C 824 471.6111584 862.9512224 464 911 464 C 959.0487776 464 998 471.6111584 998 481 C 998 490.3888416 959.0487776 498 911 498 C 862.9512224 498 824 490.3888416 824 481 Z" fill="none" stroke="#000000" stroke-miterlimit="10"/></g><g transform="translate(-390,-142) scale(1,1)"><g><path fill="none" stroke="none"/><text fill="#000000" font-family="Arial" font-size="13px" font-style="normal" font-weight="bold" stroke="none" text-decoration="none" x="853.925048828125" y="486.5">Search on website</text></g></g><g transform="translate(-390,-142) scale(1,1)"><path d="M 473 451 L 512 464 L 536 480 L 823 481" fill="none" stroke="#000000" stroke-miterlimit="10"/></g><g transform="translate(-390,-142) scale(1,1)"><path d="M 999 481 L 1544 480 L 1544 768 L 1671 767" fill="none" stroke="#000000" stroke-miterlimit="10"/></g><g transform="translate(-390,-142) scale(1,1)"><path d="M 975 329 L 1544 328 L 1544 768 L 1671 767" fill="none" stroke="#000000" stroke-miterlimit="10"/></g><g transform="translate(-390,-142) scale(1,1)"><path d="M 815 1048 C 815 1038.6111584 863.5770992 1031 923.5 1031 C 983.4229008 1031 1032 1038.6111584 1032 1048 C 1032 1057.3888416 983.4229008 1065 923.5 1065 C 863.5770992 1065 815 1057.3888416 815 1048 Z" fill="#C0C0C0" opacity="0.2" stroke="none"/></g><g transform="translate(-390,-142) scale(1,1)"><path d="M 808 1041 C 808 1031.6111584 856.5770992 1024 916.5 1024 C 976.4229008 1024 1025 1031.6111584 1025 1041 C 1025 1050.3888416 976.4229008 1058 916.5 1058 C 856.5770992 1058 808 1050.3888416 808 1041 Z" fill="#ffffff" stroke="none"/></g><g transform="translate(-390,-142) scale(1,1)"><path d="M 808 1041 C 808 1031.6111584 856.5770992 1024 916.5 1024 C 976.4229008 1024 1025 1031.6111584 1025 1041 C 1025 1050.3888416 976.4229008 1058 916.5 1058 C 856.5770992 1058 808 1050.3888416 808 1041 Z" fill="none" stroke="#000000" stroke-miterlimit="10"/></g><g transform="translate(-390,-142) scale(1,1)"><g><path fill="none" stroke="none"/><text fill="#000000" font-family="Arial" font-size="13px" font-style="normal" font-weight="bold" stroke="none" text-decoration="none" x="877.604736328125" y="1046.5">View History</text></g></g><g transform="translate(-390,-142) scale(1,1)"><path d="M 991 888 C 991 878.6111584 1038.9055264 871 1098 871 C 1157.0944736 871 1205 878.6111584 1205 888 C 1205 897.3888416 1157.0944736 905 1098 905 C 1038.9055264 905 991 897.3888416 991 888 Z" fill="#C0C0C0" opacity="0.2" stroke="none"/></g><g transform="translate(-390,-142) scale(1,1)"><path d="M 984 881 C 984 871.6111584 1031.9055264 864 1091 864 C 1150.0944736 864 1198 871.6111584 1198 881 C 1198 890.3888416 1150.0944736 898 1091 898 C 1031.9055264 898 984 890.3888416 984 881 Z" fill="#ffffff" stroke="none"/></g><g transform="translate(-390,-142) scale(1,1)"><path d="M 984 881 C 984 871.6111584 1031.9055264 864 1091 864 C 1150.0944736 864 1198 871.6111584 1198 881 C 1198 890.3888416 1150.0944736 898 1091 898 C 1031.9055264 898 984 890.3888416 984 881 Z" fill="none" stroke="#000000" stroke-miterlimit="10"/></g><g transform="translate(-390,-142) scale(1,1)"><g><path fill="none" stroke="none"/><text fill="#000000" font-family="Arial" font-size="13px" font-style="normal" font-weight="bold" stroke="none" text-decoration="none" x="1053.183837890625" y="886.5">View Details</text></g></g><g transform="translate(-390,-142) scale(1,1)"><path d="M 839 960 C 839 950.6111584 878.17508 943 926.5 943 C 974.82492 943 1014 950.6111584 1014 960 C 1014 969.3888416 974.82492 977 926.5 977 C 878.17508 977 839 969.3888416 839 960 Z" fill="#C0C0C0" opacity="0.2" stroke="none"/></g><g transform="translate(-390,-142) scale(1,1)"><path d="M 832 953 C 832 943.6111584 871.17508 936 919.5 936 C 967.82492 936 1007 943.6111584 1007 953 C 1007 962.3888416 967.82492 970 919.5 970 C 871.17508 970 832 962.3888416 832 953 Z" fill="#ffffff" stroke="none"/></g><g transform="translate(-390,-142) scale(1,1)"><path d="M 832 953 C 832 943.6111584 871.17508 936 919.5 936 C 967.82492 936 1007 943.6111584 1007 953 C 1007 962.3888416 967.82492 970 919.5 970 C 871.17508 970 832 962.3888416 832 953 Z" fill="none" stroke="#000000" stroke-miterlimit="10"/></g><g transform="translate(-390,-142) scale(1,1)"><g><path fill="none" stroke="none"/><text fill="#000000" font-family="Arial" font-size="13px" font-style="normal" font-weight="bold" stroke="none" text-decoration="none" x="862.07275390625" y="958.5">Manage Candidate</text></g></g><g transform="translate(-390,-142) scale(1,1)"><path d="M 1039 1016 C 1039 1006.6111584 1092.2781088 999 1158 999 C 1223.7218912 999 1277 1006.6111584 1277 1016 C 1277 1025.3888416 1223.7218912 1033 1158 1033 C 1092.2781088 1033 1039 1025.3888416 1039 1016 Z" fill="#C0C0C0" opacity="0.2" stroke="none"/></g><g transform="translate(-390,-142) scale(1,1)"><path d="M 1032 1009 C 1032 999.6111584 1085.2781088 992 1151 992 C 1216.7218912 992 1270 999.6111584 1270 1009 C 1270 1018.3888416 1216.7218912 1026 1151 1026 C 1085.2781088 1026 1032 1018.3888416 1032 1009 Z" fill="#ffffff" stroke="none"/></g><g transform="translate(-390,-142) scale(1,1)"><path d="M 1032 1009 C 1032 999.6111584 1085.2781088 992 1151 992 C 1216.7218912 992 1270 999.6111584 1270 1009 C 1270 1018.3888416 1216.7218912 1026 1151 1026 C 1085.2781088 1026 1032 1018.3888416 1032 1009 Z" fill="none" stroke="#000000" stroke-miterlimit="10"/></g><g transform="translate(-390,-142) scale(1,1)"><g><path fill="none" stroke="none"/><text fill="#000000" font-family="Arial" font-size="13px" font-style="normal" font-weight="bold" stroke="none" text-decoration="none" x="1071.29248046875" y="1014.5">View Job Request History</text></g></g><g transform="translate(-390,-142) scale(1,1)"><path d="M 917 1023 L 918 971" fill="none" stroke="#000000" stroke-dasharray="3" stroke-miterlimit="10"/></g><g transform="translate(-390,-142) scale(1,1)"><path d="M 922.0133396580383 981.2417334855588 L 918 971 L 913.5958604886597 981.0798588861477" fill="none" stroke="#000000" stroke-miterlimit="10"/></g><g transform="translate(-390,-142) scale(1,1)"><g><path fill="none" stroke="none"/><text fill="#000000" font-family="Arial" font-size="13px" font-style="normal" font-weight="normal" stroke="none" text-decoration="none" x="851.5" y="1010">«include»</text></g></g><g transform="translate(-390,-142) scale(1,1)"><path d="M 1076 991 L 994 971" fill="none" stroke="#000000" stroke-dasharray="3" stroke-miterlimit="10"/></g><g transform="translate(-390,-142) scale(1,1)"><path d="M 1004.8707165685336 969.3184764983475 L 994 971 L 1002.8757740727101 977.4977407312241" fill="none" stroke="#000000" stroke-miterlimit="10"/></g><g transform="translate(-390,-142) scale(1,1)"><g><path fill="none" stroke="none"/><text fill="#000000" font-family="Arial" font-size="13px" font-style="normal" font-weight="normal" stroke="none" text-decoration="none" x="987.5" y="996">«include»</text></g></g><g transform="translate(-390,-142) scale(1,1)"><path d="M 1048 899 L 962 935" fill="none" stroke="#000000" stroke-dasharray="3" stroke-miterlimit="10"/></g><g transform="translate(-390,-142) scale(1,1)"><path d="M 969.7490127012107 927.1927724410982 L 962 935 L 972.9999229776927 934.9588358793608" fill="none" stroke="#000000" stroke-miterlimit="10"/></g><g transform="translate(-390,-142) scale(1,1)"><g><path fill="none" stroke="none"/><text fill="#000000" font-family="Arial" font-size="13px" font-style="normal" font-weight="normal" stroke="none" text-decoration="none" x="1006.5" y="930">«include»</text></g></g><g transform="translate(-390,-142) scale(1,1)"><path d="M 895 1424 C 895 1414.6111584 934.3989376 1407 983 1407 C 1031.6010624 1407 1071 1414.6111584 1071 1424 C 1071 1433.3888416 1031.6010624 1441 983 1441 C 934.3989376 1441 895 1433.3888416 895 1424 Z" fill="#C0C0C0" opacity="0.2" stroke="none"/></g><g transform="translate(-390,-142) scale(1,1)"><path d="M 888 1417 C 888 1407.6111584 927.3989376 1400 976 1400 C 1024.6010624 1400 1064 1407.6111584 1064 1417 C 1064 1426.3888416 1024.6010624 1434 976 1434 C 927.3989376 1434 888 1426.3888416 888 1417 Z" fill="#ffffff" stroke="none"/></g><g transform="translate(-390,-142) scale(1,1)"><path d="M 888 1417 C 888 1407.6111584 927.3989376 1400 976 1400 C 1024.6010624 1400 1064 1407.6111584 1064 1417 C 1064 1426.3888416 1024.6010624 1434 976 1434 C 927.3989376 1434 888 1426.3888416 888 1417 Z" fill="none" stroke="#000000" stroke-miterlimit="10"/></g><g transform="translate(-390,-142) scale(1,1)"><g><path fill="none" stroke="none"/><text fill="#000000" font-family="Arial" font-size="13px" font-style="normal" font-weight="bold" stroke="none" text-decoration="none" x="918.201416015625" y="1422.5">Manage Interviews</text></g></g><g transform="translate(-390,-142) scale(1,1)"><path d="M 919 1256 C 919 1246.6111584 947.8776304 1239 983.5 1239 C 1019.1223696 1239 1048 1246.6111584 1048 1256 C 1048 1265.3888416 1019.1223696 1273 983.5 1273 C 947.8776304 1273 919 1265.3888416 919 1256 Z" fill="#C0C0C0" opacity="0.2" stroke="none"/></g><g transform="translate(-390,-142) scale(1,1)"><path d="M 912 1249 C 912 1239.6111584 940.8776304 1232 976.5 1232 C 1012.1223696 1232 1041 1239.6111584 1041 1249 C 1041 1258.3888416 1012.1223696 1266 976.5 1266 C 940.8776304 1266 912 1258.3888416 912 1249 Z" fill="#ffffff" stroke="none"/></g><g transform="translate(-390,-142) scale(1,1)"><path d="M 912 1249 C 912 1239.6111584 940.8776304 1232 976.5 1232 C 1012.1223696 1232 1041 1239.6111584 1041 1249 C 1041 1258.3888416 1012.1223696 1266 976.5 1266 C 940.8776304 1266 912 1258.3888416 912 1249 Z" fill="none" stroke="#000000" stroke-miterlimit="10"/></g><g transform="translate(-390,-142) scale(1,1)"><g><path fill="none" stroke="none"/><text fill="#000000" font-family="Arial" font-size="13px" font-style="normal" font-weight="bold" stroke="none" text-decoration="none" x="935.32275390625" y="1254.5">Manage Jobs</text></g></g><g transform="translate(-390,-142) scale(1,1)"><path d="M 927 1336 C 927 1326.6111584 949.6096176 1319 977.5 1319 C 1005.3903824 1319 1028 1326.6111584 1028 1336 C 1028 1345.3888416 1005.3903824 1353 977.5 1353 C 949.6096176 1353 927 1345.3888416 927 1336 Z" fill="#C0C0C0" opacity="0.2" stroke="none"/></g><g transform="translate(-390,-142) scale(1,1)"><path d="M 920 1329 C 920 1319.6111584 942.6096176 1312 970.5 1312 C 998.3903824 1312 1021 1319.6111584 1021 1329 C 1021 1338.3888416 998.3903824 1346 970.5 1346 C 942.6096176 1346 920 1338.3888416 920 1329 Z" fill="#ffffff" stroke="none"/></g><g transform="translate(-390,-142) scale(1,1)"><path d="M 920 1329 C 920 1319.6111584 942.6096176 1312 970.5 1312 C 998.3903824 1312 1021 1319.6111584 1021 1329 C 1021 1338.3888416 998.3903824 1346 970.5 1346 C 942.6096176 1346 920 1338.3888416 920 1329 Z" fill="none" stroke="#000000" stroke-miterlimit="10"/></g><g transform="translate(-390,-142) scale(1,1)"><g><path fill="none" stroke="none"/><text fill="#000000" font-family="Arial" font-size="13px" font-style="normal" font-weight="bold" stroke="none" text-decoration="none" x="957.864990234375" y="1334.5">Add</text></g></g><g transform="translate(-390,-142) scale(1,1)"><path d="M 887 1152 C 887 1142.6111584 909.6096176 1135 937.5 1135 C 965.3903824 1135 988 1142.6111584 988 1152 C 988 1161.3888416 965.3903824 1169 937.5 1169 C 909.6096176 1169 887 1161.3888416 887 1152 Z" fill="#C0C0C0" opacity="0.2" stroke="none"/></g><g transform="translate(-390,-142) scale(1,1)"><path d="M 880 1145 C 880 1135.6111584 902.6096176 1128 930.5 1128 C 958.3903824 1128 981 1135.6111584 981 1145 C 981 1154.3888416 958.3903824 1162 930.5 1162 C 902.6096176 1162 880 1154.3888416 880 1145 Z" fill="#ffffff" stroke="none"/></g><g transform="translate(-390,-142) scale(1,1)"><path d="M 880 1145 C 880 1135.6111584 902.6096176 1128 930.5 1128 C 958.3903824 1128 981 1135.6111584 981 1145 C 981 1154.3888416 958.3903824 1162 930.5 1162 C 902.6096176 1162 880 1154.3888416 880 1145 Z" fill="none" stroke="#000000" stroke-miterlimit="10"/></g><g transform="translate(-390,-142) scale(1,1)"><g><path fill="none" stroke="none"/><text fill="#000000" font-family="Arial" font-size="13px" font-style="normal" font-weight="bold" stroke="none" text-decoration="none" x="905.2109375" y="1150.5">Remove</text></g></g><g transform="translate(-390,-142) scale(1,1)"><path d="M 1071 1192 C 1071 1182.6111584 1093.6096176 1175 1121.5 1175 C 1149.3903824 1175 1172 1182.6111584 1172 1192 C 1172 1201.3888416 1149.3903824 1209 1121.5 1209 C 1093.6096176 1209 1071 1201.3888416 1071 1192 Z" fill="#C0C0C0" opacity="0.2" stroke="none"/></g><g transform="translate(-390,-142) scale(1,1)"><path d="M 1064 1185 C 1064 1175.6111584 1086.6096176 1168 1114.5 1168 C 1142.3903824 1168 1165 1175.6111584 1165 1185 C 1165 1194.3888416 1142.3903824 1202 1114.5 1202 C 1086.6096176 1202 1064 1194.3888416 1064 1185 Z" fill="#ffffff" stroke="none"/></g><g transform="translate(-390,-142) scale(1,1)"><path d="M 1064 1185 C 1064 1175.6111584 1086.6096176 1168 1114.5 1168 C 1142.3903824 1168 1165 1175.6111584 1165 1185 C 1165 1194.3888416 1142.3903824 1202 1114.5 1202 C 1086.6096176 1202 1064 1194.3888416 1064 1185 Z" fill="none" stroke="#000000" stroke-miterlimit="10"/></g><g transform="translate(-390,-142) scale(1,1)"><g><path fill="none" stroke="none"/><text fill="#000000" font-family="Arial" font-size="13px" font-style="normal" font-weight="bold" stroke="none" text-decoration="none" x="1102.2236328125" y="1190.5">Edit</text></g></g><g transform="translate(-390,-142) scale(1,1)"><path d="M 971 1311 L 975 1267" fill="none" stroke="#000000" stroke-dasharray="3" stroke-miterlimit="10"/></g><g transform="translate(-390,-142) scale(1,1)"><path d="M 978.272144785699 1277.5020506807682 L 975 1267 L 969.887684514256 1276.739827019728" fill="none" stroke="#000000" stroke-miterlimit="10"/></g><g transform="translate(-390,-142) scale(1,1)"><g><path fill="none" stroke="none"/><text fill="#000000" font-family="Arial" font-size="13px" font-style="normal" font-weight="normal" stroke="none" text-decoration="none" x="915.5" y="1291">«include»</text></g></g><g transform="translate(-390,-142) scale(1,1)"><path d="M 1075 1203 L 1015 1231" fill="none" stroke="#000000" stroke-dasharray="3" stroke-miterlimit="10"/></g><g transform="translate(-390,-142) scale(1,1)"><path d="M 1022.4291007381603 1222.8877584958122 L 1015 1231 L 1025.9893884883052 1230.516946531837" fill="none" stroke="#000000" stroke-miterlimit="10"/></g><g transform="translate(-390,-142) scale(1,1)"><g><path fill="none" stroke="none"/><text fill="#000000" font-family="Arial" font-size="13px" font-style="normal" font-weight="normal" stroke="none" text-decoration="none" x="1046.5" y="1227">«include»</text></g></g><g transform="translate(-390,-142) scale(1,1)"><path d="M 938 1163 L 968 1231" fill="none" stroke="#000000" stroke-dasharray="3" stroke-miterlimit="10"/></g><g transform="translate(-390,-142) scale(1,1)"><path d="M 960.0465730900845 1223.401118477787 L 968 1231 L 967.7492985521172 1220.0028572445372" fill="none" stroke="#000000" stroke-miterlimit="10"/></g><g transform="translate(-390,-142) scale(1,1)"><g><path fill="none" stroke="none"/><text fill="#000000" font-family="Arial" font-size="13px" font-style="normal" font-weight="normal" stroke="none" text-decoration="none" x="952.5" y="1189">«include»</text></g></g><g transform="translate(-390,-142) scale(1,1)"><path d="M 475 1124 L 600 1144 L 889 971" fill="none" stroke="#000000" stroke-miterlimit="10"/></g><g transform="translate(-390,-142) scale(1,1)"><path d="M 475 1143 L 544 1192 L 911 1240" fill="none" stroke="#000000" stroke-miterlimit="10"/></g><g transform="translate(-390,-142) scale(1,1)"><path d="M 839 776 C 839 766.6111584 876.3842192 759 922.5 759 C 968.6157808 759 1006 766.6111584 1006 776 C 1006 785.3888416 968.6157808 793 922.5 793 C 876.3842192 793 839 785.3888416 839 776 Z" fill="#C0C0C0" opacity="0.2" stroke="none"/></g><g transform="translate(-390,-142) scale(1,1)"><path d="M 832 769 C 832 759.6111584 869.3842192 752 915.5 752 C 961.6157808 752 999 759.6111584 999 769 C 999 778.3888416 961.6157808 786 915.5 786 C 869.3842192 786 832 778.3888416 832 769 Z" fill="#ffffff" stroke="none"/></g><g transform="translate(-390,-142) scale(1,1)"><path d="M 832 769 C 832 759.6111584 869.3842192 752 915.5 752 C 961.6157808 752 999 759.6111584 999 769 C 999 778.3888416 961.6157808 786 915.5 786 C 869.3842192 786 832 778.3888416 832 769 Z" fill="none" stroke="#000000" stroke-miterlimit="10"/></g><g transform="translate(-390,-142) scale(1,1)"><g><path fill="none" stroke="none"/><text fill="#000000" font-family="Arial" font-size="13px" font-style="normal" font-weight="bold" stroke="none" text-decoration="none" x="860.95458984375" y="774.5">Manage Recruiter</text></g></g><g transform="translate(-390,-142) scale(1,1)"><path d="M 1095 816 C 1095 806.6111584 1117.6096176 799 1145.5 799 C 1173.3903824 799 1196 806.6111584 1196 816 C 1196 825.3888416 1173.3903824 833 1145.5 833 C 1117.6096176 833 1095 825.3888416 1095 816 Z" fill="#C0C0C0" opacity="0.2" stroke="none"/></g><g transform="translate(-390,-142) scale(1,1)"><path d="M 1088 809 C 1088 799.6111584 1110.6096176 792 1138.5 792 C 1166.3903824 792 1189 799.6111584 1189 809 C 1189 818.3888416 1166.3903824 826 1138.5 826 C 1110.6096176 826 1088 818.3888416 1088 809 Z" fill="#ffffff" stroke="none"/></g><g transform="translate(-390,-142) scale(1,1)"><path d="M 1088 809 C 1088 799.6111584 1110.6096176 792 1138.5 792 C 1166.3903824 792 1189 799.6111584 1189 809 C 1189 818.3888416 1166.3903824 826 1138.5 826 C 1110.6096176 826 1088 818.3888416 1088 809 Z" fill="none" stroke="#000000" stroke-miterlimit="10"/></g><g transform="translate(-390,-142) scale(1,1)"><g><path fill="none" stroke="none"/><text fill="#000000" font-family="Arial" font-size="13px" font-style="normal" font-weight="bold" stroke="none" text-decoration="none" x="1125.864990234375" y="814.5">Add</text></g></g><g transform="translate(-390,-142) scale(1,1)"><path d="M 1063 704 C 1063 694.6111584 1085.6096176 687 1113.5 687 C 1141.3903824 687 1164 694.6111584 1164 704 C 1164 713.3888416 1141.3903824 721 1113.5 721 C 1085.6096176 721 1063 713.3888416 1063 704 Z" fill="#C0C0C0" opacity="0.2" stroke="none"/></g><g transform="translate(-390,-142) scale(1,1)"><path d="M 1056 697 C 1056 687.6111584 1078.6096176 680 1106.5 680 C 1134.3903824 680 1157 687.6111584 1157 697 C 1157 706.3888416 1134.3903824 714 1106.5 714 C 1078.6096176 714 1056 706.3888416 1056 697 Z" fill="#ffffff" stroke="none"/></g><g transform="translate(-390,-142) scale(1,1)"><path d="M 1056 697 C 1056 687.6111584 1078.6096176 680 1106.5 680 C 1134.3903824 680 1157 687.6111584 1157 697 C 1157 706.3888416 1134.3903824 714 1106.5 714 C 1078.6096176 714 1056 706.3888416 1056 697 Z" fill="none" stroke="#000000" stroke-miterlimit="10"/></g><g transform="translate(-390,-142) scale(1,1)"><g><path fill="none" stroke="none"/><text fill="#000000" font-family="Arial" font-size="13px" font-style="normal" font-weight="bold" stroke="none" text-decoration="none" x="1081.2109375" y="702.5">Remove</text></g></g><g transform="translate(-390,-142) scale(1,1)"><path d="M 1087 800 L 1000 784" fill="none" stroke="#000000" stroke-dasharray="3" stroke-miterlimit="10"/></g><g transform="translate(-390,-142) scale(1,1)"><path d="M 1010.756448448653 781.6980841085154 L 1000 784 L 1009.2336579761159 789.9782573029363" fill="none" stroke="#000000" stroke-miterlimit="10"/></g><g transform="translate(-390,-142) scale(1,1)"><g><path fill="none" stroke="none"/><text fill="#000000" font-family="Arial" font-size="13px" font-style="normal" font-weight="normal" stroke="none" text-decoration="none" x="1015.5" y="810">«include»</text></g></g><g transform="translate(-390,-142) scale(1,1)"><path d="M 1058 715 L 963 751" fill="none" stroke="#000000" stroke-dasharray="3" stroke-miterlimit="10"/></g><g transform="translate(-390,-142) scale(1,1)"><path d="M 971.0115450840357 743.4624178036678 L 963 751 L 973.9948933414809 751.3351423719259" fill="none" stroke="#000000" stroke-miterlimit="10"/></g><g transform="translate(-390,-142) scale(1,1)"><g><path fill="none" stroke="none"/><text fill="#000000" font-family="Arial" font-size="13px" font-style="normal" font-weight="normal" stroke="none" text-decoration="none" x="1007.5" y="746">«include»</text></g></g><g transform="translate(-390,-142) scale(1,1)"><path d="M 1008 953 L 1544 952 L 1544 768 L 1671 767" fill="none" stroke="#000000" stroke-miterlimit="10"/></g><g transform="translate(-390,-142) scale(1,1)"><path d="M 1042 1249 L 1544 1248 L 1544 766 L 1671 767" fill="none" stroke="#000000" stroke-miterlimit="10"/></g><g transform="translate(-390,-142) scale(1,1)"><path d="M 1000 769 L 1671 767" fill="none" stroke="#000000" stroke-miterlimit="10"/></g><g transform="translate(-390,-142) scale(1,1)"><path d="M 696 360 L 877 360 L 887 370 L 887 431 L 696 431 L 696 360" fill="#ffffff" stroke="none"/></g><g transform="translate(-390,-142) scale(1,1)"><path d="M 696 360 L 877 360 L 887 370 L 887 431 L 696 431 L 696 360 L 696 360" fill="none" stroke="#000000" stroke-miterlimit="10"/></g><g transform="translate(-390,-142) scale(1,1)"><path d="M 877 360 L 877 370 L 887 370 L 877 360" fill="none" stroke="#000000" stroke-miterlimit="10"/></g><g transform="translate(-390,-142) scale(1,1)"><g><path fill="none" stroke="none"/><text fill="#000000" font-family="Arial" font-size="13px" font-style="normal" font-weight="normal" stroke="none" text-decoration="none" x="701" y="375">All through the website. social</text><text fill="#000000" font-family="Arial" font-size="13px" font-style="normal" font-weight="normal" stroke="none" text-decoration="none" x="701" y="388">media app links should link to</text><text fill="#000000" font-family="Arial" font-size="13px" font-style="normal" font-weight="normal" stroke="none" text-decoration="none" x="701" y="401">the website.</text></g></g><g transform="translate(-390,-142) scale(1,1)"><path d="M 952 400 L 952 400" fill="none" stroke="#000000" stroke-miterlimit="10"/></g><g transform="translate(-390,-142) scale(1,1)"><path d="M 856 360 L 880 344" fill="none" stroke="#000000" stroke-miterlimit="10"/></g><g transform="translate(-390,-142) scale(1,1)"><path d="M 711 880 C 711 870.6111584 763.3826784 863 828 863 C 892.6173216 863 945 870.6111584 945 880 C 945 889.3888416 892.6173216 897 828 897 C 763.3826784 897 711 889.3888416 711 880 Z" fill="#C0C0C0" opacity="0.2" stroke="none"/></g><g transform="translate(-390,-142) scale(1,1)"><path d="M 704 873 C 704 863.6111584 756.3826784 856 821 856 C 885.6173216 856 938 863.6111584 938 873 C 938 882.3888416 885.6173216 890 821 890 C 756.3826784 890 704 882.3888416 704 873 Z" fill="#ffffff" stroke="none"/></g><g transform="translate(-390,-142) scale(1,1)"><path d="M 704 873 C 704 863.6111584 756.3826784 856 821 856 C 885.6173216 856 938 863.6111584 938 873 C 938 882.3888416 885.6173216 890 821 890 C 756.3826784 890 704 882.3888416 704 873 Z" fill="none" stroke="#000000" stroke-miterlimit="10"/></g><g transform="translate(-390,-142) scale(1,1)"><g><path fill="none" stroke="none"/><text fill="#000000" font-family="Arial" font-size="13px" font-style="normal" font-weight="bold" stroke="none" text-decoration="none" x="742.882568359375" y="878.5">Add Candidate's Resume</text></g></g><g transform="translate(-390,-142) scale(1,1)"><path d="M 863 640 C 863 630.6111584 888.743624 623 920.5 623 C 952.256376 623 978 630.6111584 978 640 C 978 649.3888416 952.256376 657 920.5 657 C 888.743624 657 863 649.3888416 863 640 Z" fill="#C0C0C0" opacity="0.2" stroke="none"/></g><g transform="translate(-390,-142) scale(1,1)"><path d="M 856 633 C 856 623.6111584 881.743624 616 913.5 616 C 945.256376 616 971 623.6111584 971 633 C 971 642.3888416 945.256376 650 913.5 650 C 881.743624 650 856 642.3888416 856 633 Z" fill="#ffffff" stroke="none"/></g><g transform="translate(-390,-142) scale(1,1)"><path d="M 856 633 C 856 623.6111584 881.743624 616 913.5 616 C 945.256376 616 971 623.6111584 971 633 C 971 642.3888416 945.256376 650 913.5 650 C 881.743624 650 856 642.3888416 856 633 Z" fill="none" stroke="#000000" stroke-miterlimit="10"/></g><g transform="translate(-390,-142) scale(1,1)"><g><path fill="none" stroke="none"/><text fill="#000000" font-family="Arial" font-size="13px" font-style="normal" font-weight="bold" stroke="none" text-decoration="none" x="877.13427734375" y="638.5">View Status</text></g></g><g transform="translate(-390,-142) scale(1,1)"><path d="M 473 466 L 536 512 L 536 632 L 855 633" fill="none" stroke="#000000" stroke-miterlimit="10"/></g><g transform="translate(-390,-142) scale(1,1)"><path d="M 972 633 L 1544 632 L 1544 768 L 1671 767" fill="none" stroke="#000000" stroke-miterlimit="10"/></g><g transform="translate(-390,-142) scale(1,1)"><path d="M 839 176 C 839 166.6111584 874.3695008 159 918 159 C 961.6304992 159 997 166.6111584 997 176 C 997 185.3888416 961.6304992 193 918 193 C 874.3695008 193 839 185.3888416 839 176 Z" fill="#C0C0C0" opacity="0.2" stroke="none"/></g><g transform="translate(-390,-142) scale(1,1)"><path d="M 832 169 C 832 159.6111584 867.3695008 152 911 152 C 954.6304992 152 990 159.6111584 990 169 C 990 178.3888416 954.6304992 186 911 186 C 867.3695008 186 832 178.3888416 832 169 Z" fill="#ffffff" stroke="none"/></g><g transform="translate(-390,-142) scale(1,1)"><path d="M 832 169 C 832 159.6111584 867.3695008 152 911 152 C 954.6304992 152 990 159.6111584 990 169 C 990 178.3888416 954.6304992 186 911 186 C 867.3695008 186 832 178.3888416 832 169 Z" fill="none" stroke="#000000" stroke-miterlimit="10"/></g><g transform="translate(-390,-142) scale(1,1)"><g><path fill="none" stroke="none"/><text fill="#000000" font-family="Arial" font-size="13px" font-style="normal" font-weight="bold" stroke="none" text-decoration="none" x="893.312255859375" y="174.5">Login</text></g></g><g transform="translate(-390,-142) scale(1,1)"><path d="M 473 431 L 504 424 L 504 168 L 831 169" fill="none" stroke="#000000" stroke-miterlimit="10"/></g><g transform="translate(-390,-142) scale(1,1)"><path d="M 991 169 L 1544 168 L 1544 768 L 1671 767" fill="none" stroke="#000000" stroke-miterlimit="10"/></g><g transform="translate(-390,-142) scale(1,1)"><path d="M 466 758 L 576 720 L 576 192 L 831 174" fill="none" stroke="#000000" stroke-miterlimit="10"/></g><g transform="translate(-390,-142) scale(1,1)"><path d="M 475 1115 L 616 1096 L 616 216 L 831 182" fill="none" stroke="#000000" stroke-miterlimit="10"/></g><g transform="translate(-390,-142) scale(1,1)"><path d="M 466 774 L 568 800 L 568 960 L 831 955" fill="none" stroke="#000000" stroke-miterlimit="10"/></g><g transform="translate(-390,-142) scale(1,1)"><path d="M 466 791 L 512 832 L 512 1248 L 911 1249" fill="none" stroke="#000000" stroke-miterlimit="10"/></g><g transform="translate(-390,-142) scale(1,1)"><path d="M 915 1399 L 512 1280 L 459 1160" fill="none" stroke="#000000" stroke-miterlimit="10"/></g><g transform="translate(-390,-142) scale(1,1)"><path d="M 458 808 L 480 856 L 488 1416 L 887 1417" fill="none" stroke="#000000" stroke-miterlimit="10"/></g><g transform="translate(-390,-142) scale(1,1)"><path d="M 1065 1417 L 1544 1416 L 1544 768 L 1671 767" fill="none" stroke="#000000" stroke-miterlimit="10"/></g><g transform="translate(-390,-142) scale(1,1)"><path d="M 1103 1464 C 1103 1454.6111584 1125.6096176 1447 1153.5 1447 C 1181.3903824 1447 1204 1454.6111584 1204 1464 C 1204 1473.3888416 1181.3903824 1481 1153.5 1481 C 1125.6096176 1481 1103 1473.3888416 1103 1464 Z" fill="#C0C0C0" opacity="0.2" stroke="none"/></g><g transform="translate(-390,-142) scale(1,1)"><path d="M 1096 1457 C 1096 1447.6111584 1118.6096176 1440 1146.5 1440 C 1174.3903824 1440 1197 1447.6111584 1197 1457 C 1197 1466.3888416 1174.3903824 1474 1146.5 1474 C 1118.6096176 1474 1096 1466.3888416 1096 1457 Z" fill="#ffffff" stroke="none"/></g><g transform="translate(-390,-142) scale(1,1)"><path d="M 1096 1457 C 1096 1447.6111584 1118.6096176 1440 1146.5 1440 C 1174.3903824 1440 1197 1447.6111584 1197 1457 C 1197 1466.3888416 1174.3903824 1474 1146.5 1474 C 1118.6096176 1474 1096 1466.3888416 1096 1457 Z" fill="none" stroke="#000000" stroke-miterlimit="10"/></g><g transform="translate(-390,-142) scale(1,1)"><g><path fill="none" stroke="none"/><text fill="#000000" font-family="Arial" font-size="13px" font-style="normal" font-weight="bold" stroke="none" text-decoration="none" x="1134.944091796875" y="1462.5">edit</text></g></g><g transform="translate(-390,-142) scale(1,1)"><path d="M 967 1528 C 967 1518.6111584 997.6684912 1511 1035.5 1511 C 1073.3315088 1511 1104 1518.6111584 1104 1528 C 1104 1537.3888416 1073.3315088 1545 1035.5 1545 C 997.6684912 1545 967 1537.3888416 967 1528 Z" fill="#C0C0C0" opacity="0.2" stroke="none"/></g><g transform="translate(-390,-142) scale(1,1)"><path d="M 960 1521 C 960 1511.6111584 990.6684912 1504 1028.5 1504 C 1066.3315088 1504 1097 1511.6111584 1097 1521 C 1097 1530.3888416 1066.3315088 1538 1028.5 1538 C 990.6684912 1538 960 1530.3888416 960 1521 Z" fill="#ffffff" stroke="none"/></g><g transform="translate(-390,-142) scale(1,1)"><path d="M 960 1521 C 960 1511.6111584 990.6684912 1504 1028.5 1504 C 1066.3315088 1504 1097 1511.6111584 1097 1521 C 1097 1530.3888416 1066.3315088 1538 1028.5 1538 C 990.6684912 1538 960 1530.3888416 960 1521 Z" fill="none" stroke="#000000" stroke-miterlimit="10"/></g><g transform="translate(-390,-142) scale(1,1)"><g><path fill="none" stroke="none"/><text fill="#000000" font-family="Arial" font-size="13px" font-style="normal" font-weight="bold" stroke="none" text-decoration="none" x="984.4345703125" y="1526.5">Add Summary</text></g></g><g transform="translate(-390,-142) scale(1,1)"><path d="M 743 1512 C 743 1502.6111584 788.6669504 1495 845 1495 C 901.3330496 1495 947 1502.6111584 947 1512 C 947 1521.3888416 901.3330496 1529 845 1529 C 788.6669504 1529 743 1521.3888416 743 1512 Z" fill="#C0C0C0" opacity="0.2" stroke="none"/></g><g transform="translate(-390,-142) scale(1,1)"><path d="M 736 1505 C 736 1495.6111584 781.6669504 1488 838 1488 C 894.3330496 1488 940 1495.6111584 940 1505 C 940 1514.3888416 894.3330496 1522 838 1522 C 781.6669504 1522 736 1514.3888416 736 1505 Z" fill="#ffffff" stroke="none"/></g><g transform="translate(-390,-142) scale(1,1)"><path d="M 736 1505 C 736 1495.6111584 781.6669504 1488 838 1488 C 894.3330496 1488 940 1495.6111584 940 1505 C 940 1514.3888416 894.3330496 1522 838 1522 C 781.6669504 1522 736 1514.3888416 736 1505 Z" fill="none" stroke="#000000" stroke-miterlimit="10"/></g><g transform="translate(-390,-142) scale(1,1)"><g><path fill="none" stroke="none"/><text fill="#000000" font-family="Arial" font-size="13px" font-style="normal" font-weight="bold" stroke="none" text-decoration="none" x="770.4482421875" y="1510.5">schedule an interview</text></g></g><g transform="translate(-390,-142) scale(1,1)"><path d="M 866 1487 L 948 1435" fill="none" stroke="#000000" stroke-dasharray="3" stroke-miterlimit="10"/></g><g transform="translate(-390,-142) scale(1,1)"><path d="M 941.6719075675802 1443.997513332402 L 948 1435 L 937.1631602379028 1436.8875656202185" fill="none" stroke="#000000" stroke-miterlimit="10"/></g><g transform="translate(-390,-142) scale(1,1)"><g><path fill="none" stroke="none"/><text fill="#000000" font-family="Arial" font-size="13px" font-style="normal" font-weight="normal" stroke="none" text-decoration="none" x="859.5" y="1454">«extend»</text></g></g><g transform="translate(-390,-142) scale(1,1)"><path d="M 1019 1503 L 985 1435" fill="none" stroke="#000000" stroke-dasharray="3" stroke-miterlimit="10"/></g><g transform="translate(-390,-142) scale(1,1)"><path d="M 993.3099935049528 1442.2072191549614 L 985 1435 L 985.7797792209975 1445.9723262969392" fill="none" stroke="#000000" stroke-miterlimit="10"/></g><g transform="translate(-390,-142) scale(1,1)"><g><path fill="none" stroke="none"/><text fill="#000000" font-family="Arial" font-size="13px" font-style="normal" font-weight="normal" stroke="none" text-decoration="none" x="948.5" y="1487">«extend»</text></g></g><g transform="translate(-390,-142) scale(1,1)"><path d="M 1095 1445 L 1053 1435" fill="none" stroke="#000000" stroke-dasharray="3" stroke-miterlimit="10"/></g><g transform="translate(-390,-142) scale(1,1)"><path d="M 1063.8613239816762 1433.258839075482 L 1053 1435 L 1061.9113025369709 1441.4489291432435" fill="none" stroke="#000000" stroke-miterlimit="10"/></g><g transform="translate(-390,-142) scale(1,1)"><g><path fill="none" stroke="none"/><text fill="#000000" font-family="Arial" font-size="13px" font-style="normal" font-weight="normal" stroke="none" text-decoration="none" x="1031.5" y="1459">«extend»</text></g></g><g transform="translate(-390,-142) scale(1,1)"><path d="M 843 891 L 897 935" fill="none" stroke="#000000" stroke-dasharray="3" stroke-miterlimit="10"/></g><g transform="translate(-390,-142) scale(1,1)"><path d="M 886.4625004000204 931.8438786176022 L 897 935 L 891.7805774078453 925.3171477443625" fill="none" stroke="#000000" stroke-miterlimit="10"/></g><g transform="translate(-390,-142) scale(1,1)"><g><path fill="none" stroke="none"/><text fill="#000000" font-family="Arial" font-size="13px" font-style="normal" font-weight="normal" stroke="none" text-decoration="none" x="863.5" y="907">«extend»</text></g></g></g></svg>