<?xml version="1.0" encoding="UTF-8" standalone="no"?><svg xmlns="http://www.w3.org/2000/svg" xmlns:xlink="http://www.w3.org/1999/xlink" height="1507" version="1.1" width="1326.17724609375"><defs/><g><g transform="translate(-254,-30) scale(1,1)"><path d="M 392 40 L 1512 40 L 1512 1527 L 392 1527 L 392 40" fill="none" stroke="#000000" stroke-miterlimit="10"/></g><g transform="translate(-254,-30) scale(1,1)"><path d="M 392 40 L 392 62 L 711.47509765625 62 L 722.47509765625 51 L 722.47509765625 40 L 392 40" fill="#ffffff" stroke="none"/></g><g transform="translate(-254,-30) scale(1,1)"><path d="M 392 40 L 392 62 L 711.47509765625 62 L 722.47509765625 51 L 722.47509765625 40 L 392 40 L 392 40" fill="none" stroke="#000000" stroke-miterlimit="10"/></g><g transform="translate(-254,-30) scale(1,1)"><g><path fill="none" stroke="none"/><text fill="#000000" font-family="Arial" font-size="13px" font-style="normal" font-weight="normal" stroke="none" text-decoration="none" x="423.9599609375" y="56">A system for managing employees and recruiters</text></g></g><g transform="translate(-254,-30) scale(1,1)"><g><path fill="none" stroke="none"/><text fill="#000000" font-family="Arial" font-size="13px" font-style="normal" font-weight="bold" stroke="none" text-decoration="none" x="395.924072265625" y="56">pkg</text></g></g><g transform="translate(-254,-30) scale(1,1)"><path d="M 296.04118625710225 649.6800000000001 C 296.04118625710225 644.8861679360001 299.92702858204774 641 304.720458984375 641 C 309.51388938670226 641 313.39973171164775 644.8861679360001 313.39973171164775 649.6800000000001 C 313.39973171164775 654.473832064 309.51388938670226 658.36 304.720458984375 658.36 C 299.92702858204774 658.36 296.04118625710225 654.473832064 296.04118625710225 649.6800000000001 Z" fill="#ffffff" stroke="none"/></g><g transform="translate(-254,-30) scale(1,1)"><path d="M 296.04118625710225 649.6800000000001 C 296.04118625710225 644.8861679360001 299.92702858204774 641 304.720458984375 641 C 309.51388938670226 641 313.39973171164775 644.8861679360001 313.39973171164775 649.6800000000001 C 313.39973171164775 654.473832064 309.51388938670226 658.36 304.720458984375 658.36 C 299.92702858204774 658.36 296.04118625710225 654.473832064 296.04118625710225 649.6800000000001 Z" fill="none" stroke="#000000" stroke-miterlimit="10"/></g><g transform="translate(-254,-30) scale(1,1)"><path d="M 304.720458984375 658.36 L 304.720458984375 675.64" fill="none" stroke="#000000" stroke-miterlimit="10"/></g><g transform="translate(-254,-30) scale(1,1)"><path d="M 295.53064080255683 664.84 L 313.91027716619317 664.84" fill="none" stroke="#000000" stroke-miterlimit="10"/></g><g transform="translate(-254,-30) scale(1,1)"><path d="M 304.720458984375 675.64 L 291.95682262073865 693" fill="none" stroke="#000000" stroke-miterlimit="10"/></g><g transform="translate(-254,-30) scale(1,1)"><path d="M 304.720458984375 675.64 L 317.48409534801135 693" fill="none" stroke="#000000" stroke-miterlimit="10"/></g><g transform="translate(-254,-30) scale(1,1)"><g><path fill="none" stroke="none"/><text fill="#000000" font-family="Arial" font-size="13px" font-style="normal" font-weight="bold" stroke="none" text-decoration="none" x="284.5" y="712">Admin</text></g></g><g transform="translate(-254,-30) scale(1,1)"><path d="M 291.24162571022725 353.68 C 291.24162571022725 348.886167936 295.12746803517274 345 299.9208984375 345 C 304.71432883982726 345 308.60017116477275 348.886167936 308.60017116477275 353.68 C 308.60017116477275 358.473832064 304.71432883982726 362.36 299.9208984375 362.36 C 295.12746803517274 362.36 291.24162571022725 358.473832064 291.24162571022725 353.68 Z" fill="#ffffff" stroke="none"/></g><g transform="translate(-254,-30) scale(1,1)"><path d="M 291.24162571022725 353.68 C 291.24162571022725 348.886167936 295.12746803517274 345 299.9208984375 345 C 304.71432883982726 345 308.60017116477275 348.886167936 308.60017116477275 353.68 C 308.60017116477275 358.473832064 304.71432883982726 362.36 299.9208984375 362.36 C 295.12746803517274 362.36 291.24162571022725 358.473832064 291.24162571022725 353.68 Z" fill="none" stroke="#000000" stroke-miterlimit="10"/></g><g transform="translate(-254,-30) scale(1,1)"><path d="M 299.9208984375 362.36 L 299.9208984375 379.64" fill="none" stroke="#000000" stroke-miterlimit="10"/></g><g transform="translate(-254,-30) scale(1,1)"><path d="M 290.73108025568183 368.84 L 309.11071661931817 368.84" fill="none" stroke="#000000" stroke-miterlimit="10"/></g><g transform="translate(-254,-30) scale(1,1)"><path d="M 299.9208984375 379.64 L 287.15726207386365 397" fill="none" stroke="#000000" stroke-miterlimit="10"/></g><g transform="translate(-254,-30) scale(1,1)"><path d="M 299.9208984375 379.64 L 312.68453480113635 397" fill="none" stroke="#000000" stroke-miterlimit="10"/></g><g transform="translate(-254,-30) scale(1,1)"><g><path fill="none" stroke="none"/><text fill="#000000" font-family="Arial" font-size="13px" font-style="normal" font-weight="bold" stroke="none" text-decoration="none" x="268.5" y="416">Candidate</text></g></g><g transform="translate(-254,-30) scale(1,1)"><path d="M 304.35978977272725 929.6800000000001 C 304.35978977272725 924.8861679360001 308.24563209767274 921 313.0390625 921 C 317.83249290232726 921 321.71833522727275 924.8861679360001 321.71833522727275 929.6800000000001 C 321.71833522727275 934.473832064 317.83249290232726 938.36 313.0390625 938.36 C 308.24563209767274 938.36 304.35978977272725 934.473832064 304.35978977272725 929.6800000000001 Z" fill="#ffffff" stroke="none"/></g><g transform="translate(-254,-30) scale(1,1)"><path d="M 304.35978977272725 929.6800000000001 C 304.35978977272725 924.8861679360001 308.24563209767274 921 313.0390625 921 C 317.83249290232726 921 321.71833522727275 924.8861679360001 321.71833522727275 929.6800000000001 C 321.71833522727275 934.473832064 317.83249290232726 938.36 313.0390625 938.36 C 308.24563209767274 938.36 304.35978977272725 934.473832064 304.35978977272725 929.6800000000001 Z" fill="none" stroke="#000000" stroke-miterlimit="10"/></g><g transform="translate(-254,-30) scale(1,1)"><path d="M 313.0390625 938.36 L 313.0390625 955.64" fill="none" stroke="#000000" stroke-miterlimit="10"/></g><g transform="translate(-254,-30) scale(1,1)"><path d="M 303.84924431818183 944.84 L 322.22888068181817 944.84" fill="none" stroke="#000000" stroke-miterlimit="10"/></g><g transform="translate(-254,-30) scale(1,1)"><path d="M 313.0390625 955.64 L 300.27542613636365 973" fill="none" stroke="#000000" stroke-miterlimit="10"/></g><g transform="translate(-254,-30) scale(1,1)"><path d="M 313.0390625 955.64 L 325.80269886363635 973" fill="none" stroke="#000000" stroke-miterlimit="10"/></g><g transform="translate(-254,-30) scale(1,1)"><g><path fill="none" stroke="none"/><text fill="#000000" font-family="Arial" font-size="13px" font-style="normal" font-weight="bold" stroke="none" text-decoration="none" x="284.5" y="992">Recruiter</text></g></g><g transform="translate(-254,-30) scale(1,1)"><path d="M 1536.4093503196023 793.6800000000001 C 1536.4093503196023 788.8861679360001 1540.2951926445478 785 1545.088623046875 785 C 1549.8820534492022 785 1553.7678957741477 788.8861679360001 1553.7678957741477 793.6800000000001 C 1553.7678957741477 798.473832064 1549.8820534492022 802.36 1545.088623046875 802.36 C 1540.2951926445478 802.36 1536.4093503196023 798.473832064 1536.4093503196023 793.6800000000001 Z" fill="#ffffff" stroke="none"/></g><g transform="translate(-254,-30) scale(1,1)"><path d="M 1536.4093503196023 793.6800000000001 C 1536.4093503196023 788.8861679360001 1540.2951926445478 785 1545.088623046875 785 C 1549.8820534492022 785 1553.7678957741477 788.8861679360001 1553.7678957741477 793.6800000000001 C 1553.7678957741477 798.473832064 1549.8820534492022 802.36 1545.088623046875 802.36 C 1540.2951926445478 802.36 1536.4093503196023 798.473832064 1536.4093503196023 793.6800000000001 Z" fill="none" stroke="#000000" stroke-miterlimit="10"/></g><g transform="translate(-254,-30) scale(1,1)"><path d="M 1545.088623046875 802.36 L 1545.088623046875 819.64" fill="none" stroke="#000000" stroke-miterlimit="10"/></g><g transform="translate(-254,-30) scale(1,1)"><path d="M 1535.8988048650567 808.84 L 1554.2784412286933 808.84" fill="none" stroke="#000000" stroke-miterlimit="10"/></g><g transform="translate(-254,-30) scale(1,1)"><path d="M 1545.088623046875 819.64 L 1532.3249866832386 837" fill="none" stroke="#000000" stroke-miterlimit="10"/></g><g transform="translate(-254,-30) scale(1,1)"><path d="M 1545.088623046875 819.64 L 1557.8522594105114 837" fill="none" stroke="#000000" stroke-miterlimit="10"/></g><g transform="translate(-254,-30) scale(1,1)"><g><path fill="none" stroke="none"/><text fill="#000000" font-family="Arial" font-size="13px" font-style="normal" font-weight="bold" stroke="none" text-decoration="none" x="1535.700439453125" y="856">DB</text></g></g><g transform="translate(-254,-30) scale(1,1)"><path d="M 775 840 C 775 830.6111584 810.3695008 823 854 823 C 897.6304992 823 933 830.6111584 933 840 C 933 849.3888416 897.6304992 857 854 857 C 810.3695008 857 775 849.3888416 775 840 Z" fill="#C0C0C0" opacity="0.2" stroke="none"/></g><g transform="translate(-254,-30) scale(1,1)"><path d="M 768 833 C 768 823.6111584 803.3695008 816 847 816 C 890.6304992 816 926 823.6111584 926 833 C 926 842.3888416 890.6304992 850 847 850 C 803.3695008 850 768 842.3888416 768 833 Z" fill="#ffffff" stroke="none"/></g><g transform="translate(-254,-30) scale(1,1)"><path d="M 768 833 C 768 823.6111584 803.3695008 816 847 816 C 890.6304992 816 926 823.6111584 926 833 C 926 842.3888416 890.6304992 850 847 850 C 803.3695008 850 768 842.3888416 768 833 Z" fill="none" stroke="#000000" stroke-miterlimit="10"/></g><g transform="translate(-254,-30) scale(1,1)"><g><path fill="none" stroke="none"/><text fill="#000000" font-family="Arial" font-size="13px" font-style="normal" font-weight="bold" stroke="none" text-decoration="none" x="829.312255859375" y="838.5">Login</text></g></g><g transform="translate(-254,-30) scale(1,1)"><path d="M 330 679 L 751 681" fill="none" stroke="#000000" stroke-miterlimit="10"/></g><g transform="translate(-254,-30) scale(1,1)"><path d="M 346 960 L 424 960 M 424 960 A 8 8 0 0 0 432 952 L 432 841 M 432 841 A 8 8 0 0 1 440 833 L 768 833" fill="none" stroke="#000000" stroke-miterlimit="10"/></g><g transform="translate(-254,-30) scale(1,1)"><path d="M 783 392 C 783 378.19288 815.2354944 367 855 367 C 894.7645056 367 927 378.19288 927 392 C 927 405.80712 894.7645056 417 855 417 C 815.2354944 417 783 405.80712 783 392 Z" fill="#C0C0C0" opacity="0.2" stroke="none"/></g><g transform="translate(-254,-30) scale(1,1)"><path d="M 776 385 C 776 371.19288 808.2354944 360 848 360 C 887.7645056 360 920 371.19288 920 385 C 920 398.80712 887.7645056 410 848 410 C 808.2354944 410 776 398.80712 776 385 Z" fill="#ffffff" stroke="none"/></g><g transform="translate(-254,-30) scale(1,1)"><path d="M 776 385 C 776 371.19288 808.2354944 360 848 360 C 887.7645056 360 920 371.19288 920 385 C 920 398.80712 887.7645056 410 848 410 C 808.2354944 410 776 398.80712 776 385 Z" fill="none" stroke="#000000" stroke-miterlimit="10"/></g><g transform="translate(-254,-30) scale(1,1)"><g><path fill="none" stroke="none"/><text fill="#000000" font-family="Arial" font-size="13px" font-style="normal" font-weight="bold" stroke="none" text-decoration="none" x="805.029541015625" y="390.5">Apply to a job</text></g></g><g transform="translate(-254,-30) scale(1,1)"><path d="M 767 304 C 767 294.6111584 805.9512224 287 854 287 C 902.0487776 287 941 294.6111584 941 304 C 941 313.3888416 902.0487776 321 854 321 C 805.9512224 321 767 313.3888416 767 304 Z" fill="#C0C0C0" opacity="0.2" stroke="none"/></g><g transform="translate(-254,-30) scale(1,1)"><path d="M 760 297 C 760 287.6111584 798.9512224 280 847 280 C 895.0487776 280 934 287.6111584 934 297 C 934 306.3888416 895.0487776 314 847 314 C 798.9512224 314 760 306.3888416 760 297 Z" fill="#ffffff" stroke="none"/></g><g transform="translate(-254,-30) scale(1,1)"><path d="M 760 297 C 760 287.6111584 798.9512224 280 847 280 C 895.0487776 280 934 287.6111584 934 297 C 934 306.3888416 895.0487776 314 847 314 C 798.9512224 314 760 306.3888416 760 297 Z" fill="none" stroke="#000000" stroke-miterlimit="10"/></g><g transform="translate(-254,-30) scale(1,1)"><g><path fill="none" stroke="none"/><text fill="#000000" font-family="Arial" font-size="13px" font-style="normal" font-weight="bold" stroke="none" text-decoration="none" x="803.29638671875" y="302.5">Search for job</text></g></g><g transform="translate(-254,-30) scale(1,1)"><path d="M 791 1144 C 791 1134.6111584 830.3989376 1127 879 1127 C 927.6010624 1127 967 1134.6111584 967 1144 C 967 1153.3888416 927.6010624 1161 879 1161 C 830.3989376 1161 791 1153.3888416 791 1144 Z" fill="#C0C0C0" opacity="0.2" stroke="none"/></g><g transform="translate(-254,-30) scale(1,1)"><path d="M 784 1137 C 784 1127.6111584 823.3989376 1120 872 1120 C 920.6010624 1120 960 1127.6111584 960 1137 C 960 1146.3888416 920.6010624 1154 872 1154 C 823.3989376 1154 784 1146.3888416 784 1137 Z" fill="#ffffff" stroke="none"/></g><g transform="translate(-254,-30) scale(1,1)"><path d="M 784 1137 C 784 1127.6111584 823.3989376 1120 872 1120 C 920.6010624 1120 960 1127.6111584 960 1137 C 960 1146.3888416 920.6010624 1154 872 1154 C 823.3989376 1154 784 1146.3888416 784 1137 Z" fill="none" stroke="#000000" stroke-miterlimit="10"/></g><g transform="translate(-254,-30) scale(1,1)"><g><path fill="none" stroke="none"/><text fill="#000000" font-family="Arial" font-size="13px" font-style="normal" font-weight="bold" stroke="none" text-decoration="none" x="834.183837890625" y="1142.5">View Details</text></g></g><g transform="translate(-254,-30) scale(1,1)"><path d="M 767 968 C 767 958.6111584 806.17508 951 854.5 951 C 902.82492 951 942 958.6111584 942 968 C 942 977.3888416 902.82492 985 854.5 985 C 806.17508 985 767 977.3888416 767 968 Z" fill="#C0C0C0" opacity="0.2" stroke="none"/></g><g transform="translate(-254,-30) scale(1,1)"><path d="M 760 961 C 760 951.6111584 799.17508 944 847.5 944 C 895.82492 944 935 951.6111584 935 961 C 935 970.3888416 895.82492 978 847.5 978 C 799.17508 978 760 970.3888416 760 961 Z" fill="#ffffff" stroke="none"/></g><g transform="translate(-254,-30) scale(1,1)"><path d="M 760 961 C 760 951.6111584 799.17508 944 847.5 944 C 895.82492 944 935 951.6111584 935 961 C 935 970.3888416 895.82492 978 847.5 978 C 799.17508 978 760 970.3888416 760 961 Z" fill="none" stroke="#000000" stroke-miterlimit="10"/></g><g transform="translate(-254,-30) scale(1,1)"><g><path fill="none" stroke="none"/><text fill="#000000" font-family="Arial" font-size="13px" font-style="normal" font-weight="bold" stroke="none" text-decoration="none" x="790.07275390625" y="966.5">Manage Candidate</text></g></g><g transform="translate(-254,-30) scale(1,1)"><path d="M 583 1144 C 583 1134.6111584 625.7568016 1127 678.5 1127 C 731.2431984 1127 774 1134.6111584 774 1144 C 774 1153.3888416 731.2431984 1161 678.5 1161 C 625.7568016 1161 583 1153.3888416 583 1144 Z" fill="#C0C0C0" opacity="0.2" stroke="none"/></g><g transform="translate(-254,-30) scale(1,1)"><path d="M 576 1137 C 576 1127.6111584 618.7568016 1120 671.5 1120 C 724.2431984 1120 767 1127.6111584 767 1137 C 767 1146.3888416 724.2431984 1154 671.5 1154 C 618.7568016 1154 576 1146.3888416 576 1137 Z" fill="#ffffff" stroke="none"/></g><g transform="translate(-254,-30) scale(1,1)"><path d="M 576 1137 C 576 1127.6111584 618.7568016 1120 671.5 1120 C 724.2431984 1120 767 1127.6111584 767 1137 C 767 1146.3888416 724.2431984 1154 671.5 1154 C 618.7568016 1154 576 1146.3888416 576 1137 Z" fill="none" stroke="#000000" stroke-miterlimit="10"/></g><g transform="translate(-254,-30) scale(1,1)"><g><path fill="none" stroke="none"/><text fill="#000000" font-family="Arial" font-size="13px" font-style="normal" font-weight="bold" stroke="none" text-decoration="none" x="608.293212890625" y="1142.5">Job Request History</text></g></g><g transform="translate(-254,-30) scale(1,1)"><path d="M 689 1119 L 829 979" fill="none" stroke="#000000" stroke-dasharray="3" stroke-miterlimit="10"/></g><g transform="translate(-254,-30) scale(1,1)"><path d="M 824.790482243984 989.1626748576241 L 829 979 L 818.8373251423759 983.209517756016" fill="none" stroke="#000000" stroke-miterlimit="10"/></g><g transform="translate(-254,-30) scale(1,1)"><g><path fill="none" stroke="none"/><text fill="#000000" font-family="Arial" font-size="13px" font-style="normal" font-weight="normal" stroke="none" text-decoration="none" x="660.5" y="1098">«include»</text></g></g><g transform="translate(-254,-30) scale(1,1)"><path d="M 869 1119 L 850 979" fill="none" stroke="#000000" stroke-dasharray="3" stroke-miterlimit="10"/></g><g transform="translate(-254,-30) scale(1,1)"><path d="M 855.5379704254225 988.5042560764715 L 850 979 L 847.1954125200203 989.6364603636332" fill="none" stroke="#000000" stroke-miterlimit="10"/></g><g transform="translate(-254,-30) scale(1,1)"><g><path fill="none" stroke="none"/><text fill="#000000" font-family="Arial" font-size="13px" font-style="normal" font-weight="normal" stroke="none" text-decoration="none" x="801.5" y="1057">«include»</text></g></g><g transform="translate(-254,-30) scale(1,1)"><path d="M 1079 1048 C 1079 1038.6111584 1109.4446336 1031 1147 1031 C 1184.5553664 1031 1215 1038.6111584 1215 1048 C 1215 1057.3888416 1184.5553664 1065 1147 1065 C 1109.4446336 1065 1079 1057.3888416 1079 1048 Z" fill="#C0C0C0" opacity="0.2" stroke="none"/></g><g transform="translate(-254,-30) scale(1,1)"><path d="M 1072 1041 C 1072 1031.6111584 1102.4446336 1024 1140 1024 C 1177.5553664 1024 1208 1031.6111584 1208 1041 C 1208 1050.3888416 1177.5553664 1058 1140 1058 C 1102.4446336 1058 1072 1050.3888416 1072 1041 Z" fill="#ffffff" stroke="none"/></g><g transform="translate(-254,-30) scale(1,1)"><path d="M 1072 1041 C 1072 1031.6111584 1102.4446336 1024 1140 1024 C 1177.5553664 1024 1208 1031.6111584 1208 1041 C 1208 1050.3888416 1177.5553664 1058 1140 1058 C 1102.4446336 1058 1072 1050.3888416 1072 1041 Z" fill="none" stroke="#000000" stroke-miterlimit="10"/></g><g transform="translate(-254,-30) scale(1,1)"><g><path fill="none" stroke="none"/><text fill="#000000" font-family="Arial" font-size="13px" font-style="normal" font-weight="bold" stroke="none" text-decoration="none" x="1096.299560546875" y="1046.5">Update Status</text></g></g><g transform="translate(-254,-30) scale(1,1)"><path d="M 1074 1023 L 913 979" fill="none" stroke="#000000" stroke-dasharray="3" stroke-miterlimit="10"/></g><g transform="translate(-254,-30) scale(1,1)"><path d="M 923.9129058760459 977.6185205971266 L 913 979 L 921.6934432012439 985.7397362935612" fill="none" stroke="#000000" stroke-miterlimit="10"/></g><g transform="translate(-254,-30) scale(1,1)"><g><path fill="none" stroke="none"/><text fill="#000000" font-family="Arial" font-size="13px" font-style="normal" font-weight="normal" stroke="none" text-decoration="none" x="983.5" y="995">«include»</text></g></g><g transform="translate(-254,-30) scale(1,1)"><path d="M 791 1240 C 791 1230.6111584 819.8776304 1223 855.5 1223 C 891.1223696 1223 920 1230.6111584 920 1240 C 920 1249.3888416 891.1223696 1257 855.5 1257 C 819.8776304 1257 791 1249.3888416 791 1240 Z" fill="#C0C0C0" opacity="0.2" stroke="none"/></g><g transform="translate(-254,-30) scale(1,1)"><path d="M 784 1233 C 784 1223.6111584 812.8776304 1216 848.5 1216 C 884.1223696 1216 913 1223.6111584 913 1233 C 913 1242.3888416 884.1223696 1250 848.5 1250 C 812.8776304 1250 784 1242.3888416 784 1233 Z" fill="#ffffff" stroke="none"/></g><g transform="translate(-254,-30) scale(1,1)"><path d="M 784 1233 C 784 1223.6111584 812.8776304 1216 848.5 1216 C 884.1223696 1216 913 1223.6111584 913 1233 C 913 1242.3888416 884.1223696 1250 848.5 1250 C 812.8776304 1250 784 1242.3888416 784 1233 Z" fill="none" stroke="#000000" stroke-miterlimit="10"/></g><g transform="translate(-254,-30) scale(1,1)"><g><path fill="none" stroke="none"/><text fill="#000000" font-family="Arial" font-size="13px" font-style="normal" font-weight="bold" stroke="none" text-decoration="none" x="807.32275390625" y="1238.5">Manage Jobs</text></g></g><g transform="translate(-254,-30) scale(1,1)"><path d="M 535 1328 C 535 1318.6111584 557.6096176 1311 585.5 1311 C 613.3903824 1311 636 1318.6111584 636 1328 C 636 1337.3888416 613.3903824 1345 585.5 1345 C 557.6096176 1345 535 1337.3888416 535 1328 Z" fill="#C0C0C0" opacity="0.2" stroke="none"/></g><g transform="translate(-254,-30) scale(1,1)"><path d="M 528 1321 C 528 1311.6111584 550.6096176 1304 578.5 1304 C 606.3903824 1304 629 1311.6111584 629 1321 C 629 1330.3888416 606.3903824 1338 578.5 1338 C 550.6096176 1338 528 1330.3888416 528 1321 Z" fill="#ffffff" stroke="none"/></g><g transform="translate(-254,-30) scale(1,1)"><path d="M 528 1321 C 528 1311.6111584 550.6096176 1304 578.5 1304 C 606.3903824 1304 629 1311.6111584 629 1321 C 629 1330.3888416 606.3903824 1338 578.5 1338 C 550.6096176 1338 528 1330.3888416 528 1321 Z" fill="none" stroke="#000000" stroke-miterlimit="10"/></g><g transform="translate(-254,-30) scale(1,1)"><g><path fill="none" stroke="none"/><text fill="#000000" font-family="Arial" font-size="13px" font-style="normal" font-weight="bold" stroke="none" text-decoration="none" x="565.864990234375" y="1326.5">Add</text></g></g><g transform="translate(-254,-30) scale(1,1)"><path d="M 815 1392 C 815 1382.6111584 837.6096176 1375 865.5 1375 C 893.3903824 1375 916 1382.6111584 916 1392 C 916 1401.3888416 893.3903824 1409 865.5 1409 C 837.6096176 1409 815 1401.3888416 815 1392 Z" fill="#C0C0C0" opacity="0.2" stroke="none"/></g><g transform="translate(-254,-30) scale(1,1)"><path d="M 808 1385 C 808 1375.6111584 830.6096176 1368 858.5 1368 C 886.3903824 1368 909 1375.6111584 909 1385 C 909 1394.3888416 886.3903824 1402 858.5 1402 C 830.6096176 1402 808 1394.3888416 808 1385 Z" fill="#ffffff" stroke="none"/></g><g transform="translate(-254,-30) scale(1,1)"><path d="M 808 1385 C 808 1375.6111584 830.6096176 1368 858.5 1368 C 886.3903824 1368 909 1375.6111584 909 1385 C 909 1394.3888416 886.3903824 1402 858.5 1402 C 830.6096176 1402 808 1394.3888416 808 1385 Z" fill="none" stroke="#000000" stroke-miterlimit="10"/></g><g transform="translate(-254,-30) scale(1,1)"><g><path fill="none" stroke="none"/><text fill="#000000" font-family="Arial" font-size="13px" font-style="normal" font-weight="bold" stroke="none" text-decoration="none" x="833.2109375" y="1390.5">Remove</text></g></g><g transform="translate(-254,-30) scale(1,1)"><path d="M 655 1384 C 655 1374.6111584 677.6096176 1367 705.5 1367 C 733.3903824 1367 756 1374.6111584 756 1384 C 756 1393.3888416 733.3903824 1401 705.5 1401 C 677.6096176 1401 655 1393.3888416 655 1384 Z" fill="#C0C0C0" opacity="0.2" stroke="none"/></g><g transform="translate(-254,-30) scale(1,1)"><path d="M 648 1377 C 648 1367.6111584 670.6096176 1360 698.5 1360 C 726.3903824 1360 749 1367.6111584 749 1377 C 749 1386.3888416 726.3903824 1394 698.5 1394 C 670.6096176 1394 648 1386.3888416 648 1377 Z" fill="#ffffff" stroke="none"/></g><g transform="translate(-254,-30) scale(1,1)"><path d="M 648 1377 C 648 1367.6111584 670.6096176 1360 698.5 1360 C 726.3903824 1360 749 1367.6111584 749 1377 C 749 1386.3888416 726.3903824 1394 698.5 1394 C 670.6096176 1394 648 1386.3888416 648 1377 Z" fill="none" stroke="#000000" stroke-miterlimit="10"/></g><g transform="translate(-254,-30) scale(1,1)"><g><path fill="none" stroke="none"/><text fill="#000000" font-family="Arial" font-size="13px" font-style="normal" font-weight="bold" stroke="none" text-decoration="none" x="686.2236328125" y="1382.5">Edit</text></g></g><g transform="translate(-254,-30) scale(1,1)"><path d="M 630 1304 L 793 1251" fill="none" stroke="#000000" stroke-dasharray="3" stroke-miterlimit="10"/></g><g transform="translate(-254,-30) scale(1,1)"><path d="M 784.6370444289181 1258.145696195341 L 793 1251 L 782.0337271689017 1250.1392676409507" fill="none" stroke="#000000" stroke-miterlimit="10"/></g><g transform="translate(-254,-30) scale(1,1)"><g><path fill="none" stroke="none"/><text fill="#000000" font-family="Arial" font-size="13px" font-style="normal" font-weight="normal" stroke="none" text-decoration="none" x="663.5" y="1272">«include»</text></g></g><g transform="translate(-254,-30) scale(1,1)"><path d="M 717 1359 L 829 1251" fill="none" stroke="#000000" stroke-dasharray="3" stroke-miterlimit="10"/></g><g transform="translate(-254,-30) scale(1,1)"><path d="M 824.6064324869807 1261.0844714540992 L 829 1251 L 818.7624804680675 1255.0240767678188" fill="none" stroke="#000000" stroke-miterlimit="10"/></g><g transform="translate(-254,-30) scale(1,1)"><g><path fill="none" stroke="none"/><text fill="#000000" font-family="Arial" font-size="13px" font-style="normal" font-weight="normal" stroke="none" text-decoration="none" x="724.5" y="1288">«include»</text></g></g><g transform="translate(-254,-30) scale(1,1)"><path d="M 857 1367 L 849 1251" fill="none" stroke="#000000" stroke-dasharray="3" stroke-miterlimit="10"/></g><g transform="translate(-254,-30) scale(1,1)"><path d="M 853.8987558680482 1260.8489690295617 L 849 1251 L 845.4996707051749 1261.4282162821735" fill="none" stroke="#000000" stroke-miterlimit="10"/></g><g transform="translate(-254,-30) scale(1,1)"><g><path fill="none" stroke="none"/><text fill="#000000" font-family="Arial" font-size="13px" font-style="normal" font-weight="normal" stroke="none" text-decoration="none" x="795.5" y="1316">«include»</text></g></g><g transform="translate(-254,-30) scale(1,1)"><path d="M 347 959 L 432 960 L 759 961" fill="none" stroke="#000000" stroke-miterlimit="10"/></g><g transform="translate(-254,-30) scale(1,1)"><path d="M 759 688 C 759 678.6111584 796.3842192 671 842.5 671 C 888.6157808 671 926 678.6111584 926 688 C 926 697.3888416 888.6157808 705 842.5 705 C 796.3842192 705 759 697.3888416 759 688 Z" fill="#C0C0C0" opacity="0.2" stroke="none"/></g><g transform="translate(-254,-30) scale(1,1)"><path d="M 752 681 C 752 671.6111584 789.3842192 664 835.5 664 C 881.6157808 664 919 671.6111584 919 681 C 919 690.3888416 881.6157808 698 835.5 698 C 789.3842192 698 752 690.3888416 752 681 Z" fill="#ffffff" stroke="none"/></g><g transform="translate(-254,-30) scale(1,1)"><path d="M 752 681 C 752 671.6111584 789.3842192 664 835.5 664 C 881.6157808 664 919 671.6111584 919 681 C 919 690.3888416 881.6157808 698 835.5 698 C 789.3842192 698 752 690.3888416 752 681 Z" fill="none" stroke="#000000" stroke-miterlimit="10"/></g><g transform="translate(-254,-30) scale(1,1)"><g><path fill="none" stroke="none"/><text fill="#000000" font-family="Arial" font-size="13px" font-style="normal" font-weight="bold" stroke="none" text-decoration="none" x="780.95458984375" y="686.5">Manage Recruiter</text></g></g><g transform="translate(-254,-30) scale(1,1)"><path d="M 823 616 C 823 606.6111584 855.2354944 599 895 599 C 934.7645056 599 967 606.6111584 967 616 C 967 625.3888416 934.7645056 633 895 633 C 855.2354944 633 823 625.3888416 823 616 Z" fill="#C0C0C0" opacity="0.2" stroke="none"/></g><g transform="translate(-254,-30) scale(1,1)"><path d="M 816 609 C 816 599.6111584 848.2354944 592 888 592 C 927.7645056 592 960 599.6111584 960 609 C 960 618.3888416 927.7645056 626 888 626 C 848.2354944 626 816 618.3888416 816 609 Z" fill="#ffffff" stroke="none"/></g><g transform="translate(-254,-30) scale(1,1)"><path d="M 816 609 C 816 599.6111584 848.2354944 592 888 592 C 927.7645056 592 960 599.6111584 960 609 C 960 618.3888416 927.7645056 626 888 626 C 848.2354944 626 816 618.3888416 816 609 Z" fill="none" stroke="#000000" stroke-miterlimit="10"/></g><g transform="translate(-254,-30) scale(1,1)"><g><path fill="none" stroke="none"/><text fill="#000000" font-family="Arial" font-size="13px" font-style="normal" font-weight="bold" stroke="none" text-decoration="none" x="845.02001953125" y="614.5">Add Recruiter</text></g></g><g transform="translate(-254,-30) scale(1,1)"><path d="M 999 624 C 999 614.6111584 1035.7126464 607 1081 607 C 1126.2873536 607 1163 614.6111584 1163 624 C 1163 633.3888416 1126.2873536 641 1081 641 C 1035.7126464 641 999 633.3888416 999 624 Z" fill="#C0C0C0" opacity="0.2" stroke="none"/></g><g transform="translate(-254,-30) scale(1,1)"><path d="M 992 617 C 992 607.6111584 1028.7126464 600 1074 600 C 1119.2873536 600 1156 607.6111584 1156 617 C 1156 626.3888416 1119.2873536 634 1074 634 C 1028.7126464 634 992 626.3888416 992 617 Z" fill="#ffffff" stroke="none"/></g><g transform="translate(-254,-30) scale(1,1)"><path d="M 992 617 C 992 607.6111584 1028.7126464 600 1074 600 C 1119.2873536 600 1156 607.6111584 1156 617 C 1156 626.3888416 1119.2873536 634 1074 634 C 1028.7126464 634 992 626.3888416 992 617 Z" fill="none" stroke="#000000" stroke-miterlimit="10"/></g><g transform="translate(-254,-30) scale(1,1)"><g><path fill="none" stroke="none"/><text fill="#000000" font-family="Arial" font-size="13px" font-style="normal" font-weight="bold" stroke="none" text-decoration="none" x="1020.530517578125" y="622.5">Remove recruiter</text></g></g><g transform="translate(-254,-30) scale(1,1)"><path d="M 875 627 L 848 663" fill="none" stroke="#000000" stroke-dasharray="3" stroke-miterlimit="10"/></g><g transform="translate(-254,-30) scale(1,1)"><path d="M 850.7299907097618 652.3441494602911 L 848 663 L 857.4652191193873 657.3955707675103" fill="none" stroke="#000000" stroke-miterlimit="10"/></g><g transform="translate(-254,-30) scale(1,1)"><g><path fill="none" stroke="none"/><text fill="#000000" font-family="Arial" font-size="13px" font-style="normal" font-weight="normal" stroke="none" text-decoration="none" x="864.5" y="650">«include»</text></g></g><g transform="translate(-254,-30) scale(1,1)"><path d="M 1007 635 L 902 663" fill="none" stroke="#000000" stroke-dasharray="3" stroke-miterlimit="10"/></g><g transform="translate(-254,-30) scale(1,1)"><path d="M 910.7348960246477 656.3140751246673 L 902 663 L 912.9041670298394 664.4488413941361" fill="none" stroke="#000000" stroke-miterlimit="10"/></g><g transform="translate(-254,-30) scale(1,1)"><g><path fill="none" stroke="none"/><text fill="#000000" font-family="Arial" font-size="13px" font-style="normal" font-weight="normal" stroke="none" text-decoration="none" x="933.5" y="682">«include»</text></g></g><g transform="translate(-254,-30) scale(1,1)"><path d="M 919 681 L 1537 681 M 1537 681 A 8 8 0 0 1 1545 689 L 1545 784" fill="none" stroke="#000000" stroke-miterlimit="10"/></g><g transform="translate(-254,-30) scale(1,1)"><path d="M 608 480 L 789 480 L 799 490 L 799 551 L 608 551 L 608 480" fill="#ffffff" stroke="none"/></g><g transform="translate(-254,-30) scale(1,1)"><path d="M 608 480 L 789 480 L 799 490 L 799 551 L 608 551 L 608 480 L 608 480" fill="none" stroke="#000000" stroke-miterlimit="10"/></g><g transform="translate(-254,-30) scale(1,1)"><path d="M 789 480 L 789 490 L 799 490 L 789 480" fill="none" stroke="#000000" stroke-miterlimit="10"/></g><g transform="translate(-254,-30) scale(1,1)"><g><path fill="none" stroke="none"/><text fill="#000000" font-family="Arial" font-size="13px" font-style="normal" font-weight="normal" stroke="none" text-decoration="none" x="613" y="495">All through the website. social</text><text fill="#000000" font-family="Arial" font-size="13px" font-style="normal" font-weight="normal" stroke="none" text-decoration="none" x="613" y="508">media app links should link to</text><text fill="#000000" font-family="Arial" font-size="13px" font-style="normal" font-weight="normal" stroke="none" text-decoration="none" x="613" y="521">the website.</text></g></g><g transform="translate(-254,-30) scale(1,1)"><path d="M 824 240 L 824 240" fill="none" stroke="#000000" stroke-miterlimit="10"/></g><g transform="translate(-254,-30) scale(1,1)"><path d="M 799 472 C 799 462.6111584 824.743624 455 856.5 455 C 888.256376 455 914 462.6111584 914 472 C 914 481.3888416 888.256376 489 856.5 489 C 824.743624 489 799 481.3888416 799 472 Z" fill="#C0C0C0" opacity="0.2" stroke="none"/></g><g transform="translate(-254,-30) scale(1,1)"><path d="M 792 465 C 792 455.6111584 817.743624 448 849.5 448 C 881.256376 448 907 455.6111584 907 465 C 907 474.3888416 881.256376 482 849.5 482 C 817.743624 482 792 474.3888416 792 465 Z" fill="#ffffff" stroke="none"/></g><g transform="translate(-254,-30) scale(1,1)"><path d="M 792 465 C 792 455.6111584 817.743624 448 849.5 448 C 881.256376 448 907 455.6111584 907 465 C 907 474.3888416 881.256376 482 849.5 482 C 817.743624 482 792 474.3888416 792 465 Z" fill="none" stroke="#000000" stroke-miterlimit="10"/></g><g transform="translate(-254,-30) scale(1,1)"><g><path fill="none" stroke="none"/><text fill="#000000" font-family="Arial" font-size="13px" font-style="normal" font-weight="bold" stroke="none" text-decoration="none" x="813.13427734375" y="470.5">View Status</text></g></g><g transform="translate(-254,-30) scale(1,1)"><path d="M 655 138.5 C 655 127.7304464 687.0116368 119 726.5 119 C 765.9883632 119 798 127.7304464 798 138.5 C 798 149.2695536 765.9883632 158 726.5 158 C 687.0116368 158 655 149.2695536 655 138.5 Z" fill="#C0C0C0" opacity="0.2" stroke="none"/></g><g transform="translate(-254,-30) scale(1,1)"><path d="M 648 131.5 C 648 120.7304464 680.0116368 112 719.5 112 C 758.9883632 112 791 120.7304464 791 131.5 C 791 142.2695536 758.9883632 151 719.5 151 C 680.0116368 151 648 142.2695536 648 131.5 Z" fill="#ffffff" stroke="none"/></g><g transform="translate(-254,-30) scale(1,1)"><path d="M 648 131.5 C 648 120.7304464 680.0116368 112 719.5 112 C 758.9883632 112 791 120.7304464 791 131.5 C 791 142.2695536 758.9883632 151 719.5 151 C 680.0116368 151 648 142.2695536 648 131.5 Z" fill="none" stroke="#000000" stroke-miterlimit="10"/></g><g transform="translate(-254,-30) scale(1,1)"><g><path fill="none" stroke="none"/><text fill="#000000" font-family="Arial" font-size="13px" font-style="normal" font-weight="bold" stroke="none" text-decoration="none" x="674.701416015625" y="137">Search by role</text></g></g><g transform="translate(-254,-30) scale(1,1)"><path d="M 463 136 C 463 126.6111584 499.2649312 119 544 119 C 588.7350688 119 625 126.6111584 625 136 C 625 145.3888416 588.7350688 153 544 153 C 499.2649312 153 463 145.3888416 463 136 Z" fill="#C0C0C0" opacity="0.2" stroke="none"/></g><g transform="translate(-254,-30) scale(1,1)"><path d="M 456 129 C 456 119.6111584 492.2649312 112 537 112 C 581.7350688 112 618 119.6111584 618 129 C 618 138.3888416 581.7350688 146 537 146 C 492.2649312 146 456 138.3888416 456 129 Z" fill="#ffffff" stroke="none"/></g><g transform="translate(-254,-30) scale(1,1)"><path d="M 456 129 C 456 119.6111584 492.2649312 112 537 112 C 581.7350688 112 618 119.6111584 618 129 C 618 138.3888416 581.7350688 146 537 146 C 492.2649312 146 456 138.3888416 456 129 Z" fill="none" stroke="#000000" stroke-miterlimit="10"/></g><g transform="translate(-254,-30) scale(1,1)"><g><path fill="none" stroke="none"/><text fill="#000000" font-family="Arial" font-size="13px" font-style="normal" font-weight="bold" stroke="none" text-decoration="none" x="484.260498046875" y="134.5">Search by region</text></g></g><g transform="translate(-254,-30) scale(1,1)"><path d="M 839 136 C 839 126.6111584 910.4105744 119 998.5 119 C 1086.5894256 119 1158 126.6111584 1158 136 C 1158 145.3888416 1086.5894256 153 998.5 153 C 910.4105744 153 839 145.3888416 839 136 Z" fill="#C0C0C0" opacity="0.2" stroke="none"/></g><g transform="translate(-254,-30) scale(1,1)"><path d="M 832 129 C 832 119.6111584 903.4105744 112 991.5 112 C 1079.5894256 112 1151 119.6111584 1151 129 C 1151 138.3888416 1079.5894256 146 991.5 146 C 903.4105744 146 832 138.3888416 832 129 Z" fill="#ffffff" stroke="none"/></g><g transform="translate(-254,-30) scale(1,1)"><path d="M 832 129 C 832 119.6111584 903.4105744 112 991.5 112 C 1079.5894256 112 1151 119.6111584 1151 129 C 1151 138.3888416 1079.5894256 146 991.5 146 C 903.4105744 146 832 138.3888416 832 129 Z" fill="none" stroke="#000000" stroke-miterlimit="10"/></g><g transform="translate(-254,-30) scale(1,1)"><g><path fill="none" stroke="none"/><text fill="#000000" font-family="Arial" font-size="13px" font-style="normal" font-weight="bold" stroke="none" text-decoration="none" x="883.13916015625" y="134.5">Search by appointment percentage</text></g></g><g transform="translate(-254,-30) scale(1,1)"><path d="M 1183 144 C 1183 134.6111584 1229.1146656 127 1286 127 C 1342.8853344 127 1389 134.6111584 1389 144 C 1389 153.3888416 1342.8853344 161 1286 161 C 1229.1146656 161 1183 153.3888416 1183 144 Z" fill="#C0C0C0" opacity="0.2" stroke="none"/></g><g transform="translate(-254,-30) scale(1,1)"><path d="M 1176 137 C 1176 127.6111584 1222.1146656 120 1279 120 C 1335.8853344 120 1382 127.6111584 1382 137 C 1382 146.3888416 1335.8853344 154 1279 154 C 1222.1146656 154 1176 146.3888416 1176 137 Z" fill="#ffffff" stroke="none"/></g><g transform="translate(-254,-30) scale(1,1)"><path d="M 1176 137 C 1176 127.6111584 1222.1146656 120 1279 120 C 1335.8853344 120 1382 127.6111584 1382 137 C 1382 146.3888416 1335.8853344 154 1279 154 C 1222.1146656 154 1176 146.3888416 1176 137 Z" fill="none" stroke="#000000" stroke-miterlimit="10"/></g><g transform="translate(-254,-30) scale(1,1)"><g><path fill="none" stroke="none"/><text fill="#000000" font-family="Arial" font-size="13px" font-style="normal" font-weight="bold" stroke="none" text-decoration="none" x="1210.734130859375" y="142.5">Search by job number</text></g></g><g transform="translate(-254,-30) scale(1,1)"><path d="M 336 384 L 416 384 M 416 384 A 8 8 0 0 0 424 376 L 424 305 M 424 305 A 8 8 0 0 1 432 297 L 760 297" fill="none" stroke="#000000" stroke-miterlimit="10"/></g><g transform="translate(-254,-30) scale(1,1)"><path d="M 337 383 L 775 385" fill="none" stroke="#000000" stroke-miterlimit="10"/></g><g transform="translate(-254,-30) scale(1,1)"><path d="M 336 384 L 416 384 M 416 384 A 8 8 0 0 1 424 392 L 424 456 M 424 456 A 8 8 0 0 0 432 464 L 792 464" fill="none" stroke="#000000" stroke-miterlimit="10"/></g><g transform="translate(-254,-30) scale(1,1)"><path d="M 570 147 L 814 279" fill="none" stroke="#000000" stroke-dasharray="3" stroke-miterlimit="10"/></g><g transform="translate(-254,-30) scale(1,1)"><path d="M 803.0585191492906 277.86686417691396 L 814 279 L 807.0644527187502 270.46195666973114" fill="none" stroke="#000000" stroke-miterlimit="10"/></g><g transform="translate(-254,-30) scale(1,1)"><g><path fill="none" stroke="none"/><text fill="#000000" font-family="Arial" font-size="13px" font-style="normal" font-weight="normal" stroke="none" text-decoration="none" x="678.5" y="191">«include»</text></g></g><g transform="translate(-254,-30) scale(1,1)"><path d="M 735 152 L 833 279" fill="none" stroke="#000000" stroke-dasharray="3" stroke-miterlimit="10"/></g><g transform="translate(-254,-30) scale(1,1)"><path d="M 823.4588095560991 273.52590784575057 L 833 279 L 830.1241272196353 268.3825918534156" fill="none" stroke="#000000" stroke-miterlimit="10"/></g><g transform="translate(-254,-30) scale(1,1)"><g><path fill="none" stroke="none"/><text fill="#000000" font-family="Arial" font-size="13px" font-style="normal" font-weight="normal" stroke="none" text-decoration="none" x="779.5" y="201">«include»</text></g></g><g transform="translate(-254,-30) scale(1,1)"><path d="M 976 147 L 862 279" fill="none" stroke="#000000" stroke-dasharray="3" stroke-miterlimit="10"/></g><g transform="translate(-254,-30) scale(1,1)"><path d="M 865.4566663334441 268.55722939736614 L 862 279 L 871.8283861121755 274.06007829717964" fill="none" stroke="#000000" stroke-miterlimit="10"/></g><g transform="translate(-254,-30) scale(1,1)"><g><path fill="none" stroke="none"/><text fill="#000000" font-family="Arial" font-size="13px" font-style="normal" font-weight="normal" stroke="none" text-decoration="none" x="913.5" y="237">«include»</text></g></g><g transform="translate(-254,-30) scale(1,1)"><path d="M 1230 155 L 896 279" fill="none" stroke="#000000" stroke-dasharray="3" stroke-miterlimit="10"/></g><g transform="translate(-254,-30) scale(1,1)"><path d="M 904.0621761096198 271.5165972727993 L 896 279 L 906.9923842129859 279.40925458347886" fill="none" stroke="#000000" stroke-miterlimit="10"/></g><g transform="translate(-254,-30) scale(1,1)"><g><path fill="none" stroke="none"/><text fill="#000000" font-family="Arial" font-size="13px" font-style="normal" font-weight="normal" stroke="none" text-decoration="none" x="1045.5" y="250">«include»</text></g></g><g transform="translate(-254,-30) scale(1,1)"><path d="M 934 297 L 1537 297 M 1537 297 A 8 8 0 0 1 1545 305 L 1545 784" fill="none" stroke="#000000" stroke-miterlimit="10"/></g><g transform="translate(-254,-30) scale(1,1)"><path d="M 920 384 L 1537 384 M 1537 384 A 8 8 0 0 1 1545 392 L 1545 784" fill="none" stroke="#000000" stroke-miterlimit="10"/></g><g transform="translate(-254,-30) scale(1,1)"><path d="M 907 464 L 1537 464 M 1537 464 A 8 8 0 0 1 1545 472 L 1545 784" fill="none" stroke="#000000" stroke-miterlimit="10"/></g><g transform="translate(-254,-30) scale(1,1)"><path d="M 329 680 L 424 680 M 424 680 A 8 8 0 0 1 432 688 L 432 824 M 432 824 A 8 8 0 0 0 440 832 L 768 832" fill="none" stroke="#000000" stroke-miterlimit="10"/></g><g transform="translate(-254,-30) scale(1,1)"><path d="M 943 512 C 943 502.6111584 965.6096176 495 993.5 495 C 1021.3903824 495 1044 502.6111584 1044 512 C 1044 521.3888416 1021.3903824 529 993.5 529 C 965.6096176 529 943 521.3888416 943 512 Z" fill="#C0C0C0" opacity="0.2" stroke="none"/></g><g transform="translate(-254,-30) scale(1,1)"><path d="M 936 505 C 936 495.6111584 958.6096176 488 986.5 488 C 1014.3903824 488 1037 495.6111584 1037 505 C 1037 514.3888416 1014.3903824 522 986.5 522 C 958.6096176 522 936 514.3888416 936 505 Z" fill="#ffffff" stroke="none"/></g><g transform="translate(-254,-30) scale(1,1)"><path d="M 936 505 C 936 495.6111584 958.6096176 488 986.5 488 C 1014.3903824 488 1037 495.6111584 1037 505 C 1037 514.3888416 1014.3903824 522 986.5 522 C 958.6096176 522 936 514.3888416 936 505 Z" fill="none" stroke="#000000" stroke-miterlimit="10"/></g><g transform="translate(-254,-30) scale(1,1)"><g><path fill="none" stroke="none"/><text fill="#000000" font-family="Arial" font-size="13px" font-style="normal" font-weight="bold" stroke="none" text-decoration="none" x="963.38818359375" y="510.5">Identify</text></g></g><g transform="translate(-254,-30) scale(1,1)"><path d="M 935 490 L 908 482" fill="none" stroke="#000000" stroke-dasharray="3" stroke-miterlimit="10"/></g><g transform="translate(-254,-30) scale(1,1)"><path d="M 918.9398283416717 480.8510196456184 L 908 482 L 916.5480786054462 488.92317500537956" fill="none" stroke="#000000" stroke-miterlimit="10"/></g><g transform="translate(-254,-30) scale(1,1)"><g><path fill="none" stroke="none"/><text fill="#000000" font-family="Arial" font-size="13px" font-style="normal" font-weight="normal" stroke="none" text-decoration="none" x="884.5" y="519">«include»</text></g></g><g transform="translate(-254,-30) scale(1,1)"><path d="M 495 1032 C 495 1022.6111584 526.1162064 1015 564.5 1015 C 602.8837936 1015 634 1022.6111584 634 1032 C 634 1041.3888416 602.8837936 1049 564.5 1049 C 526.1162064 1049 495 1041.3888416 495 1032 Z" fill="#C0C0C0" opacity="0.2" stroke="none"/></g><g transform="translate(-254,-30) scale(1,1)"><path d="M 488 1025 C 488 1015.6111584 519.1162064 1008 557.5 1008 C 595.8837936 1008 627 1015.6111584 627 1025 C 627 1034.3888416 595.8837936 1042 557.5 1042 C 519.1162064 1042 488 1034.3888416 488 1025 Z" fill="#ffffff" stroke="none"/></g><g transform="translate(-254,-30) scale(1,1)"><path d="M 488 1025 C 488 1015.6111584 519.1162064 1008 557.5 1008 C 595.8837936 1008 627 1015.6111584 627 1025 C 627 1034.3888416 595.8837936 1042 557.5 1042 C 519.1162064 1042 488 1034.3888416 488 1025 Z" fill="none" stroke="#000000" stroke-miterlimit="10"/></g><g transform="translate(-254,-30) scale(1,1)"><g><path fill="none" stroke="none"/><text fill="#000000" font-family="Arial" font-size="13px" font-style="normal" font-weight="bold" stroke="none" text-decoration="none" x="512.71728515625" y="1030.5">Add candidate</text></g></g><g transform="translate(-254,-30) scale(1,1)"><path d="M 487 1096 C 487 1086.6111584 517.4446336 1079 555 1079 C 592.5553664 1079 623 1086.6111584 623 1096 C 623 1105.3888416 592.5553664 1113 555 1113 C 517.4446336 1113 487 1105.3888416 487 1096 Z" fill="#C0C0C0" opacity="0.2" stroke="none"/></g><g transform="translate(-254,-30) scale(1,1)"><path d="M 480 1089 C 480 1079.6111584 510.4446336 1072 548 1072 C 585.5553664 1072 616 1079.6111584 616 1089 C 616 1098.3888416 585.5553664 1106 548 1106 C 510.4446336 1106 480 1098.3888416 480 1089 Z" fill="#ffffff" stroke="none"/></g><g transform="translate(-254,-30) scale(1,1)"><path d="M 480 1089 C 480 1079.6111584 510.4446336 1072 548 1072 C 585.5553664 1072 616 1079.6111584 616 1089 C 616 1098.3888416 585.5553664 1106 548 1106 C 510.4446336 1106 480 1098.3888416 480 1089 Z" fill="none" stroke="#000000" stroke-miterlimit="10"/></g><g transform="translate(-254,-30) scale(1,1)"><g><path fill="none" stroke="none"/><text fill="#000000" font-family="Arial" font-size="13px" font-style="normal" font-weight="bold" stroke="none" text-decoration="none" x="504.29638671875" y="1094.5">edit candidate</text></g></g><g transform="translate(-254,-30) scale(1,1)"><path d="M 628 1009 L 765 979" fill="none" stroke="#000000" stroke-dasharray="3" stroke-miterlimit="10"/></g><g transform="translate(-254,-30) scale(1,1)"><path d="M 755.9730116476757 985.2859749670995 L 765 979 L 754.1720997967745 977.0618108479845" fill="none" stroke="#000000" stroke-miterlimit="10"/></g><g transform="translate(-254,-30) scale(1,1)"><g><path fill="none" stroke="none"/><text fill="#000000" font-family="Arial" font-size="13px" font-style="normal" font-weight="normal" stroke="none" text-decoration="none" x="647.5" y="986">«include»</text></g></g><g transform="translate(-254,-30) scale(1,1)"><path d="M 590 1071 L 805 979" fill="none" stroke="#000000" stroke-dasharray="3" stroke-miterlimit="10"/></g><g transform="translate(-254,-30) scale(1,1)"><path d="M 797.3128191756592 986.8681161006868 L 805 979 L 794.0007440609427 979.1279405608602" fill="none" stroke="#000000" stroke-miterlimit="10"/></g><g transform="translate(-254,-30) scale(1,1)"><g><path fill="none" stroke="none"/><text fill="#000000" font-family="Arial" font-size="13px" font-style="normal" font-weight="normal" stroke="none" text-decoration="none" x="653.5" y="1058">«include»</text></g></g><g transform="translate(-254,-30) scale(1,1)"><path d="M 346 960 L 424 960 M 424 960 A 8 8 0 0 1 432 968 L 432 1225 M 432 1225 A 8 8 0 0 0 440 1233 L 784 1233" fill="none" stroke="#000000" stroke-miterlimit="10"/></g><g transform="translate(-254,-30) scale(1,1)"><path d="M 1071 1288 C 1071 1278.6111584 1116.6669504 1271 1173 1271 C 1229.3330496 1271 1275 1278.6111584 1275 1288 C 1275 1297.3888416 1229.3330496 1305 1173 1305 C 1116.6669504 1305 1071 1297.3888416 1071 1288 Z" fill="#C0C0C0" opacity="0.2" stroke="none"/></g><g transform="translate(-254,-30) scale(1,1)"><path d="M 1064 1281 C 1064 1271.6111584 1109.6669504 1264 1166 1264 C 1222.3330496 1264 1268 1271.6111584 1268 1281 C 1268 1290.3888416 1222.3330496 1298 1166 1298 C 1109.6669504 1298 1064 1290.3888416 1064 1281 Z" fill="#ffffff" stroke="none"/></g><g transform="translate(-254,-30) scale(1,1)"><path d="M 1064 1281 C 1064 1271.6111584 1109.6669504 1264 1166 1264 C 1222.3330496 1264 1268 1271.6111584 1268 1281 C 1268 1290.3888416 1222.3330496 1298 1166 1298 C 1109.6669504 1298 1064 1290.3888416 1064 1281 Z" fill="none" stroke="#000000" stroke-miterlimit="10"/></g><g transform="translate(-254,-30) scale(1,1)"><g><path fill="none" stroke="none"/><text fill="#000000" font-family="Arial" font-size="13px" font-style="normal" font-weight="bold" stroke="none" text-decoration="none" x="1098.45458984375" y="1286.5">Display Candidate list</text></g></g><g transform="translate(-254,-30) scale(1,1)"><path d="M 1063 1265 L 914 1243" fill="none" stroke="#000000" stroke-dasharray="3" stroke-miterlimit="10"/></g><g transform="translate(-254,-30) scale(1,1)"><path d="M 924.6685498228243 1240.3200662922536 L 914 1243 L 923.4388032230236 1248.6488046272677" fill="none" stroke="#000000" stroke-miterlimit="10"/></g><g transform="translate(-254,-30) scale(1,1)"><g><path fill="none" stroke="none"/><text fill="#000000" font-family="Arial" font-size="13px" font-style="normal" font-weight="normal" stroke="none" text-decoration="none" x="955.5" y="1288">«include»</text></g></g><g transform="translate(-254,-30) scale(1,1)"><path d="M 975 1112 C 975 1102.6111584 1010.5933583999999 1095 1054.5 1095 C 1098.4066416 1095 1134 1102.6111584 1134 1112 C 1134 1121.3888416 1098.4066416 1129 1054.5 1129 C 1010.5933583999999 1129 975 1121.3888416 975 1112 Z" fill="#C0C0C0" opacity="0.2" stroke="none"/></g><g transform="translate(-254,-30) scale(1,1)"><path d="M 968 1105 C 968 1095.6111584 1003.5933583999999 1088 1047.5 1088 C 1091.4066416 1088 1127 1095.6111584 1127 1105 C 1127 1114.3888416 1091.4066416 1122 1047.5 1122 C 1003.5933583999999 1122 968 1114.3888416 968 1105 Z" fill="#ffffff" stroke="none"/></g><g transform="translate(-254,-30) scale(1,1)"><path d="M 968 1105 C 968 1095.6111584 1003.5933583999999 1088 1047.5 1088 C 1091.4066416 1088 1127 1095.6111584 1127 1105 C 1127 1114.3888416 1091.4066416 1122 1047.5 1122 C 1003.5933583999999 1122 968 1114.3888416 968 1105 Z" fill="none" stroke="#000000" stroke-miterlimit="10"/></g><g transform="translate(-254,-30) scale(1,1)"><g><path fill="none" stroke="none"/><text fill="#000000" font-family="Arial" font-size="13px" font-style="normal" font-weight="bold" stroke="none" text-decoration="none" x="995.858642578125" y="1110.5">Notify Candidate</text></g></g><g transform="translate(-254,-30) scale(1,1)"><path d="M 1022 1087 L 872 979" fill="none" stroke="#000000" stroke-dasharray="3" stroke-miterlimit="10"/></g><g transform="translate(-254,-30) scale(1,1)"><path d="M 882.7070007663366 981.52193072658 L 872 979 L 877.7877185295988 988.3542671664935" fill="none" stroke="#000000" stroke-miterlimit="10"/></g><g transform="translate(-254,-30) scale(1,1)"><g><path fill="none" stroke="none"/><text fill="#000000" font-family="Arial" font-size="13px" font-style="normal" font-weight="normal" stroke="none" text-decoration="none" x="901.5" y="1062">«include»</text></g></g><g transform="translate(-254,-30) scale(1,1)"><path d="M 926 832 L 1520 832" fill="none" stroke="#000000" stroke-miterlimit="10"/></g><g transform="translate(-254,-30) scale(1,1)"><path d="M 935 960 L 1537 960 M 1537 960 A 8 8 0 0 0 1545 952 L 1545 863" fill="none" stroke="#000000" stroke-miterlimit="10"/></g><g transform="translate(-254,-30) scale(1,1)"><path d="M 913 1233 L 1537 1233 M 1537 1233 A 8 8 0 0 0 1545 1225 L 1545 863" fill="none" stroke="#000000" stroke-miterlimit="10"/></g><g transform="translate(-254,-30) scale(1,1)"><path d="M 959 1368 C 959 1358.6111584 1003.77152 1351 1059 1351 C 1114.22848 1351 1159 1358.6111584 1159 1368 C 1159 1377.3888416 1114.22848 1385 1059 1385 C 1003.77152 1385 959 1377.3888416 959 1368 Z" fill="#C0C0C0" opacity="0.2" stroke="none"/></g><g transform="translate(-254,-30) scale(1,1)"><path d="M 952 1361 C 952 1351.6111584 996.77152 1344 1052 1344 C 1107.22848 1344 1152 1351.6111584 1152 1361 C 1152 1370.3888416 1107.22848 1378 1052 1378 C 996.77152 1378 952 1370.3888416 952 1361 Z" fill="#ffffff" stroke="none"/></g><g transform="translate(-254,-30) scale(1,1)"><path d="M 952 1361 C 952 1351.6111584 996.77152 1344 1052 1344 C 1107.22848 1344 1152 1351.6111584 1152 1361 C 1152 1370.3888416 1107.22848 1378 1052 1378 C 996.77152 1378 952 1370.3888416 952 1361 Z" fill="none" stroke="#000000" stroke-miterlimit="10"/></g><g transform="translate(-254,-30) scale(1,1)"><g><path fill="none" stroke="none"/><text fill="#000000" font-family="Arial" font-size="13px" font-style="normal" font-weight="bold" stroke="none" text-decoration="none" x="1028.158203125" y="1366.5">Occupy</text></g></g><g transform="translate(-254,-30) scale(1,1)"><path d="M 1023 1343 L 877 1251" fill="none" stroke="#000000" stroke-dasharray="3" stroke-miterlimit="10"/></g><g transform="translate(-254,-30) scale(1,1)"><path d="M 887.842202481941 1252.856514298516 L 877 1251 L 883.3538410481276 1259.9793487478285" fill="none" stroke="#000000" stroke-miterlimit="10"/></g><g transform="translate(-254,-30) scale(1,1)"><g><path fill="none" stroke="none"/><text fill="#000000" font-family="Arial" font-size="13px" font-style="normal" font-weight="normal" stroke="none" text-decoration="none" x="906.5" y="1327">«include»</text></g></g><g transform="translate(-254,-30) scale(1,1)"><path d="M 1008 1408 L 1173 1408 L 1183 1418 L 1183 1509 L 1008 1509 L 1008 1408" fill="#ffffff" stroke="none"/></g><g transform="translate(-254,-30) scale(1,1)"><path d="M 1008 1408 L 1173 1408 L 1183 1418 L 1183 1509 L 1008 1509 L 1008 1408 L 1008 1408" fill="none" stroke="#000000" stroke-miterlimit="10"/></g><g transform="translate(-254,-30) scale(1,1)"><path d="M 1173 1408 L 1173 1418 L 1183 1418 L 1173 1408" fill="none" stroke="#000000" stroke-miterlimit="10"/></g><g transform="translate(-254,-30) scale(1,1)"><g><path fill="none" stroke="none"/><text fill="#000000" font-family="Arial" font-size="13px" font-style="normal" font-weight="normal" stroke="none" text-decoration="none" x="1013" y="1423">The job was taken by</text><text fill="#000000" font-family="Arial" font-size="13px" font-style="normal" font-weight="normal" stroke="none" text-decoration="none" x="1013" y="1436">someone and it needs to be</text><text fill="#000000" font-family="Arial" font-size="13px" font-style="normal" font-weight="normal" stroke="none" text-decoration="none" x="1013" y="1449">removed. But instead of</text><text fill="#000000" font-family="Arial" font-size="13px" font-style="normal" font-weight="normal" stroke="none" text-decoration="none" x="1013" y="1462">completely deleting it,</text><text fill="#000000" font-family="Arial" font-size="13px" font-style="normal" font-weight="normal" stroke="none" text-decoration="none" x="1013" y="1475">saving it somewhere for</text><text fill="#000000" font-family="Arial" font-size="13px" font-style="normal" font-weight="normal" stroke="none" text-decoration="none" x="1013" y="1488">future analysis might be</text><text fill="#000000" font-family="Arial" font-size="13px" font-style="normal" font-weight="normal" stroke="none" text-decoration="none" x="1013" y="1501">better</text></g></g><g transform="translate(-254,-30) scale(1,1)"><path d="M 1064 1408 L 1051 1379" fill="none" stroke="#000000" stroke-miterlimit="10"/></g><g transform="translate(-254,-30) scale(1,1)"><path d="M 784 480 L 800 473" fill="none" stroke="#000000" stroke-miterlimit="10"/></g></g></svg>