<?xml version="1.0" encoding="UTF-8" standalone="no"?><svg xmlns="http://www.w3.org/2000/svg" xmlns:xlink="http://www.w3.org/1999/xlink" height="1278" version="1.1" width="1310.17724609375"><defs/><g><g transform="translate(-46,-14) scale(1,1)"><path d="M 72.04118625710227 561.6800000000001 C 72.04118625710227 556.8861679360001 75.92702858204773 553 80.720458984375 553 C 85.51388938670227 553 89.39973171164773 556.8861679360001 89.39973171164773 561.6800000000001 C 89.39973171164773 566.473832064 85.51388938670227 570.36 80.720458984375 570.36 C 75.92702858204773 570.36 72.04118625710227 566.473832064 72.04118625710227 561.6800000000001 Z" fill="#ffffff" stroke="none"/></g><g transform="translate(-46,-14) scale(1,1)"><path d="M 72.04118625710227 561.6800000000001 C 72.04118625710227 556.8861679360001 75.92702858204773 553 80.720458984375 553 C 85.51388938670227 553 89.39973171164773 556.8861679360001 89.39973171164773 561.6800000000001 C 89.39973171164773 566.473832064 85.51388938670227 570.36 80.720458984375 570.36 C 75.92702858204773 570.36 72.04118625710227 566.473832064 72.04118625710227 561.6800000000001 Z" fill="none" stroke="#000000" stroke-miterlimit="10"/></g><g transform="translate(-46,-14) scale(1,1)"><path d="M 80.720458984375 570.36 L 80.720458984375 587.64" fill="none" stroke="#000000" stroke-miterlimit="10"/></g><g transform="translate(-46,-14) scale(1,1)"><path d="M 71.53064080255682 576.84 L 89.91027716619318 576.84" fill="none" stroke="#000000" stroke-miterlimit="10"/></g><g transform="translate(-46,-14) scale(1,1)"><path d="M 80.720458984375 587.64 L 67.95682262073863 605" fill="none" stroke="#000000" stroke-miterlimit="10"/></g><g transform="translate(-46,-14) scale(1,1)"><path d="M 80.720458984375 587.64 L 93.48409534801137 605" fill="none" stroke="#000000" stroke-miterlimit="10"/></g><g transform="translate(-46,-14) scale(1,1)"><g><path fill="none" stroke="none"/><text fill="#000000" font-family="Arial" font-size="13px" font-style="normal" font-weight="bold" stroke="none" text-decoration="none" x="60.5" y="624">Admin</text></g></g><g transform="translate(-46,-14) scale(1,1)"><path d="M 83.24162571022727 265.68 C 83.24162571022727 260.886167936 87.12746803517273 257 91.9208984375 257 C 96.71432883982727 257 100.60017116477273 260.886167936 100.60017116477273 265.68 C 100.60017116477273 270.473832064 96.71432883982727 274.36 91.9208984375 274.36 C 87.12746803517273 274.36 83.24162571022727 270.473832064 83.24162571022727 265.68 Z" fill="#ffffff" stroke="none"/></g><g transform="translate(-46,-14) scale(1,1)"><path d="M 83.24162571022727 265.68 C 83.24162571022727 260.886167936 87.12746803517273 257 91.9208984375 257 C 96.71432883982727 257 100.60017116477273 260.886167936 100.60017116477273 265.68 C 100.60017116477273 270.473832064 96.71432883982727 274.36 91.9208984375 274.36 C 87.12746803517273 274.36 83.24162571022727 270.473832064 83.24162571022727 265.68 Z" fill="none" stroke="#000000" stroke-miterlimit="10"/></g><g transform="translate(-46,-14) scale(1,1)"><path d="M 91.9208984375 274.36 L 91.9208984375 291.64" fill="none" stroke="#000000" stroke-miterlimit="10"/></g><g transform="translate(-46,-14) scale(1,1)"><path d="M 82.73108025568182 280.84 L 101.11071661931818 280.84" fill="none" stroke="#000000" stroke-miterlimit="10"/></g><g transform="translate(-46,-14) scale(1,1)"><path d="M 91.9208984375 291.64 L 79.15726207386363 309" fill="none" stroke="#000000" stroke-miterlimit="10"/></g><g transform="translate(-46,-14) scale(1,1)"><path d="M 91.9208984375 291.64 L 104.68453480113637 309" fill="none" stroke="#000000" stroke-miterlimit="10"/></g><g transform="translate(-46,-14) scale(1,1)"><g><path fill="none" stroke="none"/><text fill="#000000" font-family="Arial" font-size="13px" font-style="normal" font-weight="bold" stroke="none" text-decoration="none" x="60.5" y="328">Candidate</text></g></g><g transform="translate(-46,-14) scale(1,1)"><path d="M 80.35978977272727 841.6800000000001 C 80.35978977272727 836.8861679360001 84.24563209767273 833 89.0390625 833 C 93.83249290232727 833 97.71833522727273 836.8861679360001 97.71833522727273 841.6800000000001 C 97.71833522727273 846.473832064 93.83249290232727 850.36 89.0390625 850.36 C 84.24563209767273 850.36 80.35978977272727 846.473832064 80.35978977272727 841.6800000000001 Z" fill="#ffffff" stroke="none"/></g><g transform="translate(-46,-14) scale(1,1)"><path d="M 80.35978977272727 841.6800000000001 C 80.35978977272727 836.8861679360001 84.24563209767273 833 89.0390625 833 C 93.83249290232727 833 97.71833522727273 836.8861679360001 97.71833522727273 841.6800000000001 C 97.71833522727273 846.473832064 93.83249290232727 850.36 89.0390625 850.36 C 84.24563209767273 850.36 80.35978977272727 846.473832064 80.35978977272727 841.6800000000001 Z" fill="none" stroke="#000000" stroke-miterlimit="10"/></g><g transform="translate(-46,-14) scale(1,1)"><path d="M 89.0390625 850.36 L 89.0390625 867.64" fill="none" stroke="#000000" stroke-miterlimit="10"/></g><g transform="translate(-46,-14) scale(1,1)"><path d="M 79.84924431818182 856.84 L 98.22888068181818 856.84" fill="none" stroke="#000000" stroke-miterlimit="10"/></g><g transform="translate(-46,-14) scale(1,1)"><path d="M 89.0390625 867.64 L 76.27542613636363 885" fill="none" stroke="#000000" stroke-miterlimit="10"/></g><g transform="translate(-46,-14) scale(1,1)"><path d="M 89.0390625 867.64 L 101.80269886363637 885" fill="none" stroke="#000000" stroke-miterlimit="10"/></g><g transform="translate(-46,-14) scale(1,1)"><g><path fill="none" stroke="none"/><text fill="#000000" font-family="Arial" font-size="13px" font-style="normal" font-weight="bold" stroke="none" text-decoration="none" x="60.5" y="904">Recruiter</text></g></g><g transform="translate(-46,-14) scale(1,1)"><path d="M 1312.4093503196023 705.6800000000001 C 1312.4093503196023 700.8861679360001 1316.2951926445478 697 1321.088623046875 697 C 1325.8820534492022 697 1329.7678957741477 700.8861679360001 1329.7678957741477 705.6800000000001 C 1329.7678957741477 710.473832064 1325.8820534492022 714.36 1321.088623046875 714.36 C 1316.2951926445478 714.36 1312.4093503196023 710.473832064 1312.4093503196023 705.6800000000001 Z" fill="#ffffff" stroke="none"/></g><g transform="translate(-46,-14) scale(1,1)"><path d="M 1312.4093503196023 705.6800000000001 C 1312.4093503196023 700.8861679360001 1316.2951926445478 697 1321.088623046875 697 C 1325.8820534492022 697 1329.7678957741477 700.8861679360001 1329.7678957741477 705.6800000000001 C 1329.7678957741477 710.473832064 1325.8820534492022 714.36 1321.088623046875 714.36 C 1316.2951926445478 714.36 1312.4093503196023 710.473832064 1312.4093503196023 705.6800000000001 Z" fill="none" stroke="#000000" stroke-miterlimit="10"/></g><g transform="translate(-46,-14) scale(1,1)"><path d="M 1321.088623046875 714.36 L 1321.088623046875 731.64" fill="none" stroke="#000000" stroke-miterlimit="10"/></g><g transform="translate(-46,-14) scale(1,1)"><path d="M 1311.8988048650567 720.84 L 1330.2784412286933 720.84" fill="none" stroke="#000000" stroke-miterlimit="10"/></g><g transform="translate(-46,-14) scale(1,1)"><path d="M 1321.088623046875 731.64 L 1308.3249866832386 749" fill="none" stroke="#000000" stroke-miterlimit="10"/></g><g transform="translate(-46,-14) scale(1,1)"><path d="M 1321.088623046875 731.64 L 1333.8522594105114 749" fill="none" stroke="#000000" stroke-miterlimit="10"/></g><g transform="translate(-46,-14) scale(1,1)"><g><path fill="none" stroke="none"/><text fill="#000000" font-family="Arial" font-size="13px" font-style="normal" font-weight="bold" stroke="none" text-decoration="none" x="1311.700439453125" y="768">DB</text></g></g><g transform="translate(-46,-14) scale(1,1)"><path d="M 551 752 C 551 742.6111584 586.3695008 735 630 735 C 673.6304992 735 709 742.6111584 709 752 C 709 761.3888416 673.6304992 769 630 769 C 586.3695008 769 551 761.3888416 551 752 Z" fill="#C0C0C0" opacity="0.2" stroke="none"/></g><g transform="translate(-46,-14) scale(1,1)"><path d="M 544 745 C 544 735.6111584 579.3695008 728 623 728 C 666.6304992 728 702 735.6111584 702 745 C 702 754.3888416 666.6304992 762 623 762 C 579.3695008 762 544 754.3888416 544 745 Z" fill="#ffffff" stroke="none"/></g><g transform="translate(-46,-14) scale(1,1)"><path d="M 544 745 C 544 735.6111584 579.3695008 728 623 728 C 666.6304992 728 702 735.6111584 702 745 C 702 754.3888416 666.6304992 762 623 762 C 579.3695008 762 544 754.3888416 544 745 Z" fill="none" stroke="#000000" stroke-miterlimit="10"/></g><g transform="translate(-46,-14) scale(1,1)"><g><path fill="none" stroke="none"/><text fill="#000000" font-family="Arial" font-size="13px" font-style="normal" font-weight="bold" stroke="none" text-decoration="none" x="605.312255859375" y="750.5">Login</text></g></g><g transform="translate(-46,-14) scale(1,1)"><path d="M 106 591 L 527 593" fill="none" stroke="#000000" stroke-miterlimit="10"/></g><g transform="translate(-46,-14) scale(1,1)"><path d="M 122 872 L 200 872 M 200 872 A 8 8 0 0 0 208 864 L 208 753 M 208 753 A 8 8 0 0 1 216 745 L 544 745" fill="none" stroke="#000000" stroke-miterlimit="10"/></g><g transform="translate(-46,-14) scale(1,1)"><path d="M 559 304 C 559 290.19288 591.2354944 279 631 279 C 670.7645056 279 703 290.19288 703 304 C 703 317.80712 670.7645056 329 631 329 C 591.2354944 329 559 317.80712 559 304 Z" fill="#C0C0C0" opacity="0.2" stroke="none"/></g><g transform="translate(-46,-14) scale(1,1)"><path d="M 552 297 C 552 283.19288 584.2354944 272 624 272 C 663.7645056 272 696 283.19288 696 297 C 696 310.80712 663.7645056 322 624 322 C 584.2354944 322 552 310.80712 552 297 Z" fill="#ffffff" stroke="none"/></g><g transform="translate(-46,-14) scale(1,1)"><path d="M 552 297 C 552 283.19288 584.2354944 272 624 272 C 663.7645056 272 696 283.19288 696 297 C 696 310.80712 663.7645056 322 624 322 C 584.2354944 322 552 310.80712 552 297 Z" fill="none" stroke="#000000" stroke-miterlimit="10"/></g><g transform="translate(-46,-14) scale(1,1)"><g><path fill="none" stroke="none"/><text fill="#000000" font-family="Arial" font-size="13px" font-style="normal" font-weight="bold" stroke="none" text-decoration="none" x="581.029541015625" y="302.5">Apply to a job</text></g></g><g transform="translate(-46,-14) scale(1,1)"><path d="M 543 216 C 543 206.6111584 581.9512224 199 630 199 C 678.0487776 199 717 206.6111584 717 216 C 717 225.3888416 678.0487776 233 630 233 C 581.9512224 233 543 225.3888416 543 216 Z" fill="#C0C0C0" opacity="0.2" stroke="none"/></g><g transform="translate(-46,-14) scale(1,1)"><path d="M 536 209 C 536 199.6111584 574.9512224 192 623 192 C 671.0487776 192 710 199.6111584 710 209 C 710 218.3888416 671.0487776 226 623 226 C 574.9512224 226 536 218.3888416 536 209 Z" fill="#ffffff" stroke="none"/></g><g transform="translate(-46,-14) scale(1,1)"><path d="M 536 209 C 536 199.6111584 574.9512224 192 623 192 C 671.0487776 192 710 199.6111584 710 209 C 710 218.3888416 671.0487776 226 623 226 C 574.9512224 226 536 218.3888416 536 209 Z" fill="none" stroke="#000000" stroke-miterlimit="10"/></g><g transform="translate(-46,-14) scale(1,1)"><g><path fill="none" stroke="none"/><text fill="#000000" font-family="Arial" font-size="13px" font-style="normal" font-weight="bold" stroke="none" text-decoration="none" x="579.29638671875" y="214.5">Search for job</text></g></g><g transform="translate(-46,-14) scale(1,1)"><path d="M 567 1056 C 567 1046.6111584 606.3989376 1039 655 1039 C 703.6010624 1039 743 1046.6111584 743 1056 C 743 1065.3888416 703.6010624 1073 655 1073 C 606.3989376 1073 567 1065.3888416 567 1056 Z" fill="#C0C0C0" opacity="0.2" stroke="none"/></g><g transform="translate(-46,-14) scale(1,1)"><path d="M 560 1049 C 560 1039.6111584 599.3989376 1032 648 1032 C 696.6010624 1032 736 1039.6111584 736 1049 C 736 1058.3888416 696.6010624 1066 648 1066 C 599.3989376 1066 560 1058.3888416 560 1049 Z" fill="#ffffff" stroke="none"/></g><g transform="translate(-46,-14) scale(1,1)"><path d="M 560 1049 C 560 1039.6111584 599.3989376 1032 648 1032 C 696.6010624 1032 736 1039.6111584 736 1049 C 736 1058.3888416 696.6010624 1066 648 1066 C 599.3989376 1066 560 1058.3888416 560 1049 Z" fill="none" stroke="#000000" stroke-miterlimit="10"/></g><g transform="translate(-46,-14) scale(1,1)"><g><path fill="none" stroke="none"/><text fill="#000000" font-family="Arial" font-size="13px" font-style="normal" font-weight="bold" stroke="none" text-decoration="none" x="610.183837890625" y="1054.5">View Details</text></g></g><g transform="translate(-46,-14) scale(1,1)"><path d="M 543 880 C 543 870.6111584 582.17508 863 630.5 863 C 678.82492 863 718 870.6111584 718 880 C 718 889.3888416 678.82492 897 630.5 897 C 582.17508 897 543 889.3888416 543 880 Z" fill="#C0C0C0" opacity="0.2" stroke="none"/></g><g transform="translate(-46,-14) scale(1,1)"><path d="M 536 873 C 536 863.6111584 575.17508 856 623.5 856 C 671.82492 856 711 863.6111584 711 873 C 711 882.3888416 671.82492 890 623.5 890 C 575.17508 890 536 882.3888416 536 873 Z" fill="#ffffff" stroke="none"/></g><g transform="translate(-46,-14) scale(1,1)"><path d="M 536 873 C 536 863.6111584 575.17508 856 623.5 856 C 671.82492 856 711 863.6111584 711 873 C 711 882.3888416 671.82492 890 623.5 890 C 575.17508 890 536 882.3888416 536 873 Z" fill="none" stroke="#000000" stroke-miterlimit="10"/></g><g transform="translate(-46,-14) scale(1,1)"><g><path fill="none" stroke="none"/><text fill="#000000" font-family="Arial" font-size="13px" font-style="normal" font-weight="bold" stroke="none" text-decoration="none" x="566.07275390625" y="878.5">Manage Candidate</text></g></g><g transform="translate(-46,-14) scale(1,1)"><path d="M 359 1056 C 359 1046.6111584 401.7568016 1039 454.5 1039 C 507.2431984 1039 550 1046.6111584 550 1056 C 550 1065.3888416 507.2431984 1073 454.5 1073 C 401.7568016 1073 359 1065.3888416 359 1056 Z" fill="#C0C0C0" opacity="0.2" stroke="none"/></g><g transform="translate(-46,-14) scale(1,1)"><path d="M 352 1049 C 352 1039.6111584 394.7568016 1032 447.5 1032 C 500.2431984 1032 543 1039.6111584 543 1049 C 543 1058.3888416 500.2431984 1066 447.5 1066 C 394.7568016 1066 352 1058.3888416 352 1049 Z" fill="#ffffff" stroke="none"/></g><g transform="translate(-46,-14) scale(1,1)"><path d="M 352 1049 C 352 1039.6111584 394.7568016 1032 447.5 1032 C 500.2431984 1032 543 1039.6111584 543 1049 C 543 1058.3888416 500.2431984 1066 447.5 1066 C 394.7568016 1066 352 1058.3888416 352 1049 Z" fill="none" stroke="#000000" stroke-miterlimit="10"/></g><g transform="translate(-46,-14) scale(1,1)"><g><path fill="none" stroke="none"/><text fill="#000000" font-family="Arial" font-size="13px" font-style="normal" font-weight="bold" stroke="none" text-decoration="none" x="384.293212890625" y="1054.5">Job Request History</text></g></g><g transform="translate(-46,-14) scale(1,1)"><path d="M 465 1031 L 605 891" fill="none" stroke="#000000" stroke-dasharray="3" stroke-miterlimit="10"/></g><g transform="translate(-46,-14) scale(1,1)"><path d="M 600.790482243984 901.1626748576241 L 605 891 L 594.8373251423759 895.209517756016" fill="none" stroke="#000000" stroke-miterlimit="10"/></g><g transform="translate(-46,-14) scale(1,1)"><g><path fill="none" stroke="none"/><text fill="#000000" font-family="Arial" font-size="13px" font-style="normal" font-weight="normal" stroke="none" text-decoration="none" x="436.5" y="1010">«include»</text></g></g><g transform="translate(-46,-14) scale(1,1)"><path d="M 645 1031 L 626 891" fill="none" stroke="#000000" stroke-dasharray="3" stroke-miterlimit="10"/></g><g transform="translate(-46,-14) scale(1,1)"><path d="M 631.5379704254225 900.5042560764715 L 626 891 L 623.1954125200203 901.6364603636332" fill="none" stroke="#000000" stroke-miterlimit="10"/></g><g transform="translate(-46,-14) scale(1,1)"><g><path fill="none" stroke="none"/><text fill="#000000" font-family="Arial" font-size="13px" font-style="normal" font-weight="normal" stroke="none" text-decoration="none" x="577.5" y="969">«include»</text></g></g><g transform="translate(-46,-14) scale(1,1)"><path d="M 855 960 C 855 950.6111584 885.4446336 943 923 943 C 960.5553664 943 991 950.6111584 991 960 C 991 969.3888416 960.5553664 977 923 977 C 885.4446336 977 855 969.3888416 855 960 Z" fill="#C0C0C0" opacity="0.2" stroke="none"/></g><g transform="translate(-46,-14) scale(1,1)"><path d="M 848 953 C 848 943.6111584 878.4446336 936 916 936 C 953.5553664 936 984 943.6111584 984 953 C 984 962.3888416 953.5553664 970 916 970 C 878.4446336 970 848 962.3888416 848 953 Z" fill="#ffffff" stroke="none"/></g><g transform="translate(-46,-14) scale(1,1)"><path d="M 848 953 C 848 943.6111584 878.4446336 936 916 936 C 953.5553664 936 984 943.6111584 984 953 C 984 962.3888416 953.5553664 970 916 970 C 878.4446336 970 848 962.3888416 848 953 Z" fill="none" stroke="#000000" stroke-miterlimit="10"/></g><g transform="translate(-46,-14) scale(1,1)"><g><path fill="none" stroke="none"/><text fill="#000000" font-family="Arial" font-size="13px" font-style="normal" font-weight="bold" stroke="none" text-decoration="none" x="872.299560546875" y="958.5">Update Status</text></g></g><g transform="translate(-46,-14) scale(1,1)"><path d="M 850 935 L 689 891" fill="none" stroke="#000000" stroke-dasharray="3" stroke-miterlimit="10"/></g><g transform="translate(-46,-14) scale(1,1)"><path d="M 699.9129058760459 889.6185205971266 L 689 891 L 697.6934432012439 897.7397362935612" fill="none" stroke="#000000" stroke-miterlimit="10"/></g><g transform="translate(-46,-14) scale(1,1)"><g><path fill="none" stroke="none"/><text fill="#000000" font-family="Arial" font-size="13px" font-style="normal" font-weight="normal" stroke="none" text-decoration="none" x="759.5" y="907">«include»</text></g></g><g transform="translate(-46,-14) scale(1,1)"><path d="M 567 1152 C 567 1142.6111584 595.8776304 1135 631.5 1135 C 667.1223696 1135 696 1142.6111584 696 1152 C 696 1161.3888416 667.1223696 1169 631.5 1169 C 595.8776304 1169 567 1161.3888416 567 1152 Z" fill="#C0C0C0" opacity="0.2" stroke="none"/></g><g transform="translate(-46,-14) scale(1,1)"><path d="M 560 1145 C 560 1135.6111584 588.8776304 1128 624.5 1128 C 660.1223696 1128 689 1135.6111584 689 1145 C 689 1154.3888416 660.1223696 1162 624.5 1162 C 588.8776304 1162 560 1154.3888416 560 1145 Z" fill="#ffffff" stroke="none"/></g><g transform="translate(-46,-14) scale(1,1)"><path d="M 560 1145 C 560 1135.6111584 588.8776304 1128 624.5 1128 C 660.1223696 1128 689 1135.6111584 689 1145 C 689 1154.3888416 660.1223696 1162 624.5 1162 C 588.8776304 1162 560 1154.3888416 560 1145 Z" fill="none" stroke="#000000" stroke-miterlimit="10"/></g><g transform="translate(-46,-14) scale(1,1)"><g><path fill="none" stroke="none"/><text fill="#000000" font-family="Arial" font-size="13px" font-style="normal" font-weight="bold" stroke="none" text-decoration="none" x="583.32275390625" y="1150.5">Manage Jobs</text></g></g><g transform="translate(-46,-14) scale(1,1)"><path d="M 383 1232 C 383 1222.6111584 405.6096176 1215 433.5 1215 C 461.3903824 1215 484 1222.6111584 484 1232 C 484 1241.3888416 461.3903824 1249 433.5 1249 C 405.6096176 1249 383 1241.3888416 383 1232 Z" fill="#C0C0C0" opacity="0.2" stroke="none"/></g><g transform="translate(-46,-14) scale(1,1)"><path d="M 376 1225 C 376 1215.6111584 398.6096176 1208 426.5 1208 C 454.3903824 1208 477 1215.6111584 477 1225 C 477 1234.3888416 454.3903824 1242 426.5 1242 C 398.6096176 1242 376 1234.3888416 376 1225 Z" fill="#ffffff" stroke="none"/></g><g transform="translate(-46,-14) scale(1,1)"><path d="M 376 1225 C 376 1215.6111584 398.6096176 1208 426.5 1208 C 454.3903824 1208 477 1215.6111584 477 1225 C 477 1234.3888416 454.3903824 1242 426.5 1242 C 398.6096176 1242 376 1234.3888416 376 1225 Z" fill="none" stroke="#000000" stroke-miterlimit="10"/></g><g transform="translate(-46,-14) scale(1,1)"><g><path fill="none" stroke="none"/><text fill="#000000" font-family="Arial" font-size="13px" font-style="normal" font-weight="bold" stroke="none" text-decoration="none" x="413.864990234375" y="1230.5">Add</text></g></g><g transform="translate(-46,-14) scale(1,1)"><path d="M 639 1272 C 639 1262.6111584 661.6096176 1255 689.5 1255 C 717.3903824 1255 740 1262.6111584 740 1272 C 740 1281.3888416 717.3903824 1289 689.5 1289 C 661.6096176 1289 639 1281.3888416 639 1272 Z" fill="#C0C0C0" opacity="0.2" stroke="none"/></g><g transform="translate(-46,-14) scale(1,1)"><path d="M 632 1265 C 632 1255.6111584 654.6096176 1248 682.5 1248 C 710.3903824 1248 733 1255.6111584 733 1265 C 733 1274.3888416 710.3903824 1282 682.5 1282 C 654.6096176 1282 632 1274.3888416 632 1265 Z" fill="#ffffff" stroke="none"/></g><g transform="translate(-46,-14) scale(1,1)"><path d="M 632 1265 C 632 1255.6111584 654.6096176 1248 682.5 1248 C 710.3903824 1248 733 1255.6111584 733 1265 C 733 1274.3888416 710.3903824 1282 682.5 1282 C 654.6096176 1282 632 1274.3888416 632 1265 Z" fill="none" stroke="#000000" stroke-miterlimit="10"/></g><g transform="translate(-46,-14) scale(1,1)"><g><path fill="none" stroke="none"/><text fill="#000000" font-family="Arial" font-size="13px" font-style="normal" font-weight="bold" stroke="none" text-decoration="none" x="657.2109375" y="1270.5">Remove</text></g></g><g transform="translate(-46,-14) scale(1,1)"><path d="M 511 1272 C 511 1262.6111584 533.6096176 1255 561.5 1255 C 589.3903824 1255 612 1262.6111584 612 1272 C 612 1281.3888416 589.3903824 1289 561.5 1289 C 533.6096176 1289 511 1281.3888416 511 1272 Z" fill="#C0C0C0" opacity="0.2" stroke="none"/></g><g transform="translate(-46,-14) scale(1,1)"><path d="M 504 1265 C 504 1255.6111584 526.6096176 1248 554.5 1248 C 582.3903824 1248 605 1255.6111584 605 1265 C 605 1274.3888416 582.3903824 1282 554.5 1282 C 526.6096176 1282 504 1274.3888416 504 1265 Z" fill="#ffffff" stroke="none"/></g><g transform="translate(-46,-14) scale(1,1)"><path d="M 504 1265 C 504 1255.6111584 526.6096176 1248 554.5 1248 C 582.3903824 1248 605 1255.6111584 605 1265 C 605 1274.3888416 582.3903824 1282 554.5 1282 C 526.6096176 1282 504 1274.3888416 504 1265 Z" fill="none" stroke="#000000" stroke-miterlimit="10"/></g><g transform="translate(-46,-14) scale(1,1)"><g><path fill="none" stroke="none"/><text fill="#000000" font-family="Arial" font-size="13px" font-style="normal" font-weight="bold" stroke="none" text-decoration="none" x="542.2236328125" y="1270.5">Edit</text></g></g><g transform="translate(-46,-14) scale(1,1)"><path d="M 471 1207 L 579 1163" fill="none" stroke="#000000" stroke-dasharray="3" stroke-miterlimit="10"/></g><g transform="translate(-46,-14) scale(1,1)"><path d="M 571.176662405968 1170.7327478227216 L 579 1163 L 568.0001865130964 1162.9359433584002" fill="none" stroke="#000000" stroke-miterlimit="10"/></g><g transform="translate(-46,-14) scale(1,1)"><g><path fill="none" stroke="none"/><text fill="#000000" font-family="Arial" font-size="13px" font-style="normal" font-weight="normal" stroke="none" text-decoration="none" x="476.5" y="1181">«include»</text></g></g><g transform="translate(-46,-14) scale(1,1)"><path d="M 565 1247 L 614 1163" fill="none" stroke="#000000" stroke-dasharray="3" stroke-miterlimit="10"/></g><g transform="translate(-46,-14) scale(1,1)"><path d="M 612.515415218025 1173.8993581473924 L 614 1163 L 605.2432299768171 1169.657250090021" fill="none" stroke="#000000" stroke-miterlimit="10"/></g><g transform="translate(-46,-14) scale(1,1)"><g><path fill="none" stroke="none"/><text fill="#000000" font-family="Arial" font-size="13px" font-style="normal" font-weight="normal" stroke="none" text-decoration="none" x="535.5" y="1194">«include»</text></g></g><g transform="translate(-46,-14) scale(1,1)"><path d="M 673 1247 L 633 1163" fill="none" stroke="#000000" stroke-dasharray="3" stroke-miterlimit="10"/></g><g transform="translate(-46,-14) scale(1,1)"><path d="M 641.1698825730967 1170.3656648540243 L 633 1163 L 633.5686678027065 1173.9852909351625" fill="none" stroke="#000000" stroke-miterlimit="10"/></g><g transform="translate(-46,-14) scale(1,1)"><g><path fill="none" stroke="none"/><text fill="#000000" font-family="Arial" font-size="13px" font-style="normal" font-weight="normal" stroke="none" text-decoration="none" x="597.5" y="1222">«include»</text></g></g><g transform="translate(-46,-14) scale(1,1)"><path d="M 123 871 L 208 872 L 535 873" fill="none" stroke="#000000" stroke-miterlimit="10"/></g><g transform="translate(-46,-14) scale(1,1)"><path d="M 535 600 C 535 590.6111584 572.3842192 583 618.5 583 C 664.6157808 583 702 590.6111584 702 600 C 702 609.3888416 664.6157808 617 618.5 617 C 572.3842192 617 535 609.3888416 535 600 Z" fill="#C0C0C0" opacity="0.2" stroke="none"/></g><g transform="translate(-46,-14) scale(1,1)"><path d="M 528 593 C 528 583.6111584 565.3842192 576 611.5 576 C 657.6157808 576 695 583.6111584 695 593 C 695 602.3888416 657.6157808 610 611.5 610 C 565.3842192 610 528 602.3888416 528 593 Z" fill="#ffffff" stroke="none"/></g><g transform="translate(-46,-14) scale(1,1)"><path d="M 528 593 C 528 583.6111584 565.3842192 576 611.5 576 C 657.6157808 576 695 583.6111584 695 593 C 695 602.3888416 657.6157808 610 611.5 610 C 565.3842192 610 528 602.3888416 528 593 Z" fill="none" stroke="#000000" stroke-miterlimit="10"/></g><g transform="translate(-46,-14) scale(1,1)"><g><path fill="none" stroke="none"/><text fill="#000000" font-family="Arial" font-size="13px" font-style="normal" font-weight="bold" stroke="none" text-decoration="none" x="556.95458984375" y="598.5">Manage Recruiter</text></g></g><g transform="translate(-46,-14) scale(1,1)"><path d="M 543 512 C 543 502.6111584 575.2354944 495 615 495 C 654.7645056 495 687 502.6111584 687 512 C 687 521.3888416 654.7645056 529 615 529 C 575.2354944 529 543 521.3888416 543 512 Z" fill="#C0C0C0" opacity="0.2" stroke="none"/></g><g transform="translate(-46,-14) scale(1,1)"><path d="M 536 505 C 536 495.6111584 568.2354944 488 608 488 C 647.7645056 488 680 495.6111584 680 505 C 680 514.3888416 647.7645056 522 608 522 C 568.2354944 522 536 514.3888416 536 505 Z" fill="#ffffff" stroke="none"/></g><g transform="translate(-46,-14) scale(1,1)"><path d="M 536 505 C 536 495.6111584 568.2354944 488 608 488 C 647.7645056 488 680 495.6111584 680 505 C 680 514.3888416 647.7645056 522 608 522 C 568.2354944 522 536 514.3888416 536 505 Z" fill="none" stroke="#000000" stroke-miterlimit="10"/></g><g transform="translate(-46,-14) scale(1,1)"><g><path fill="none" stroke="none"/><text fill="#000000" font-family="Arial" font-size="13px" font-style="normal" font-weight="bold" stroke="none" text-decoration="none" x="561.405029296875" y="510.5">Add Reccruiter</text></g></g><g transform="translate(-46,-14) scale(1,1)"><path d="M 719 512 C 719 502.6111584 755.7126464 495 801 495 C 846.2873536 495 883 502.6111584 883 512 C 883 521.3888416 846.2873536 529 801 529 C 755.7126464 529 719 521.3888416 719 512 Z" fill="#C0C0C0" opacity="0.2" stroke="none"/></g><g transform="translate(-46,-14) scale(1,1)"><path d="M 712 505 C 712 495.6111584 748.7126464 488 794 488 C 839.2873536 488 876 495.6111584 876 505 C 876 514.3888416 839.2873536 522 794 522 C 748.7126464 522 712 514.3888416 712 505 Z" fill="#ffffff" stroke="none"/></g><g transform="translate(-46,-14) scale(1,1)"><path d="M 712 505 C 712 495.6111584 748.7126464 488 794 488 C 839.2873536 488 876 495.6111584 876 505 C 876 514.3888416 839.2873536 522 794 522 C 748.7126464 522 712 514.3888416 712 505 Z" fill="none" stroke="#000000" stroke-miterlimit="10"/></g><g transform="translate(-46,-14) scale(1,1)"><g><path fill="none" stroke="none"/><text fill="#000000" font-family="Arial" font-size="13px" font-style="normal" font-weight="bold" stroke="none" text-decoration="none" x="740.530517578125" y="510.5">Remove recruiter</text></g></g><g transform="translate(-46,-14) scale(1,1)"><path d="M 609 523 L 610 575" fill="none" stroke="#000000" stroke-dasharray="3" stroke-miterlimit="10"/></g><g transform="translate(-46,-14) scale(1,1)"><path d="M 605.5958604886597 564.9201411138523 L 610 575 L 614.0133396580383 564.7582665144412" fill="none" stroke="#000000" stroke-miterlimit="10"/></g><g transform="translate(-46,-14) scale(1,1)"><g><path fill="none" stroke="none"/><text fill="#000000" font-family="Arial" font-size="13px" font-style="normal" font-weight="normal" stroke="none" text-decoration="none" x="606.5" y="534">«include»</text></g></g><g transform="translate(-46,-14) scale(1,1)"><path d="M 757 523 L 648 575" fill="none" stroke="#000000" stroke-dasharray="3" stroke-miterlimit="10"/></g><g transform="translate(-46,-14) scale(1,1)"><path d="M 655.3598460554003 566.8248751666529 L 648 575 L 658.9848832609689 574.4235108475563" fill="none" stroke="#000000" stroke-miterlimit="10"/></g><g transform="translate(-46,-14) scale(1,1)"><g><path fill="none" stroke="none"/><text fill="#000000" font-family="Arial" font-size="13px" font-style="normal" font-weight="normal" stroke="none" text-decoration="none" x="687.5" y="581">«include»</text></g></g><g transform="translate(-46,-14) scale(1,1)"><path d="M 695 593 L 1313 593 M 1313 593 A 8 8 0 0 1 1321 601 L 1321 696" fill="none" stroke="#000000" stroke-miterlimit="10"/></g><g transform="translate(-46,-14) scale(1,1)"><path d="M 400 392 L 581 392 L 591 402 L 591 463 L 400 463 L 400 392" fill="#ffffff" stroke="none"/></g><g transform="translate(-46,-14) scale(1,1)"><path d="M 400 392 L 581 392 L 591 402 L 591 463 L 400 463 L 400 392 L 400 392" fill="none" stroke="#000000" stroke-miterlimit="10"/></g><g transform="translate(-46,-14) scale(1,1)"><path d="M 581 392 L 581 402 L 591 402 L 581 392" fill="none" stroke="#000000" stroke-miterlimit="10"/></g><g transform="translate(-46,-14) scale(1,1)"><g><path fill="none" stroke="none"/><text fill="#000000" font-family="Arial" font-size="13px" font-style="normal" font-weight="normal" stroke="none" text-decoration="none" x="405" y="407">All through the website. social</text><text fill="#000000" font-family="Arial" font-size="13px" font-style="normal" font-weight="normal" stroke="none" text-decoration="none" x="405" y="420">media app links should link to</text><text fill="#000000" font-family="Arial" font-size="13px" font-style="normal" font-weight="normal" stroke="none" text-decoration="none" x="405" y="433">the website.</text></g></g><g transform="translate(-46,-14) scale(1,1)"><path d="M 600 152 L 600 152" fill="none" stroke="#000000" stroke-miterlimit="10"/></g><g transform="translate(-46,-14) scale(1,1)"><path d="M 575 384 C 575 374.6111584 600.743624 367 632.5 367 C 664.256376 367 690 374.6111584 690 384 C 690 393.3888416 664.256376 401 632.5 401 C 600.743624 401 575 393.3888416 575 384 Z" fill="#C0C0C0" opacity="0.2" stroke="none"/></g><g transform="translate(-46,-14) scale(1,1)"><path d="M 568 377 C 568 367.6111584 593.743624 360 625.5 360 C 657.256376 360 683 367.6111584 683 377 C 683 386.3888416 657.256376 394 625.5 394 C 593.743624 394 568 386.3888416 568 377 Z" fill="#ffffff" stroke="none"/></g><g transform="translate(-46,-14) scale(1,1)"><path d="M 568 377 C 568 367.6111584 593.743624 360 625.5 360 C 657.256376 360 683 367.6111584 683 377 C 683 386.3888416 657.256376 394 625.5 394 C 593.743624 394 568 386.3888416 568 377 Z" fill="none" stroke="#000000" stroke-miterlimit="10"/></g><g transform="translate(-46,-14) scale(1,1)"><g><path fill="none" stroke="none"/><text fill="#000000" font-family="Arial" font-size="13px" font-style="normal" font-weight="bold" stroke="none" text-decoration="none" x="589.13427734375" y="382.5">View Status</text></g></g><g transform="translate(-46,-14) scale(1,1)"><path d="M 431 50.5 C 431 39.7304464 463.0116368 31 502.5 31 C 541.9883632 31 574 39.7304464 574 50.5 C 574 61.2695536 541.9883632 70 502.5 70 C 463.0116368 70 431 61.2695536 431 50.5 Z" fill="#C0C0C0" opacity="0.2" stroke="none"/></g><g transform="translate(-46,-14) scale(1,1)"><path d="M 424 43.5 C 424 32.7304464 456.0116368 24 495.5 24 C 534.9883632 24 567 32.7304464 567 43.5 C 567 54.2695536 534.9883632 63 495.5 63 C 456.0116368 63 424 54.2695536 424 43.5 Z" fill="#ffffff" stroke="none"/></g><g transform="translate(-46,-14) scale(1,1)"><path d="M 424 43.5 C 424 32.7304464 456.0116368 24 495.5 24 C 534.9883632 24 567 32.7304464 567 43.5 C 567 54.2695536 534.9883632 63 495.5 63 C 456.0116368 63 424 54.2695536 424 43.5 Z" fill="none" stroke="#000000" stroke-miterlimit="10"/></g><g transform="translate(-46,-14) scale(1,1)"><g><path fill="none" stroke="none"/><text fill="#000000" font-family="Arial" font-size="13px" font-style="normal" font-weight="bold" stroke="none" text-decoration="none" x="450.701416015625" y="49">Search by role</text></g></g><g transform="translate(-46,-14) scale(1,1)"><path d="M 239 48 C 239 38.6111584 275.2649312 31 320 31 C 364.7350688 31 401 38.6111584 401 48 C 401 57.3888416 364.7350688 65 320 65 C 275.2649312 65 239 57.3888416 239 48 Z" fill="#C0C0C0" opacity="0.2" stroke="none"/></g><g transform="translate(-46,-14) scale(1,1)"><path d="M 232 41 C 232 31.6111584 268.2649312 24 313 24 C 357.7350688 24 394 31.6111584 394 41 C 394 50.3888416 357.7350688 58 313 58 C 268.2649312 58 232 50.3888416 232 41 Z" fill="#ffffff" stroke="none"/></g><g transform="translate(-46,-14) scale(1,1)"><path d="M 232 41 C 232 31.6111584 268.2649312 24 313 24 C 357.7350688 24 394 31.6111584 394 41 C 394 50.3888416 357.7350688 58 313 58 C 268.2649312 58 232 50.3888416 232 41 Z" fill="none" stroke="#000000" stroke-miterlimit="10"/></g><g transform="translate(-46,-14) scale(1,1)"><g><path fill="none" stroke="none"/><text fill="#000000" font-family="Arial" font-size="13px" font-style="normal" font-weight="bold" stroke="none" text-decoration="none" x="260.260498046875" y="46.5">Search by region</text></g></g><g transform="translate(-46,-14) scale(1,1)"><path d="M 615 48 C 615 38.6111584 686.4105744 31 774.5 31 C 862.5894256 31 934 38.6111584 934 48 C 934 57.3888416 862.5894256 65 774.5 65 C 686.4105744 65 615 57.3888416 615 48 Z" fill="#C0C0C0" opacity="0.2" stroke="none"/></g><g transform="translate(-46,-14) scale(1,1)"><path d="M 608 41 C 608 31.6111584 679.4105744 24 767.5 24 C 855.5894256 24 927 31.6111584 927 41 C 927 50.3888416 855.5894256 58 767.5 58 C 679.4105744 58 608 50.3888416 608 41 Z" fill="#ffffff" stroke="none"/></g><g transform="translate(-46,-14) scale(1,1)"><path d="M 608 41 C 608 31.6111584 679.4105744 24 767.5 24 C 855.5894256 24 927 31.6111584 927 41 C 927 50.3888416 855.5894256 58 767.5 58 C 679.4105744 58 608 50.3888416 608 41 Z" fill="none" stroke="#000000" stroke-miterlimit="10"/></g><g transform="translate(-46,-14) scale(1,1)"><g><path fill="none" stroke="none"/><text fill="#000000" font-family="Arial" font-size="13px" font-style="normal" font-weight="bold" stroke="none" text-decoration="none" x="659.13916015625" y="46.5">Search by appointment percentage</text></g></g><g transform="translate(-46,-14) scale(1,1)"><path d="M 959 56 C 959 46.6111584 1005.1146656 39 1062 39 C 1118.8853344 39 1165 46.6111584 1165 56 C 1165 65.3888416 1118.8853344 73 1062 73 C 1005.1146656 73 959 65.3888416 959 56 Z" fill="#C0C0C0" opacity="0.2" stroke="none"/></g><g transform="translate(-46,-14) scale(1,1)"><path d="M 952 49 C 952 39.6111584 998.1146656 32 1055 32 C 1111.8853344 32 1158 39.6111584 1158 49 C 1158 58.3888416 1111.8853344 66 1055 66 C 998.1146656 66 952 58.3888416 952 49 Z" fill="#ffffff" stroke="none"/></g><g transform="translate(-46,-14) scale(1,1)"><path d="M 952 49 C 952 39.6111584 998.1146656 32 1055 32 C 1111.8853344 32 1158 39.6111584 1158 49 C 1158 58.3888416 1111.8853344 66 1055 66 C 998.1146656 66 952 58.3888416 952 49 Z" fill="none" stroke="#000000" stroke-miterlimit="10"/></g><g transform="translate(-46,-14) scale(1,1)"><g><path fill="none" stroke="none"/><text fill="#000000" font-family="Arial" font-size="13px" font-style="normal" font-weight="bold" stroke="none" text-decoration="none" x="986.734130859375" y="54.5">Search by job number</text></g></g><g transform="translate(-46,-14) scale(1,1)"><path d="M 128 296 L 192 296 M 192 296 A 8 8 0 0 0 200 288 L 200 217 M 200 217 A 8 8 0 0 1 208 209 L 536 209" fill="none" stroke="#000000" stroke-miterlimit="10"/></g><g transform="translate(-46,-14) scale(1,1)"><path d="M 129 295 L 551 297" fill="none" stroke="#000000" stroke-miterlimit="10"/></g><g transform="translate(-46,-14) scale(1,1)"><path d="M 128 296 L 192 296 M 192 296 A 8 8 0 0 1 200 304 L 200 368 M 200 368 A 8 8 0 0 0 208 376 L 568 376" fill="none" stroke="#000000" stroke-miterlimit="10"/></g><g transform="translate(-46,-14) scale(1,1)"><path d="M 346 59 L 590 191" fill="none" stroke="#000000" stroke-dasharray="3" stroke-miterlimit="10"/></g><g transform="translate(-46,-14) scale(1,1)"><path d="M 579.0585191492906 189.86686417691394 L 590 191 L 583.0644527187502 182.46195666973114" fill="none" stroke="#000000" stroke-miterlimit="10"/></g><g transform="translate(-46,-14) scale(1,1)"><g><path fill="none" stroke="none"/><text fill="#000000" font-family="Arial" font-size="13px" font-style="normal" font-weight="normal" stroke="none" text-decoration="none" x="454.5" y="103">«include»</text></g></g><g transform="translate(-46,-14) scale(1,1)"><path d="M 511 64 L 609 191" fill="none" stroke="#000000" stroke-dasharray="3" stroke-miterlimit="10"/></g><g transform="translate(-46,-14) scale(1,1)"><path d="M 599.4588095560991 185.52590784575054 L 609 191 L 606.1241272196353 180.38259185341556" fill="none" stroke="#000000" stroke-miterlimit="10"/></g><g transform="translate(-46,-14) scale(1,1)"><g><path fill="none" stroke="none"/><text fill="#000000" font-family="Arial" font-size="13px" font-style="normal" font-weight="normal" stroke="none" text-decoration="none" x="555.5" y="113">«include»</text></g></g><g transform="translate(-46,-14) scale(1,1)"><path d="M 752 59 L 638 191" fill="none" stroke="#000000" stroke-dasharray="3" stroke-miterlimit="10"/></g><g transform="translate(-46,-14) scale(1,1)"><path d="M 641.4566663334441 180.55722939736614 L 638 191 L 647.8283861121755 186.06007829717961" fill="none" stroke="#000000" stroke-miterlimit="10"/></g><g transform="translate(-46,-14) scale(1,1)"><g><path fill="none" stroke="none"/><text fill="#000000" font-family="Arial" font-size="13px" font-style="normal" font-weight="normal" stroke="none" text-decoration="none" x="689.5" y="149">«include»</text></g></g><g transform="translate(-46,-14) scale(1,1)"><path d="M 1006 67 L 672 191" fill="none" stroke="#000000" stroke-dasharray="3" stroke-miterlimit="10"/></g><g transform="translate(-46,-14) scale(1,1)"><path d="M 680.0621761096198 183.5165972727993 L 672 191 L 682.9923842129859 191.40925458347883" fill="none" stroke="#000000" stroke-miterlimit="10"/></g><g transform="translate(-46,-14) scale(1,1)"><g><path fill="none" stroke="none"/><text fill="#000000" font-family="Arial" font-size="13px" font-style="normal" font-weight="normal" stroke="none" text-decoration="none" x="821.5" y="162">«include»</text></g></g><g transform="translate(-46,-14) scale(1,1)"><path d="M 710 209 L 1313 209 M 1313 209 A 8 8 0 0 1 1321 217 L 1321 696" fill="none" stroke="#000000" stroke-miterlimit="10"/></g><g transform="translate(-46,-14) scale(1,1)"><path d="M 696 296 L 1313 296 M 1313 296 A 8 8 0 0 1 1321 304 L 1321 696" fill="none" stroke="#000000" stroke-miterlimit="10"/></g><g transform="translate(-46,-14) scale(1,1)"><path d="M 683 376 L 1313 376 M 1313 376 A 8 8 0 0 1 1321 384 L 1321 696" fill="none" stroke="#000000" stroke-miterlimit="10"/></g><g transform="translate(-46,-14) scale(1,1)"><path d="M 105 592 L 200 592 M 200 592 A 8 8 0 0 1 208 600 L 208 736 M 208 736 A 8 8 0 0 0 216 744 L 544 744" fill="none" stroke="#000000" stroke-miterlimit="10"/></g><g transform="translate(-46,-14) scale(1,1)"><path d="M 719 424 C 719 414.6111584 741.6096176 407 769.5 407 C 797.3903824 407 820 414.6111584 820 424 C 820 433.3888416 797.3903824 441 769.5 441 C 741.6096176 441 719 433.3888416 719 424 Z" fill="#C0C0C0" opacity="0.2" stroke="none"/></g><g transform="translate(-46,-14) scale(1,1)"><path d="M 712 417 C 712 407.6111584 734.6096176 400 762.5 400 C 790.3903824 400 813 407.6111584 813 417 C 813 426.3888416 790.3903824 434 762.5 434 C 734.6096176 434 712 426.3888416 712 417 Z" fill="#ffffff" stroke="none"/></g><g transform="translate(-46,-14) scale(1,1)"><path d="M 712 417 C 712 407.6111584 734.6096176 400 762.5 400 C 790.3903824 400 813 407.6111584 813 417 C 813 426.3888416 790.3903824 434 762.5 434 C 734.6096176 434 712 426.3888416 712 417 Z" fill="none" stroke="#000000" stroke-miterlimit="10"/></g><g transform="translate(-46,-14) scale(1,1)"><g><path fill="none" stroke="none"/><text fill="#000000" font-family="Arial" font-size="13px" font-style="normal" font-weight="bold" stroke="none" text-decoration="none" x="739.38818359375" y="422.5">Identify</text></g></g><g transform="translate(-46,-14) scale(1,1)"><path d="M 711 402 L 684 394" fill="none" stroke="#000000" stroke-dasharray="3" stroke-miterlimit="10"/></g><g transform="translate(-46,-14) scale(1,1)"><path d="M 694.9398283416717 392.8510196456184 L 684 394 L 692.5480786054462 400.92317500537956" fill="none" stroke="#000000" stroke-miterlimit="10"/></g><g transform="translate(-46,-14) scale(1,1)"><g><path fill="none" stroke="none"/><text fill="#000000" font-family="Arial" font-size="13px" font-style="normal" font-weight="normal" stroke="none" text-decoration="none" x="660.5" y="431">«include»</text></g></g><g transform="translate(-46,-14) scale(1,1)"><path d="M 271 944 C 271 934.6111584 302.1162064 927 340.5 927 C 378.8837936 927 410 934.6111584 410 944 C 410 953.3888416 378.8837936 961 340.5 961 C 302.1162064 961 271 953.3888416 271 944 Z" fill="#C0C0C0" opacity="0.2" stroke="none"/></g><g transform="translate(-46,-14) scale(1,1)"><path d="M 264 937 C 264 927.6111584 295.1162064 920 333.5 920 C 371.8837936 920 403 927.6111584 403 937 C 403 946.3888416 371.8837936 954 333.5 954 C 295.1162064 954 264 946.3888416 264 937 Z" fill="#ffffff" stroke="none"/></g><g transform="translate(-46,-14) scale(1,1)"><path d="M 264 937 C 264 927.6111584 295.1162064 920 333.5 920 C 371.8837936 920 403 927.6111584 403 937 C 403 946.3888416 371.8837936 954 333.5 954 C 295.1162064 954 264 946.3888416 264 937 Z" fill="none" stroke="#000000" stroke-miterlimit="10"/></g><g transform="translate(-46,-14) scale(1,1)"><g><path fill="none" stroke="none"/><text fill="#000000" font-family="Arial" font-size="13px" font-style="normal" font-weight="bold" stroke="none" text-decoration="none" x="288.71728515625" y="942.5">Add candidate</text></g></g><g transform="translate(-46,-14) scale(1,1)"><path d="M 263 1008 C 263 998.6111584 293.4446336 991 331 991 C 368.5553664 991 399 998.6111584 399 1008 C 399 1017.3888416 368.5553664 1025 331 1025 C 293.4446336 1025 263 1017.3888416 263 1008 Z" fill="#C0C0C0" opacity="0.2" stroke="none"/></g><g transform="translate(-46,-14) scale(1,1)"><path d="M 256 1001 C 256 991.6111584 286.4446336 984 324 984 C 361.5553664 984 392 991.6111584 392 1001 C 392 1010.3888416 361.5553664 1018 324 1018 C 286.4446336 1018 256 1010.3888416 256 1001 Z" fill="#ffffff" stroke="none"/></g><g transform="translate(-46,-14) scale(1,1)"><path d="M 256 1001 C 256 991.6111584 286.4446336 984 324 984 C 361.5553664 984 392 991.6111584 392 1001 C 392 1010.3888416 361.5553664 1018 324 1018 C 286.4446336 1018 256 1010.3888416 256 1001 Z" fill="none" stroke="#000000" stroke-miterlimit="10"/></g><g transform="translate(-46,-14) scale(1,1)"><g><path fill="none" stroke="none"/><text fill="#000000" font-family="Arial" font-size="13px" font-style="normal" font-weight="bold" stroke="none" text-decoration="none" x="280.29638671875" y="1006.5">edit candidate</text></g></g><g transform="translate(-46,-14) scale(1,1)"><path d="M 404 921 L 541 891" fill="none" stroke="#000000" stroke-dasharray="3" stroke-miterlimit="10"/></g><g transform="translate(-46,-14) scale(1,1)"><path d="M 531.9730116476757 897.2859749670995 L 541 891 L 530.1720997967745 889.0618108479845" fill="none" stroke="#000000" stroke-miterlimit="10"/></g><g transform="translate(-46,-14) scale(1,1)"><g><path fill="none" stroke="none"/><text fill="#000000" font-family="Arial" font-size="13px" font-style="normal" font-weight="normal" stroke="none" text-decoration="none" x="423.5" y="898">«include»</text></g></g><g transform="translate(-46,-14) scale(1,1)"><path d="M 366 983 L 581 891" fill="none" stroke="#000000" stroke-dasharray="3" stroke-miterlimit="10"/></g><g transform="translate(-46,-14) scale(1,1)"><path d="M 573.3128191756592 898.8681161006868 L 581 891 L 570.0007440609427 891.1279405608602" fill="none" stroke="#000000" stroke-miterlimit="10"/></g><g transform="translate(-46,-14) scale(1,1)"><g><path fill="none" stroke="none"/><text fill="#000000" font-family="Arial" font-size="13px" font-style="normal" font-weight="normal" stroke="none" text-decoration="none" x="429.5" y="970">«include»</text></g></g><g transform="translate(-46,-14) scale(1,1)"><path d="M 122 872 L 200 872 M 200 872 A 8 8 0 0 1 208 880 L 208 1137 M 208 1137 A 8 8 0 0 0 216 1145 L 560 1145" fill="none" stroke="#000000" stroke-miterlimit="10"/></g><g transform="translate(-46,-14) scale(1,1)"><path d="M 751 1240 C 751 1230.6111584 796.6669504 1223 853 1223 C 909.3330496 1223 955 1230.6111584 955 1240 C 955 1249.3888416 909.3330496 1257 853 1257 C 796.6669504 1257 751 1249.3888416 751 1240 Z" fill="#C0C0C0" opacity="0.2" stroke="none"/></g><g transform="translate(-46,-14) scale(1,1)"><path d="M 744 1233 C 744 1223.6111584 789.6669504 1216 846 1216 C 902.3330496 1216 948 1223.6111584 948 1233 C 948 1242.3888416 902.3330496 1250 846 1250 C 789.6669504 1250 744 1242.3888416 744 1233 Z" fill="#ffffff" stroke="none"/></g><g transform="translate(-46,-14) scale(1,1)"><path d="M 744 1233 C 744 1223.6111584 789.6669504 1216 846 1216 C 902.3330496 1216 948 1223.6111584 948 1233 C 948 1242.3888416 902.3330496 1250 846 1250 C 789.6669504 1250 744 1242.3888416 744 1233 Z" fill="none" stroke="#000000" stroke-miterlimit="10"/></g><g transform="translate(-46,-14) scale(1,1)"><g><path fill="none" stroke="none"/><text fill="#000000" font-family="Arial" font-size="13px" font-style="normal" font-weight="bold" stroke="none" text-decoration="none" x="778.45458984375" y="1238.5">Display Candidate list</text></g></g><g transform="translate(-46,-14) scale(1,1)"><path d="M 801 1215 L 669 1163" fill="none" stroke="#000000" stroke-dasharray="3" stroke-miterlimit="10"/></g><g transform="translate(-46,-14) scale(1,1)"><path d="M 679.998329449151 1162.8082988577587 L 669 1163 L 676.9125465128584 1170.6414401575785" fill="none" stroke="#000000" stroke-miterlimit="10"/></g><g transform="translate(-46,-14) scale(1,1)"><g><path fill="none" stroke="none"/><text fill="#000000" font-family="Arial" font-size="13px" font-style="normal" font-weight="normal" stroke="none" text-decoration="none" x="696.5" y="1221">«include»</text></g></g><g transform="translate(-46,-14) scale(1,1)"><path d="M 751 1024 C 751 1014.6111584 786.5933583999999 1007 830.5 1007 C 874.4066416000001 1007 910 1014.6111584 910 1024 C 910 1033.3888416 874.4066416000001 1041 830.5 1041 C 786.5933583999999 1041 751 1033.3888416 751 1024 Z" fill="#C0C0C0" opacity="0.2" stroke="none"/></g><g transform="translate(-46,-14) scale(1,1)"><path d="M 744 1017 C 744 1007.6111584 779.5933583999999 1000 823.5 1000 C 867.4066416000001 1000 903 1007.6111584 903 1017 C 903 1026.3888416 867.4066416000001 1034 823.5 1034 C 779.5933583999999 1034 744 1026.3888416 744 1017 Z" fill="#ffffff" stroke="none"/></g><g transform="translate(-46,-14) scale(1,1)"><path d="M 744 1017 C 744 1007.6111584 779.5933583999999 1000 823.5 1000 C 867.4066416000001 1000 903 1007.6111584 903 1017 C 903 1026.3888416 867.4066416000001 1034 823.5 1034 C 779.5933583999999 1034 744 1026.3888416 744 1017 Z" fill="none" stroke="#000000" stroke-miterlimit="10"/></g><g transform="translate(-46,-14) scale(1,1)"><g><path fill="none" stroke="none"/><text fill="#000000" font-family="Arial" font-size="13px" font-style="normal" font-weight="bold" stroke="none" text-decoration="none" x="771.858642578125" y="1022.5">Notify Candidate</text></g></g><g transform="translate(-46,-14) scale(1,1)"><path d="M 798 999 L 648 891" fill="none" stroke="#000000" stroke-dasharray="3" stroke-miterlimit="10"/></g><g transform="translate(-46,-14) scale(1,1)"><path d="M 658.7070007663366 893.52193072658 L 648 891 L 653.7877185295988 900.3542671664935" fill="none" stroke="#000000" stroke-miterlimit="10"/></g><g transform="translate(-46,-14) scale(1,1)"><g><path fill="none" stroke="none"/><text fill="#000000" font-family="Arial" font-size="13px" font-style="normal" font-weight="normal" stroke="none" text-decoration="none" x="677.5" y="974">«include»</text></g></g><g transform="translate(-46,-14) scale(1,1)"><path d="M 702 744 L 1296 744" fill="none" stroke="#000000" stroke-miterlimit="10"/></g><g transform="translate(-46,-14) scale(1,1)"><path d="M 711 872 L 1313 872 M 1313 872 A 8 8 0 0 0 1321 864 L 1321 775" fill="none" stroke="#000000" stroke-miterlimit="10"/></g><g transform="translate(-46,-14) scale(1,1)"><path d="M 689 1145 L 1313 1145 M 1313 1145 A 8 8 0 0 0 1321 1137 L 1321 775" fill="none" stroke="#000000" stroke-miterlimit="10"/></g></g></svg>